<?xml version="1.0" encoding="UTF-8" standalone="no"?>
<!DOCTYPE svg PUBLIC "-//W3C//DTD SVG 1.1//EN"
 "http://www.w3.org/Graphics/SVG/1.1/DTD/svg11.dtd">
<!-- Generated by graphviz version 12.2.1 (20241206.2353)
 -->
<!-- Pages: 1 -->
<svg width="658pt" height="1092pt"
 viewBox="0.00 0.00 658.25 1092.11" xmlns="http://www.w3.org/2000/svg" xmlns:xlink="http://www.w3.org/1999/xlink">
<g id="graph0" class="graph" transform="scale(1 1) rotate(0) translate(4 1088.11)">
<polygon fill="white" stroke="none" points="-4,4 -4,-1088.11 654.25,-1088.11 654.25,4 -4,4"/>
<!-- start -->
<g id="node1" class="node">
<title>start</title>
<ellipse fill="none" stroke="black" cx="423" cy="-1066.11" rx="28.32" ry="18"/>
<text text-anchor="middle" x="423" y="-1061.06" font-family="Times,serif" font-size="14.00">Start</text>
</g>
<!-- ncg -->
<g id="node3" class="node">
<title>ncg</title>
<polygon fill="none" stroke="black" points="521.38,-1011.11 324.62,-1011.11 324.62,-970.11 521.38,-970.11 521.38,-1011.11"/>
<text text-anchor="middle" x="423" y="-993.81" font-family="Times,serif" font-size="14.00">Use NCG with Wolfe Conditions</text>
<text text-anchor="middle" x="423" y="-977.31" font-family="Times,serif" font-size="14.00">(c1, c2)</text>
</g>
<!-- start&#45;&gt;ncg -->
<g id="edge1" class="edge">
<title>start&#45;&gt;ncg</title>
<path fill="none" stroke="black" d="M423,-1047.69C423,-1040.3 423,-1031.46 423,-1023"/>
<polygon fill="black" stroke="black" points="426.5,-1023.01 423,-1013.01 419.5,-1023.01 426.5,-1023.01"/>
</g>
<!-- terminate -->
<g id="node2" class="node">
<title>terminate</title>
<ellipse fill="none" stroke="black" cx="567" cy="-141.8" rx="49.3" ry="49.3"/>
<ellipse fill="none" stroke="black" cx="567" cy="-141.8" rx="53.3" ry="53.3"/>
<text text-anchor="middle" x="567" y="-136.75" font-family="Times,serif" font-size="14.00">Terminate</text>
</g>
<!-- ncg_progress -->
<g id="node4" class="node">
<title>ncg_progress</title>
<polygon fill="none" stroke="black" points="329,-933.11 194.85,-915.11 329,-897.11 463.15,-915.11 329,-933.11"/>
<text text-anchor="middle" x="329" y="-910.06" font-family="Times,serif" font-size="14.00">NCG makes progress?</text>
</g>
<!-- ncg&#45;&gt;ncg_progress -->
<g id="edge2" class="edge">
<title>ncg&#45;&gt;ncg_progress</title>
<path fill="none" stroke="black" d="M397.81,-969.91C385.21,-960.06 369.91,-948.1 356.95,-937.96"/>
<polygon fill="black" stroke="black" points="359.22,-935.29 349.19,-931.89 354.91,-940.81 359.22,-935.29"/>
</g>
<!-- continue_ncg -->
<g id="node5" class="node">
<title>continue_ncg</title>
<polygon fill="none" stroke="black" points="459.75,-844.61 334.25,-844.61 334.25,-808.61 459.75,-808.61 459.75,-844.61"/>
<text text-anchor="middle" x="397" y="-821.56" font-family="Times,serif" font-size="14.00">Continue with NCG</text>
</g>
<!-- ncg_progress&#45;&gt;continue_ncg -->
<g id="edge3" class="edge">
<title>ncg_progress&#45;&gt;continue_ncg</title>
<path fill="none" stroke="black" d="M341.16,-898.64C350.96,-886.17 364.98,-868.35 376.51,-853.67"/>
<polygon fill="black" stroke="black" points="378.95,-856.23 382.38,-846.21 373.44,-851.91 378.95,-856.23"/>
<text text-anchor="middle" x="379.22" y="-865.81" font-family="Times,serif" font-size="14.00">Yes</text>
</g>
<!-- switch_lgd -->
<g id="node7" class="node">
<title>switch_lgd</title>
<polygon fill="none" stroke="black" points="292.25,-844.61 91.75,-844.61 91.75,-808.61 292.25,-808.61 292.25,-844.61"/>
<text text-anchor="middle" x="192" y="-821.56" font-family="Times,serif" font-size="14.00">Switch to Local Gradient Descent</text>
</g>
<!-- ncg_progress&#45;&gt;switch_lgd -->
<g id="edge7" class="edge">
<title>ncg_progress&#45;&gt;switch_lgd</title>
<path fill="none" stroke="black" d="M306.38,-899.82C285.31,-886.52 253.53,-866.46 228.81,-850.85"/>
<polygon fill="black" stroke="black" points="230.98,-848.08 220.66,-845.7 227.25,-854 230.98,-848.08"/>
<text text-anchor="middle" x="281.02" y="-865.81" font-family="Times,serif" font-size="14.00">No</text>
</g>
<!-- ncg_converged -->
<g id="node6" class="node">
<title>ncg_converged</title>
<polygon fill="none" stroke="black" points="518,-771.61 385.75,-730.61 518,-689.61 650.25,-730.61 518,-771.61"/>
<text text-anchor="middle" x="518" y="-733.81" font-family="Times,serif" font-size="14.00">Converged?</text>
<text text-anchor="middle" x="518" y="-717.31" font-family="Times,serif" font-size="14.00">(ΔE, ΔF &lt; threshold)</text>
</g>
<!-- continue_ncg&#45;&gt;ncg_converged -->
<g id="edge4" class="edge">
<title>continue_ncg&#45;&gt;ncg_converged</title>
<path fill="none" stroke="black" d="M419.48,-808.15C434.28,-796.65 454.18,-781.19 472.23,-767.17"/>
<polygon fill="black" stroke="black" points="473.96,-770.25 479.71,-761.35 469.67,-764.72 473.96,-770.25"/>
</g>
<!-- ncg_converged&#45;&gt;terminate -->
<g id="edge5" class="edge">
<title>ncg_converged&#45;&gt;terminate</title>
<path fill="none" stroke="black" d="M518.62,-689.36C518.82,-672.72 519,-653.23 519,-635.61 519,-635.61 519,-635.61 519,-287.61 519,-257.81 528.27,-226.24 538.66,-200.21"/>
<polygon fill="black" stroke="black" points="541.81,-201.76 542.42,-191.18 535.35,-199.07 541.81,-201.76"/>
<text text-anchor="middle" x="529.12" y="-468.06" font-family="Times,serif" font-size="14.00">Yes</text>
</g>
<!-- ncg_converged&#45;&gt;ncg -->
<g id="edge6" class="edge">
<title>ncg_converged&#45;&gt;ncg</title>
<path fill="none" stroke="black" d="M517.7,-771.81C515.83,-814.25 508.29,-881.96 481,-933.11 475.28,-943.82 466.82,-953.74 458.12,-962.18"/>
<polygon fill="black" stroke="black" points="455.92,-959.44 450.89,-968.77 460.64,-964.61 455.92,-959.44"/>
<text text-anchor="middle" x="514.1" y="-865.81" font-family="Times,serif" font-size="14.00">No</text>
</g>
<!-- init_step -->
<g id="node8" class="node">
<title>init_step</title>
<polygon fill="none" stroke="black" points="299.75,-748.61 48.25,-748.61 48.25,-712.61 299.75,-712.61 299.75,-748.61"/>
<text text-anchor="middle" x="174" y="-725.56" font-family="Times,serif" font-size="14.00">trialStepSize = a0 * lFace * maxForceMag</text>
</g>
<!-- switch_lgd&#45;&gt;init_step -->
<g id="edge8" class="edge">
<title>switch_lgd&#45;&gt;init_step</title>
<path fill="none" stroke="black" d="M188.7,-808.37C186.13,-794.94 182.5,-776 179.49,-760.29"/>
<polygon fill="black" stroke="black" points="182.94,-759.71 177.63,-750.54 176.07,-761.02 182.94,-759.71"/>
</g>
<!-- apply_step -->
<g id="node9" class="node">
<title>apply_step</title>
<polygon fill="none" stroke="black" points="281.38,-652.61 66.62,-652.61 66.62,-616.61 281.38,-616.61 281.38,-652.61"/>
<text text-anchor="middle" x="174" y="-629.56" font-family="Times,serif" font-size="14.00">Apply step and compute newEnergy</text>
</g>
<!-- init_step&#45;&gt;apply_step -->
<g id="edge9" class="edge">
<title>init_step&#45;&gt;apply_step</title>
<path fill="none" stroke="black" d="M174,-712.37C174,-698.94 174,-680 174,-664.29"/>
<polygon fill="black" stroke="black" points="177.5,-664.57 174,-654.57 170.5,-664.57 177.5,-664.57"/>
</g>
<!-- energy_check -->
<g id="node10" class="node">
<title>energy_check</title>
<polygon fill="none" stroke="black" points="293,-579.61 129.9,-561.61 293,-543.61 456.1,-561.61 293,-579.61"/>
<text text-anchor="middle" x="293" y="-556.56" font-family="Times,serif" font-size="14.00">Is newEnergy &lt; oldEnergy?</text>
</g>
<!-- apply_step&#45;&gt;energy_check -->
<g id="edge10" class="edge">
<title>apply_step&#45;&gt;energy_check</title>
<path fill="none" stroke="black" d="M203.11,-616.24C219.91,-606.22 241.12,-593.56 258.72,-583.06"/>
<polygon fill="black" stroke="black" points="260.51,-586.07 267.3,-577.94 256.92,-580.06 260.51,-586.07"/>
</g>
<!-- reset_step -->
<g id="node12" class="node">
<title>reset_step</title>
<polygon fill="none" stroke="black" points="405.75,-491.11 214.25,-491.11 214.25,-455.11 405.75,-455.11 405.75,-491.11"/>
<text text-anchor="middle" x="310" y="-468.06" font-family="Times,serif" font-size="14.00">trialStepSize *= lgdShrinkCoeff</text>
</g>
<!-- energy_check&#45;&gt;reset_step -->
<g id="edge17" class="edge">
<title>energy_check&#45;&gt;reset_step</title>
<path fill="none" stroke="black" d="M296.36,-543.52C298.65,-531.87 301.74,-516.15 304.4,-502.63"/>
<polygon fill="black" stroke="black" points="307.8,-503.43 306.3,-492.94 300.94,-502.08 307.8,-503.43"/>
<text text-anchor="middle" x="311.27" y="-512.31" font-family="Times,serif" font-size="14.00">No</text>
</g>
<!-- lgd_converged -->
<g id="node14" class="node">
<title>lgd_converged</title>
<polygon fill="none" stroke="black" points="322,-329.61 189.75,-288.61 322,-247.61 454.25,-288.61 322,-329.61"/>
<text text-anchor="middle" x="322" y="-291.81" font-family="Times,serif" font-size="14.00">Converged?</text>
<text text-anchor="middle" x="322" y="-275.31" font-family="Times,serif" font-size="14.00">(ΔE, ΔF &lt; threshold)</text>
</g>
<!-- energy_check&#45;&gt;lgd_converged -->
<g id="edge11" class="edge">
<title>energy_check&#45;&gt;lgd_converged</title>
<path fill="none" stroke="black" d="M261.12,-546.73C238.85,-535.23 210.61,-516.64 196,-491.11 168.47,-442.98 160.23,-414.6 188,-366.61 201.29,-343.65 224.3,-326.94 247.54,-315.07"/>
<polygon fill="black" stroke="black" points="248.98,-318.26 256.48,-310.78 245.95,-311.96 248.98,-318.26"/>
<text text-anchor="middle" x="182.62" y="-423.81" font-family="Times,serif" font-size="14.00">Yes</text>
</g>
<!-- magnify_step -->
<g id="node11" class="node">
<title>magnify_step</title>
<polygon fill="none" stroke="black" points="206.38,-36 3.62,-36 3.62,0 206.38,0 206.38,-36"/>
<text text-anchor="middle" x="105" y="-12.95" font-family="Times,serif" font-size="14.00">trialStepSize *= lgdMagnifyCoeff</text>
</g>
<!-- magnify_step&#45;&gt;apply_step -->
<g id="edge16" class="edge">
<title>magnify_step&#45;&gt;apply_step</title>
<path fill="none" stroke="black" d="M97.89,-36.42C89.02,-59.77 75,-102.69 75,-140.8 75,-562.61 75,-562.61 75,-562.61 75,-584.13 90.64,-599.76 109.49,-610.78"/>
<polygon fill="black" stroke="black" points="107.77,-613.83 118.24,-615.43 111.05,-607.65 107.77,-613.83"/>
</g>
<!-- adjust_step -->
<g id="node13" class="node">
<title>adjust_step</title>
<polygon fill="none" stroke="black" points="453.88,-402.61 206.12,-402.61 206.12,-366.61 453.88,-366.61 453.88,-402.61"/>
<text text-anchor="middle" x="330" y="-379.56" font-family="Times,serif" font-size="14.00">Reduce step until newEnergy &lt; oldEnergy</text>
</g>
<!-- reset_step&#45;&gt;adjust_step -->
<g id="edge18" class="edge">
<title>reset_step&#45;&gt;adjust_step</title>
<path fill="none" stroke="black" d="M313.95,-455.02C316.65,-443.37 320.28,-427.65 323.41,-414.13"/>
<polygon fill="black" stroke="black" points="326.8,-414.96 325.65,-404.43 319.98,-413.39 326.8,-414.96"/>
</g>
<!-- adjust_step&#45;&gt;lgd_converged -->
<g id="edge19" class="edge">
<title>adjust_step&#45;&gt;lgd_converged</title>
<path fill="none" stroke="black" d="M328.53,-366.37C327.9,-358.91 327.12,-349.75 326.32,-340.38"/>
<polygon fill="black" stroke="black" points="329.81,-340.14 325.48,-330.47 322.84,-340.74 329.81,-340.14"/>
</g>
<!-- lgd_converged&#45;&gt;terminate -->
<g id="edge12" class="edge">
<title>lgd_converged&#45;&gt;terminate</title>
<path fill="none" stroke="black" d="M372.98,-262.99C408.26,-245.35 455.9,-220.35 496,-195.11 502.68,-190.9 509.55,-186.27 516.26,-181.55"/>
<polygon fill="black" stroke="black" points="517.96,-184.64 524.05,-175.98 513.88,-178.95 517.96,-184.64"/>
<text text-anchor="middle" x="473.82" y="-216.31" font-family="Times,serif" font-size="14.00">Yes</text>
</g>
<!-- interval_check -->
<g id="node15" class="node">
<title>interval_check</title>
<polygon fill="none" stroke="black" points="304,-159.8 130.05,-141.8 304,-123.8 477.95,-141.8 304,-159.8"/>
<text text-anchor="middle" x="304" y="-136.75" font-family="Times,serif" font-size="14.00">Reach step size reset interval?</text>
</g>
<!-- lgd_converged&#45;&gt;interval_check -->
<g id="edge13" class="edge">
<title>lgd_converged&#45;&gt;interval_check</title>
<path fill="none" stroke="black" d="M317.18,-248.8C314.14,-224.35 310.28,-193.32 307.53,-171.16"/>
<polygon fill="black" stroke="black" points="311.01,-170.86 306.31,-161.37 304.07,-171.72 311.01,-170.86"/>
<text text-anchor="middle" x="322.86" y="-216.31" font-family="Times,serif" font-size="14.00">No</text>
</g>
<!-- interval_check&#45;&gt;init_step -->
<g id="edge14" class="edge">
<title>interval_check&#45;&gt;init_step</title>
<path fill="none" stroke="black" d="M203.19,-149.79C114.7,-162.05 0,-195.68 0,-287.61 0,-635.61 0,-635.61 0,-635.61 0,-672.25 30.24,-694.68 65.5,-708.37"/>
<polygon fill="black" stroke="black" points="64.05,-711.57 74.64,-711.67 66.42,-704.98 64.05,-711.57"/>
<text text-anchor="middle" x="10.12" y="-468.06" font-family="Times,serif" font-size="14.00">Yes</text>
</g>
<!-- interval_check&#45;&gt;magnify_step -->
<g id="edge15" class="edge">
<title>interval_check&#45;&gt;magnify_step</title>
<path fill="none" stroke="black" d="M279.6,-125.87C245.54,-105.02 183.4,-66.99 143.18,-42.37"/>
<polygon fill="black" stroke="black" points="145.11,-39.44 134.75,-37.21 141.45,-45.42 145.11,-39.44"/>
<text text-anchor="middle" x="194.93" y="-57.2" font-family="Times,serif" font-size="14.00">No</text>
</g>
</g>
</svg>
