<svg version="1.1" viewBox="0.0 0.0 378.0 426.0" fill="none" stroke="none" stroke-linecap="square" stroke-miterlimit="10" xmlns:xlink="http://www.w3.org/1999/xlink" xmlns="http://www.w3.org/2000/svg"><clipPath id="p.0"><path d="m0 0l378.0 0l0 426.0l-378.0 0l0 -426.0z" clip-rule="nonzero"/></clipPath><g clip-path="url(#p.0)"><path fill="#000000" fill-opacity="0.0" d="m0 0l378.0 0l0 426.0l-378.0 0z" fill-rule="evenodd"/><path fill="#000000" fill-opacity="0.0" d="m20.863518 271.44357l158.14172 -238.4567" fill-rule="evenodd"/><path stroke="#000000" stroke-width="2.0" stroke-linejoin="round" stroke-linecap="butt" d="m20.863518 271.44357l151.50943 -228.45607" fill-rule="evenodd"/><path fill="#000000" stroke="#000000" stroke-width="2.0" stroke-linecap="butt" d="m175.126 44.8133l2.2632751 -9.389767l-7.769394 5.7381706z" fill-rule="evenodd"/><path fill="#000000" fill-opacity="0.0" d="m21.905512 272.48557l322.11023 -52.472443" fill-rule="evenodd"/><path stroke="#000000" stroke-width="2.0" stroke-linejoin="round" stroke-linecap="butt" d="m21.905512 272.48557l310.26636 -50.543045" fill-rule="evenodd"/><path fill="#000000" stroke="#000000" stroke-width="2.0" stroke-linecap="butt" d="m332.703 225.203l8.426971 -4.7197876l-9.489258 -1.801178z" fill-rule="evenodd"/><path fill="#000000" fill-opacity="0.0" d="m186.53543 21.372704l169.82678 196.94489" fill-rule="evenodd"/><path stroke="#000000" stroke-width="2.0" stroke-linejoin="round" stroke-linecap="butt" d="m186.53543 21.372704l169.82678 196.94489" fill-rule="evenodd"/><path fill="#000000" fill-opacity="0.0" d="m22.495258 271.0008l189.51181 -89.511795" fill-rule="evenodd"/><path stroke="#1155cc" stroke-width="4.0" stroke-linejoin="round" stroke-linecap="butt" d="m22.495258 271.0008l167.81075 -79.261765" fill-rule="evenodd"/><path fill="#1155cc" stroke="#1155cc" stroke-width="4.0" stroke-linecap="butt" d="m193.12772 197.71309l13.591888 -13.726669l-19.235321 1.7785339z" fill-rule="evenodd"/><path fill="#cfe2f3" d="m9.112861 271.2152l0 0c0 -6.340393 5.1399126 -11.480316 11.480315 -11.480316l0 0c3.0447693 0 5.9648323 1.2095337 8.117809 3.3625183c2.152975 2.1529846 3.362505 5.0730286 3.362505 8.117798l0 0c0 6.3404236 -5.1399117 11.480316 -11.480314 11.480316l0 0c-6.3404026 0 -11.480315 -5.1398926 -11.480315 -11.480316z" fill-rule="evenodd"/><path stroke="#000000" stroke-width="2.0" stroke-linejoin="round" stroke-linecap="butt" d="m9.112861 271.2152l0 0c0 -6.340393 5.1399126 -11.480316 11.480315 -11.480316l0 0c3.0447693 0 5.9648323 1.2095337 8.117809 3.3625183c2.152975 2.1529846 3.362505 5.0730286 3.362505 8.117798l0 0c0 6.3404236 -5.1399117 11.480316 -11.480314 11.480316l0 0c-6.3404026 0 -11.480315 -5.1398926 -11.480315 -11.480316z" fill-rule="evenodd"/><path fill="#cfe2f3" d="m182.11548 22.309711l0 0c0 -2.5918255 2.1010895 -4.692913 4.692917 -4.692913l0 0c1.2446442 0 2.4383087 0.49443054 3.31839 1.3745213c0.88009644 0.8800926 1.374527 2.0737534 1.374527 3.3183918l0 0c0 2.5918236 -2.1010895 4.692913 -4.692917 4.692913l0 0c-2.5918274 0 -4.692917 -2.1010895 -4.692917 -4.692913z" fill-rule="evenodd"/><path stroke="#000000" stroke-width="2.0" stroke-linejoin="round" stroke-linecap="butt" d="m182.11548 22.309711l0 0c0 -2.5918255 2.1010895 -4.692913 4.692917 -4.692913l0 0c1.2446442 0 2.4383087 0.49443054 3.31839 1.3745213c0.88009644 0.8800926 1.374527 2.0737534 1.374527 3.3183918l0 0c0 2.5918236 -2.1010895 4.692913 -4.692917 4.692913l0 0c-2.5918274 0 -4.692917 -2.1010895 -4.692917 -4.692913z" fill-rule="evenodd"/><path fill="#cfe2f3" d="m350.28348 216.48557l0 0c0 -2.5918274 2.1010742 -4.692917 4.6929016 -4.692917l0 0c1.2446289 0 2.4382935 0.49443054 3.31839 1.374527c0.88009644 0.88009644 1.3745117 2.0737457 1.3745117 3.31839l0 0c0 2.5918274 -2.1010742 4.692917 -4.6929016 4.692917l0 0c-2.5918274 0 -4.6929016 -2.1010895 -4.6929016 -4.692917z" fill-rule="evenodd"/><path stroke="#000000" stroke-width="2.0" stroke-linejoin="round" stroke-linecap="butt" d="m350.28348 216.48557l0 0c0 -2.5918274 2.1010742 -4.692917 4.6929016 -4.692917l0 0c1.2446289 0 2.4382935 0.49443054 3.31839 1.374527c0.88009644 0.88009644 1.3745117 2.0737457 1.3745117 3.31839l0 0c0 2.5918274 -2.1010742 4.692917 -4.6929016 4.692917l0 0c-2.5918274 0 -4.6929016 -2.1010895 -4.6929016 -4.692917z" fill-rule="evenodd"/><path fill="#000000" fill-opacity="0.0" d="m45.07349 72.3727l57.007877 0l0 77.826775l-57.007877 0z" fill-rule="evenodd"/><path fill="#000000" d="m65.49537 109.60895l-6.562504 -0.5625q1.125 -3.328125 3.921875 -5.203125q2.7968788 -1.875 7.421879 -1.875q4.796875 0 7.09375 1.9375q2.296875 1.9375 2.296875 4.71875q0 1.125 -0.203125 2.390625q-0.1875 1.265625 -1.390625 6.65625q-0.984375 4.453125 -0.984375 6.234375q0 1.59375 0.5625 3.546875l-6.53125 0q-0.40625 -1.359375 -0.5 -2.8125q-1.46875 1.640625 -3.390625 2.53125q-1.921875 0.875 -3.8750038 0.875q-3.09375 0 -5.109375 -2.03125q-2.015625 -2.03125 -2.015625 -5.21875q0 -3.5625 2.21875 -5.6875q2.21875 -2.140625 7.906254 -2.59375q4.8125 -0.390625 6.421875 -0.953125q0.421875 -1.40625 0.421875 -2.25q0 -1.078125 -0.875 -1.796875q-0.859375 -0.734375 -2.5625 -0.734375q-1.8125 0 -2.859375 0.734375q-1.03125 0.734375 -1.40625 2.09375zm6.390625 6.234375q-0.609375 0.171875 -1.609375 0.3125q-5.0625 0.609375 -6.609379 1.78125q-1.109375 0.84375 -1.109375 2.265625q0 1.171875 0.84375 1.984375q0.8437538 0.8125 2.2343788 0.8125q1.515625 0 2.859375 -0.734375q1.359375 -0.75 2.015625 -1.90625q0.671875 -1.15625 1.1875 -3.625l0.1875 -0.890625z" fill-rule="nonzero"/><path fill="#cfe2f3" d="m175.32808 22.309711l0 0c0 -6.3404026 5.139923 -11.480315 11.480316 -11.480315l0 0c3.0447693 0 5.9648285 1.2095299 8.117813 3.3625069c2.1529694 2.152976 3.362503 5.073039 3.362503 8.117808l0 0c0 6.3404026 -5.139908 11.480316 -11.480316 11.480316l0 0c-6.340393 0 -11.480316 -5.1399136 -11.480316 -11.480316z" fill-rule="evenodd"/><path stroke="#000000" stroke-width="2.0" stroke-linejoin="round" stroke-linecap="butt" d="m175.32808 22.309711l0 0c0 -6.3404026 5.139923 -11.480315 11.480316 -11.480315l0 0c3.0447693 0 5.9648285 1.2095299 8.117813 3.3625069c2.1529694 2.152976 3.362503 5.073039 3.362503 8.117808l0 0c0 6.3404026 -5.139908 11.480316 -11.480316 11.480316l0 0c-6.340393 0 -11.480316 -5.1399136 -11.480316 -11.480316z" fill-rule="evenodd"/><path fill="#cfe2f3" d="m344.11285 217.21523l0 0c0 -6.3404083 5.139923 -11.480316 11.480316 -11.480316l0 0c3.0447693 0 5.9648438 1.2095337 8.117828 3.362503c2.152954 2.1529846 3.3624878 5.073044 3.3624878 8.117813l0 0c0 6.3404083 -5.1398926 11.480316 -11.480316 11.480316l0 0c-6.340393 0 -11.480316 -5.139908 -11.480316 -11.480316z" fill-rule="evenodd"/><path stroke="#000000" stroke-width="2.0" stroke-linejoin="round" stroke-linecap="butt" d="m344.11285 217.21523l0 0c0 -6.3404083 5.139923 -11.480316 11.480316 -11.480316l0 0c3.0447693 0 5.9648438 1.2095337 8.117828 3.362503c2.152954 2.1529846 3.3624878 5.073044 3.3624878 8.117813l0 0c0 6.3404083 -5.1398926 11.480316 -11.480316 11.480316l0 0c-6.340393 0 -11.480316 -5.139908 -11.480316 -11.480316z" fill-rule="evenodd"/><path fill="#1155cc" d="m211.11285 177.21523l0 0c0 -6.3404083 5.139923 -11.480316 11.480316 -11.480316l0 0c3.0447693 0 5.9648438 1.2095337 8.117813 3.362503c2.1529846 2.1529846 3.362503 5.073044 3.362503 8.117813l0 0c0 6.3404083 -5.139908 11.480316 -11.480316 11.480316l0 0c-6.340393 0 -11.480316 -5.139908 -11.480316 -11.480316z" fill-rule="evenodd"/><path stroke="#000000" stroke-width="2.0" stroke-linejoin="round" stroke-linecap="butt" d="m211.11285 177.21523l0 0c0 -6.3404083 5.139923 -11.480316 11.480316 -11.480316l0 0c3.0447693 0 5.9648438 1.2095337 8.117813 3.362503c2.1529846 2.1529846 3.362503 5.073044 3.362503 8.117813l0 0c0 6.3404083 -5.139908 11.480316 -11.480316 11.480316l0 0c-6.340393 0 -11.480316 -5.139908 -11.480316 -11.480316z" fill-rule="evenodd"/><path fill="#000000" fill-opacity="0.0" d="m179.00525 245.71916l37.007874 -57.007874" fill-rule="evenodd"/><path stroke="#000000" stroke-width="4.0" stroke-linejoin="round" stroke-linecap="butt" d="m179.00525 245.71916l23.93988 -36.87761" fill-rule="evenodd"/><path fill="#000000" stroke="#000000" stroke-width="4.0" stroke-linecap="butt" d="m208.48677 212.43903l4.342331 -18.822998l-15.425598 11.628052z" fill-rule="evenodd"/><path fill="#000000" fill-opacity="0.0" d="m36.569553 42.0l74.01575 0l0 77.57481l-74.01575 0z" fill-rule="evenodd"/><path fill="#000000" d="m82.02268 76.54875q3.109375 3.390625 5.375 5.171875q2.28125 1.765625 4.296875 2.625l0 1.0625q-2.3125 1.125 -4.5 2.875q-2.171875 1.734375 -5.203125 5.109375l-1.796875 0q2.203125 -4.703125 4.609375 -7.234375l-37.375004 0l0 -2.375l37.375004 0q-1.78125 -2.265625 -2.484375 -3.359375q-0.703125 -1.109375 -2.078125 -3.875l1.78125 0z" fill-rule="nonzero"/><path fill="#000000" fill-opacity="0.0" d="m207.50131 248.06824l57.007874 0l0 77.82678l-57.007874 0z" fill-rule="evenodd"/><path fill="#000000" d="m218.23569 303.14825l7.171875 -34.359375l6.75 0l-2.40625 11.484375q1.84375 -1.40625 3.453125 -2.0q1.609375 -0.609375 3.5 -0.609375q3.9375 0 6.296875 2.640625q2.375 2.640625 2.375 7.671875q0 3.40625 -1.109375 6.609375q-1.109375 3.1875 -2.984375 5.203125q-1.859375 2.0 -3.90625 2.984375q-2.046875 0.96875 -4.296875 0.96875q-5.34375 0 -7.859375 -4.703125l-0.859375 4.109375l-6.125 0zm9.078125 -10.15625q0 2.515625 1.40625 4.09375q1.421875 1.5625 3.34375 1.5625q1.6875 0 3.21875 -1.21875q1.546875 -1.21875 2.5625 -3.890625q1.015625 -2.671875 1.015625 -5.390625q0 -2.65625 -1.375 -4.15625q-1.359375 -1.515625 -3.3125 -1.515625q-2.53125 0 -4.359375 2.34375q-2.5 3.203125 -2.5 8.171875z" fill-rule="nonzero"/><path fill="#000000" fill-opacity="0.0" d="m198.99738 212.69554l74.01575 0l0 77.574814l-74.01575 0z" fill-rule="evenodd"/><path fill="#000000" d="m244.4505 247.2443q3.109375 3.390625 5.375 5.171875q2.28125 1.765625 4.296875 2.625l0 1.0625q-2.3125 1.125 -4.5 2.875q-2.171875 1.734375 -5.203125 5.109375l-1.796875 0q2.203125 -4.703125 4.609375 -7.234375l-37.375 0l0 -2.375l37.375 0q-1.78125 -2.265625 -2.484375 -3.359375q-0.703125 -1.109375 -2.078125 -3.875l1.78125 0z" fill-rule="nonzero"/><path fill="#000000" fill-opacity="0.0" d="m34.0 270.0l145.00787 -22.992126" fill-rule="evenodd"/><path stroke="#000000" stroke-width="4.0" stroke-linejoin="round" stroke-linecap="butt" d="m34.0 270.0l121.303986 -19.233704" fill-rule="evenodd"/><path fill="#000000" stroke="#000000" stroke-width="4.0" stroke-linecap="butt" d="m156.33864 257.29172l16.893768 -9.368103l-18.963074 -3.682724z" fill-rule="evenodd"/><path fill="#000000" fill-opacity="0.0" d="m30.72441 344.24408l336.34647 0l0 77.82678l-336.34647 0z" fill-rule="evenodd"/><path fill="#000000" d="m59.982224 374.43347l6.375 0l-0.546875 2.546875q2.046875 -1.6875 3.828125 -2.40625q1.78125 -0.734375 3.8125 -0.734375q3.921875 0 6.296875 2.703125q2.375 2.6875 2.375 8.03125q0 6.734375 -4.09375 11.375q-3.515625 3.96875 -8.328125 3.96875q-4.9375 0 -7.46875 -4.015625l-2.703125 12.921875l-6.734375 0l7.1875 -34.390625zm4.046875 14.265625q0 2.90625 1.421875 4.515625q1.421875 1.609375 3.34375 1.609375q1.65625 0 3.203125 -1.203125q1.546875 -1.21875 2.5625 -4.015625q1.03125 -2.796875 1.03125 -5.1875q0 -2.796875 -1.34375 -4.28125q-1.328125 -1.484375 -3.390625 -1.484375q-1.921875 0 -3.515625 1.375q-1.578125 1.359375 -2.453125 4.03125q-0.859375 2.65625 -0.859375 4.640625z" fill-rule="nonzero"/><path fill="#000000" d="m121.07597 379.12097l-22.6875 0l0 -3.9375l22.6875 0l0 3.9375zm0 10.421875l-22.6875 0l0 -3.9375l22.6875 0l0 3.9375z" fill-rule="nonzero"/><path fill="#000000" d="m155.67754 394.8241q-4.484375 5.0625 -9.171875 5.0625q-2.875 0 -4.65625 -1.65625q-1.765625 -1.65625 -1.765625 -4.046875q0 -1.5625 0.796875 -5.390625l3.0 -14.359375l4.25 0l-3.328125 15.90625q-0.421875 2.0 -0.421875 3.09375q0 1.40625 0.84375 2.203125q0.859375 0.78125 2.53125 0.78125q1.78125 0 3.46875 -0.859375q1.703125 -0.875 2.9375 -2.34375q1.234375 -1.484375 2.0 -3.5q0.515625 -1.296875 1.203125 -4.53125l2.25 -10.75l4.234375 0l-5.203125 24.890625l-3.90625 0l0.9375 -4.5z" fill-rule="nonzero"/><path fill="#000000" d="m188.53691 381.48035l-6.5625 -0.5625q1.125 -3.328125 3.921875 -5.203125q2.796875 -1.875 7.421875 -1.875q4.796875 0 7.09375 1.9375q2.296875 1.9375 2.296875 4.71875q0 1.125 -0.203125 2.390625q-0.1875 1.265625 -1.390625 6.65625q-0.984375 4.453125 -0.984375 6.234375q0 1.59375 0.5625 3.546875l-6.53125 0q-0.40625 -1.359375 -0.5 -2.8125q-1.46875 1.640625 -3.390625 2.53125q-1.921875 0.875 -3.875 0.875q-3.09375 0 -5.109375 -2.03125q-2.015625 -2.03125 -2.015625 -5.21875q0 -3.5625 2.21875 -5.6875q2.21875 -2.140625 7.90625 -2.59375q4.8125 -0.390625 6.421875 -0.953125q0.421875 -1.40625 0.421875 -2.25q0 -1.078125 -0.875 -1.796875q-0.859375 -0.734375 -2.5625 -0.734375q-1.8125 0 -2.859375 0.734375q-1.03125 0.734375 -1.40625 2.09375zm6.390625 6.234375q-0.609375 0.171875 -1.609375 0.3125q-5.0625 0.609375 -6.609375 1.78125q-1.109375 0.84375 -1.109375 2.265625q0 1.171875 0.84375 1.984375q0.84375 0.8125 2.234375 0.8125q1.515625 0 2.859375 -0.734375q1.359375 -0.75 2.015625 -1.90625q0.671875 -1.15625 1.1875 -3.625l0.1875 -0.890625zm35.09375 6.65625l0 -8.921875l-9.0 0l0 -6.171875l9.0 0l0 -8.921875l6.0 0l0 8.921875l9.015625 0l0 6.171875l-9.015625 0l0 8.921875l-6.0 0z" fill-rule="nonzero"/><path fill="#000000" d="m266.38846 399.3241l-4.078125 -24.890625l4.125 0l2.140625 13.703125q0.34375 2.25 0.859375 7.34375q1.21875 -2.65625 3.125 -6.078125l8.3125 -14.96875l4.484375 0l-14.25 24.890625l-4.71875 0z" fill-rule="nonzero"/><path fill="#000000" d="m297.58377 399.3241l7.171875 -34.359375l6.75 0l-2.40625 11.484375q1.84375 -1.40625 3.453125 -2.0q1.609375 -0.609375 3.5 -0.609375q3.9375 0 6.296875 2.640625q2.375 2.640625 2.375 7.671875q0 3.40625 -1.109375 6.609375q-1.109375 3.1875 -2.984375 5.203125q-1.859375 2.0 -3.90625 2.984375q-2.046875 0.96875 -4.296875 0.96875q-5.34375 0 -7.859375 -4.703125l-0.859375 4.109375l-6.125 0zm9.078125 -10.15625q0 2.515625 1.40625 4.09375q1.421875 1.5625 3.34375 1.5625q1.6875 0 3.21875 -1.21875q1.546875 -1.21875 2.5625 -3.890625q1.015625 -2.671875 1.015625 -5.390625q0 -2.65625 -1.375 -4.15625q-1.359375 -1.515625 -3.3125 -1.515625q-2.53125 0 -4.359375 2.34375q-2.5 3.203125 -2.5 8.171875z" fill-rule="nonzero"/><path fill="#000000" fill-opacity="0.0" d="m97.00525 151.17323l57.007874 0l0 77.82677l-57.007874 0z" fill-rule="evenodd"/><path fill="#4a86e8" d="m112.927124 181.3626l6.375 0l-0.546875 2.546875q2.046875 -1.6875 3.828125 -2.40625q1.78125 -0.734375 3.8125 -0.734375q3.921875 0 6.296875 2.703125q2.375 2.6875 2.375 8.03125q0 6.734375 -4.09375 11.375q-3.515625 3.96875 -8.328125 3.96875q-4.9375 0 -7.46875 -4.015625l-2.703125 12.92189l-6.734375 0l7.1875 -34.39064zm4.046875 14.265625q0 2.90625 1.421875 4.515625q1.421875 1.609375 3.34375 1.609375q1.65625 0 3.203125 -1.203125q1.546875 -1.21875 2.5625 -4.015625q1.03125 -2.796875 1.03125 -5.1875q0 -2.796875 -1.34375 -4.28125q-1.328125 -1.484375 -3.390625 -1.484375q-1.921875 0 -3.515625 1.375q-1.578125 1.359375 -2.453125 4.03125q-0.859375 2.65625 -0.859375 4.640625z" fill-rule="nonzero"/><path fill="#000000" fill-opacity="0.0" d="m88.50131 120.80052l74.01575 0l0 77.574814l-74.01575 0z" fill-rule="evenodd"/><path fill="#4a86e8" d="m133.95444 155.34927q3.109375 3.390625 5.375 5.171875q2.28125 1.765625 4.296875 2.625l0 1.0625q-2.3125 1.125 -4.5 2.875q-2.171875 1.734375 -5.203125 5.109375l-1.796875 0q2.203125 -4.703125 4.609375 -7.234375l-37.375 0l0 -2.375l37.375 0q-1.78125 -2.265625 -2.484375 -3.359375q-0.703125 -1.109375 -2.078125 -3.875l1.78125 0z" fill-rule="nonzero"/><path fill="#000000" fill-opacity="0.0" d="m158.5853 94.173225l123.49606 0l0 77.826775l-123.49606 0z" fill-rule="evenodd"/><path fill="#4a86e8" d="m178.81967 159.36261q-3.5 -4.4062653 -5.921875 -10.312515q-2.40625 -5.921875 -2.40625 -12.25q0 -5.578125 1.8125 -10.687492q2.109375 -5.921875 6.515625 -11.8125l3.015625 0q-2.828125 4.875 -3.75 6.96875q-1.421875 3.234375 -2.25 6.7499924q-1.0 4.375 -1.0 8.8125q0 11.265625 7.0 22.531265l-3.015625 0z" fill-rule="nonzero"/><path fill="#4a86e8" d="m202.16342 144.75322q-4.484375 5.0625 -9.171875 5.0625q-2.875 0 -4.65625 -1.65625q-1.765625 -1.65625 -1.765625 -4.046875q0 -1.5625 0.796875 -5.390625l3.0 -14.359367l4.25 0l-3.328125 15.906242q-0.421875 2.0 -0.421875 3.09375q0 1.40625 0.84375 2.203125q0.859375 0.78125 2.53125 0.78125q1.78125 0 3.46875 -0.859375q1.703125 -0.875 2.9375 -2.34375q1.234375 -1.484375 2.0 -3.5q0.515625 -1.296875 1.203125 -4.53125l2.25 -10.749992l4.234375 0l-5.203125 24.890617l-3.90625 0l0.9375 -4.5z" fill-rule="nonzero"/><path fill="#4a86e8" d="m214.53061 149.25322l0 -4.8125l4.8125 0l0 4.8125q0 2.65625 -0.9375 4.28125q-0.9375 1.625 -2.984375 2.515625l-1.171875 -1.796875q1.34375 -0.59375 1.96875 -1.734375q0.640625 -1.125 0.703125 -3.265625l-2.390625 0z" fill-rule="nonzero"/><path fill="#4a86e8" d="m231.47592 149.25322l-4.078125 -24.890617l4.125 0l2.140625 13.703117q0.34375 2.25 0.859375 7.34375q1.21875 -2.65625 3.125 -6.078125l8.3125 -14.968742l4.484375 0l-14.25 24.890617l-4.71875 0z" fill-rule="nonzero"/><path fill="#4a86e8" d="m253.53842 159.36261l-3.03125 0q7.015625 -11.26564 7.015625 -22.531265q0 -4.40625 -1.015625 -8.75q-0.796875 -3.5156174 -2.21875 -6.7499924q-0.921875 -2.109375 -3.78125 -7.03125l3.03125 0q4.40625 5.890625 6.515625 11.8125q1.796875 5.1093674 1.796875 10.687492q0 6.328125 -2.421875 12.25q-2.421875 5.90625 -5.890625 10.312515z" fill-rule="nonzero"/><path fill="#000000" fill-opacity="0.0" d="m36.569553 312.24408l74.01575 0l0 77.57483l-74.01575 0z" fill-rule="evenodd"/><path fill="#000000" d="m82.02268 346.79285q3.109375 3.390625 5.375 5.171875q2.28125 1.765625 4.296875 2.625l0 1.0625q-2.3125 1.125 -4.5 2.875q-2.171875 1.734375 -5.203125 5.109375l-1.796875 0q2.203125 -4.703125 4.609375 -7.234375l-37.375004 0l0 -2.375l37.375004 0q-1.78125 -2.265625 -2.484375 -3.359375q-0.703125 -1.109375 -2.078125 -3.875l1.78125 0z" fill-rule="nonzero"/><path fill="#000000" fill-opacity="0.0" d="m164.56955 312.24408l74.01575 0l0 77.57483l-74.01575 0z" fill-rule="evenodd"/><path fill="#000000" d="m210.02267 346.79285q3.109375 3.390625 5.375 5.171875q2.28125 1.765625 4.296875 2.625l0 1.0625q-2.3125 1.125 -4.5 2.875q-2.171875 1.734375 -5.203125 5.109375l-1.796875 0q2.203125 -4.703125 4.609375 -7.234375l-37.375 0l0 -2.375l37.375 0q-1.78125 -2.265625 -2.484375 -3.359375q-0.703125 -1.109375 -2.078125 -3.875l1.78125 0z" fill-rule="nonzero"/><path fill="#000000" fill-opacity="0.0" d="m284.56955 312.24408l74.01575 0l0 77.57483l-74.01575 0z" fill-rule="evenodd"/><path fill="#000000" d="m330.02267 346.79285q3.109375 3.390625 5.375 5.171875q2.28125 1.765625 4.296875 2.625l0 1.0625q-2.3125 1.125 -4.5 2.875q-2.171875 1.734375 -5.203125 5.109375l-1.796875 0q2.203125 -4.703125 4.609375 -7.234375l-37.375 0l0 -2.375l37.375 0q-1.78125 -2.265625 -2.484375 -3.359375q-0.703125 -1.109375 -2.078125 -3.875l1.78125 0z" fill-rule="nonzero"/></g></svg>