<?xml version="1.0" encoding="utf-8" standalone="no"?>
<!DOCTYPE svg PUBLIC "-//W3C//DTD SVG 1.1//EN"
  "http://www.w3.org/Graphics/SVG/1.1/DTD/svg11.dtd">
<svg xmlns:xlink="http://www.w3.org/1999/xlink" width="1152pt" height="432pt" viewBox="0 0 1152 432" xmlns="http://www.w3.org/2000/svg" version="1.1">
 <metadata>
  <rdf:RDF xmlns:dc="http://purl.org/dc/elements/1.1/" xmlns:cc="http://creativecommons.org/ns#" xmlns:rdf="http://www.w3.org/1999/02/22-rdf-syntax-ns#">
   <cc:Work>
    <dc:type rdf:resource="http://purl.org/dc/dcmitype/StillImage"/>
    <dc:date>2025-11-26T13:36:12.605243</dc:date>
    <dc:format>image/svg+xml</dc:format>
    <dc:creator>
     <cc:Agent>
      <dc:title>Matplotlib v3.7.0, https://matplotlib.org/</dc:title>
     </cc:Agent>
    </dc:creator>
   </cc:Work>
  </rdf:RDF>
 </metadata>
 <defs>
  <style type="text/css">*{stroke-linejoin: round; stroke-linecap: butt}</style>
 </defs>
 <g id="figure_1">
  <g id="patch_1">
   <path d="M 0 432 
L 1152 432 
L 1152 0 
L 0 0 
L 0 432 
z
" style="fill: none"/>
  </g>
  <g id="axes_1">
   <g id="patch_2">
    <path d="M 94.44 356.96 
L 553.375407 356.96 
L 553.375407 25.44 
L 94.44 25.44 
z
" style="fill: #ffffff"/>
   </g>
   <g id="PathCollection_1">
    <defs>
     <path id="m6c0e3f6e9f" d="M 0 4.5 
C 1.193414 4.5 2.338109 4.025852 3.181981 3.181981 
C 4.025852 2.338109 4.5 1.193414 4.5 0 
C 4.5 -1.193414 4.025852 -2.338109 3.181981 -3.181981 
C 2.338109 -4.025852 1.193414 -4.5 0 -4.5 
C -1.193414 -4.5 -2.338109 -4.025852 -3.181981 -3.181981 
C -4.025852 -2.338109 -4.5 -1.193414 -4.5 0 
C -4.5 1.193414 -4.025852 2.338109 -3.181981 3.181981 
C -2.338109 4.025852 -1.193414 4.5 0 4.5 
z
" style="stroke: #0000ff; stroke-opacity: 0.8; stroke-width: 1.5"/>
    </defs>
    <g clip-path="url(#p8f2ddeca53)">
     <use xlink:href="#m6c0e3f6e9f" x="118.944491" y="290.755456" style="fill: #0000ff; fill-opacity: 0.8; stroke: #0000ff; stroke-opacity: 0.8; stroke-width: 1.5"/>
     <use xlink:href="#m6c0e3f6e9f" x="164.491871" y="320.695027" style="fill: #0000ff; fill-opacity: 0.8; stroke: #0000ff; stroke-opacity: 0.8; stroke-width: 1.5"/>
     <use xlink:href="#m6c0e3f6e9f" x="210.039252" y="337.521789" style="fill: #0000ff; fill-opacity: 0.8; stroke: #0000ff; stroke-opacity: 0.8; stroke-width: 1.5"/>
     <use xlink:href="#m6c0e3f6e9f" x="255.586633" y="342.635153" style="fill: #0000ff; fill-opacity: 0.8; stroke: #0000ff; stroke-opacity: 0.8; stroke-width: 1.5"/>
     <use xlink:href="#m6c0e3f6e9f" x="301.134013" y="337.628008" style="fill: #0000ff; fill-opacity: 0.8; stroke: #0000ff; stroke-opacity: 0.8; stroke-width: 1.5"/>
     <use xlink:href="#m6c0e3f6e9f" x="346.681394" y="319.503876" style="fill: #0000ff; fill-opacity: 0.8; stroke: #0000ff; stroke-opacity: 0.8; stroke-width: 1.5"/>
     <use xlink:href="#m6c0e3f6e9f" x="392.228775" y="284.208931" style="fill: #0000ff; fill-opacity: 0.8; stroke: #0000ff; stroke-opacity: 0.8; stroke-width: 1.5"/>
     <use xlink:href="#m6c0e3f6e9f" x="437.776155" y="241.872832" style="fill: #0000ff; fill-opacity: 0.8; stroke: #0000ff; stroke-opacity: 0.8; stroke-width: 1.5"/>
     <use xlink:href="#m6c0e3f6e9f" x="483.323536" y="187.067272" style="fill: #0000ff; fill-opacity: 0.8; stroke: #0000ff; stroke-opacity: 0.8; stroke-width: 1.5"/>
     <use xlink:href="#m6c0e3f6e9f" x="528.870916" y="116.120334" style="fill: #0000ff; fill-opacity: 0.8; stroke: #0000ff; stroke-opacity: 0.8; stroke-width: 1.5"/>
    </g>
   </g>
   <g id="PathCollection_2">
    <defs>
     <path id="m09d296be9f" d="M 0 4.5 
C 1.193414 4.5 2.338109 4.025852 3.181981 3.181981 
C 4.025852 2.338109 4.5 1.193414 4.5 0 
C 4.5 -1.193414 4.025852 -2.338109 3.181981 -3.181981 
C 2.338109 -4.025852 1.193414 -4.5 0 -4.5 
C -1.193414 -4.5 -2.338109 -4.025852 -3.181981 -3.181981 
C -4.025852 -2.338109 -4.5 -1.193414 -4.5 0 
C -4.5 1.193414 -4.025852 2.338109 -3.181981 3.181981 
C -2.338109 4.025852 -1.193414 4.5 0 4.5 
z
" style="stroke: #ff0000; stroke-opacity: 0.8; stroke-width: 1.5"/>
    </defs>
    <g clip-path="url(#p8f2ddeca53)">
     <use xlink:href="#m09d296be9f" x="118.944491" y="299.573888" style="fill: #ff0000; fill-opacity: 0.8; stroke: #ff0000; stroke-opacity: 0.8; stroke-width: 1.5"/>
     <use xlink:href="#m09d296be9f" x="164.491871" y="324.974652" style="fill: #ff0000; fill-opacity: 0.8; stroke: #ff0000; stroke-opacity: 0.8; stroke-width: 1.5"/>
     <use xlink:href="#m09d296be9f" x="210.039252" y="340.324194" style="fill: #ff0000; fill-opacity: 0.8; stroke: #ff0000; stroke-opacity: 0.8; stroke-width: 1.5"/>
     <use xlink:href="#m09d296be9f" x="255.586633" y="344.054158" style="fill: #ff0000; fill-opacity: 0.8; stroke: #ff0000; stroke-opacity: 0.8; stroke-width: 1.5"/>
     <use xlink:href="#m09d296be9f" x="301.134013" y="337.092338" style="fill: #ff0000; fill-opacity: 0.8; stroke: #ff0000; stroke-opacity: 0.8; stroke-width: 1.5"/>
     <use xlink:href="#m09d296be9f" x="346.681394" y="319.927558" style="fill: #ff0000; fill-opacity: 0.8; stroke: #ff0000; stroke-opacity: 0.8; stroke-width: 1.5"/>
     <use xlink:href="#m09d296be9f" x="392.228775" y="288.663233" style="fill: #ff0000; fill-opacity: 0.8; stroke: #ff0000; stroke-opacity: 0.8; stroke-width: 1.5"/>
     <use xlink:href="#m09d296be9f" x="437.776155" y="245.642877" style="fill: #ff0000; fill-opacity: 0.8; stroke: #ff0000; stroke-opacity: 0.8; stroke-width: 1.5"/>
     <use xlink:href="#m09d296be9f" x="483.323536" y="191.691644" style="fill: #ff0000; fill-opacity: 0.8; stroke: #ff0000; stroke-opacity: 0.8; stroke-width: 1.5"/>
     <use xlink:href="#m09d296be9f" x="528.870916" y="127.959908" style="fill: #ff0000; fill-opacity: 0.8; stroke: #ff0000; stroke-opacity: 0.8; stroke-width: 1.5"/>
    </g>
   </g>
   <g id="matplotlib.axis_1">
    <g id="xtick_1">
     <g id="line2d_1">
      <defs>
       <path id="m79e8e772f0" d="M 0 0 
L 0 9 
" style="stroke: #000000; stroke-width: 1.875"/>
      </defs>
      <g>
       <use xlink:href="#m79e8e772f0" x="118.944491" y="356.96" style="stroke: #000000; stroke-width: 1.875"/>
      </g>
     </g>
     <g id="text_1">
      <!-- -0.06 -->
      <g transform="translate(100.142225 381.270391) scale(0.165 -0.165)">
       <defs>
        <path id="ArialMT-2d" d="M 203 1375 
L 203 1941 
L 1931 1941 
L 1931 1375 
L 203 1375 
z
" transform="scale(0.015625)"/>
        <path id="ArialMT-30" d="M 266 2259 
Q 266 3072 433 3567 
Q 600 4063 929 4331 
Q 1259 4600 1759 4600 
Q 2128 4600 2406 4451 
Q 2684 4303 2865 4023 
Q 3047 3744 3150 3342 
Q 3253 2941 3253 2259 
Q 3253 1453 3087 958 
Q 2922 463 2592 192 
Q 2263 -78 1759 -78 
Q 1097 -78 719 397 
Q 266 969 266 2259 
z
M 844 2259 
Q 844 1131 1108 757 
Q 1372 384 1759 384 
Q 2147 384 2411 759 
Q 2675 1134 2675 2259 
Q 2675 3391 2411 3762 
Q 2147 4134 1753 4134 
Q 1366 4134 1134 3806 
Q 844 3388 844 2259 
z
" transform="scale(0.015625)"/>
        <path id="ArialMT-2e" d="M 581 0 
L 581 641 
L 1222 641 
L 1222 0 
L 581 0 
z
" transform="scale(0.015625)"/>
        <path id="ArialMT-36" d="M 3184 3459 
L 2625 3416 
Q 2550 3747 2413 3897 
Q 2184 4138 1850 4138 
Q 1581 4138 1378 3988 
Q 1113 3794 959 3422 
Q 806 3050 800 2363 
Q 1003 2672 1297 2822 
Q 1591 2972 1913 2972 
Q 2475 2972 2870 2558 
Q 3266 2144 3266 1488 
Q 3266 1056 3080 686 
Q 2894 316 2569 119 
Q 2244 -78 1831 -78 
Q 1128 -78 684 439 
Q 241 956 241 2144 
Q 241 3472 731 4075 
Q 1159 4600 1884 4600 
Q 2425 4600 2770 4297 
Q 3116 3994 3184 3459 
z
M 888 1484 
Q 888 1194 1011 928 
Q 1134 663 1356 523 
Q 1578 384 1822 384 
Q 2178 384 2434 671 
Q 2691 959 2691 1453 
Q 2691 1928 2437 2201 
Q 2184 2475 1800 2475 
Q 1419 2475 1153 2201 
Q 888 1928 888 1484 
z
" transform="scale(0.015625)"/>
       </defs>
       <use xlink:href="#ArialMT-2d"/>
       <use xlink:href="#ArialMT-30" x="33.300781"/>
       <use xlink:href="#ArialMT-2e" x="88.916016"/>
       <use xlink:href="#ArialMT-30" x="116.699219"/>
       <use xlink:href="#ArialMT-36" x="172.314453"/>
      </g>
     </g>
    </g>
    <g id="xtick_2">
     <g id="line2d_2">
      <g>
       <use xlink:href="#m79e8e772f0" x="210.039252" y="356.96" style="stroke: #000000; stroke-width: 1.875"/>
      </g>
     </g>
     <g id="text_2">
      <!-- -0.04 -->
      <g transform="translate(191.236986 381.270391) scale(0.165 -0.165)">
       <defs>
        <path id="ArialMT-34" d="M 2069 0 
L 2069 1097 
L 81 1097 
L 81 1613 
L 2172 4581 
L 2631 4581 
L 2631 1613 
L 3250 1613 
L 3250 1097 
L 2631 1097 
L 2631 0 
L 2069 0 
z
M 2069 1613 
L 2069 3678 
L 634 1613 
L 2069 1613 
z
" transform="scale(0.015625)"/>
       </defs>
       <use xlink:href="#ArialMT-2d"/>
       <use xlink:href="#ArialMT-30" x="33.300781"/>
       <use xlink:href="#ArialMT-2e" x="88.916016"/>
       <use xlink:href="#ArialMT-30" x="116.699219"/>
       <use xlink:href="#ArialMT-34" x="172.314453"/>
      </g>
     </g>
    </g>
    <g id="xtick_3">
     <g id="line2d_3">
      <g>
       <use xlink:href="#m79e8e772f0" x="301.134013" y="356.96" style="stroke: #000000; stroke-width: 1.875"/>
      </g>
     </g>
     <g id="text_3">
      <!-- -0.02 -->
      <g transform="translate(282.331748 381.270391) scale(0.165 -0.165)">
       <defs>
        <path id="ArialMT-32" d="M 3222 541 
L 3222 0 
L 194 0 
Q 188 203 259 391 
Q 375 700 629 1000 
Q 884 1300 1366 1694 
Q 2113 2306 2375 2664 
Q 2638 3022 2638 3341 
Q 2638 3675 2398 3904 
Q 2159 4134 1775 4134 
Q 1369 4134 1125 3890 
Q 881 3647 878 3216 
L 300 3275 
Q 359 3922 746 4261 
Q 1134 4600 1788 4600 
Q 2447 4600 2831 4234 
Q 3216 3869 3216 3328 
Q 3216 3053 3103 2787 
Q 2991 2522 2730 2228 
Q 2469 1934 1863 1422 
Q 1356 997 1212 845 
Q 1069 694 975 541 
L 3222 541 
z
" transform="scale(0.015625)"/>
       </defs>
       <use xlink:href="#ArialMT-2d"/>
       <use xlink:href="#ArialMT-30" x="33.300781"/>
       <use xlink:href="#ArialMT-2e" x="88.916016"/>
       <use xlink:href="#ArialMT-30" x="116.699219"/>
       <use xlink:href="#ArialMT-32" x="172.314453"/>
      </g>
     </g>
    </g>
    <g id="xtick_4">
     <g id="line2d_4">
      <g>
       <use xlink:href="#m79e8e772f0" x="392.228775" y="356.96" style="stroke: #000000; stroke-width: 1.875"/>
      </g>
     </g>
     <g id="text_4">
      <!-- 0.00 -->
      <g transform="translate(376.173501 381.270391) scale(0.165 -0.165)">
       <use xlink:href="#ArialMT-30"/>
       <use xlink:href="#ArialMT-2e" x="55.615234"/>
       <use xlink:href="#ArialMT-30" x="83.398438"/>
       <use xlink:href="#ArialMT-30" x="139.013672"/>
      </g>
     </g>
    </g>
    <g id="xtick_5">
     <g id="line2d_5">
      <g>
       <use xlink:href="#m79e8e772f0" x="483.323536" y="356.96" style="stroke: #000000; stroke-width: 1.875"/>
      </g>
     </g>
     <g id="text_5">
      <!-- 0.02 -->
      <g transform="translate(467.268262 381.270391) scale(0.165 -0.165)">
       <use xlink:href="#ArialMT-30"/>
       <use xlink:href="#ArialMT-2e" x="55.615234"/>
       <use xlink:href="#ArialMT-30" x="83.398438"/>
       <use xlink:href="#ArialMT-32" x="139.013672"/>
      </g>
     </g>
    </g>
    <g id="text_6">
     <!-- Spontaneous Curvature at Attachment (nm$^{-1}$) -->
     <g transform="translate(140.127704 404.749766) scale(0.18 -0.18)">
      <defs>
       <path id="ArialMT-53" d="M 288 1472 
L 859 1522 
Q 900 1178 1048 958 
Q 1197 738 1509 602 
Q 1822 466 2213 466 
Q 2559 466 2825 569 
Q 3091 672 3220 851 
Q 3350 1031 3350 1244 
Q 3350 1459 3225 1620 
Q 3100 1781 2813 1891 
Q 2628 1963 1997 2114 
Q 1366 2266 1113 2400 
Q 784 2572 623 2826 
Q 463 3081 463 3397 
Q 463 3744 659 4045 
Q 856 4347 1234 4503 
Q 1613 4659 2075 4659 
Q 2584 4659 2973 4495 
Q 3363 4331 3572 4012 
Q 3781 3694 3797 3291 
L 3216 3247 
Q 3169 3681 2898 3903 
Q 2628 4125 2100 4125 
Q 1550 4125 1298 3923 
Q 1047 3722 1047 3438 
Q 1047 3191 1225 3031 
Q 1400 2872 2139 2705 
Q 2878 2538 3153 2413 
Q 3553 2228 3743 1945 
Q 3934 1663 3934 1294 
Q 3934 928 3725 604 
Q 3516 281 3123 101 
Q 2731 -78 2241 -78 
Q 1619 -78 1198 103 
Q 778 284 539 648 
Q 300 1013 288 1472 
z
" transform="scale(0.015625)"/>
       <path id="ArialMT-70" d="M 422 -1272 
L 422 3319 
L 934 3319 
L 934 2888 
Q 1116 3141 1344 3267 
Q 1572 3394 1897 3394 
Q 2322 3394 2647 3175 
Q 2972 2956 3137 2557 
Q 3303 2159 3303 1684 
Q 3303 1175 3120 767 
Q 2938 359 2589 142 
Q 2241 -75 1856 -75 
Q 1575 -75 1351 44 
Q 1128 163 984 344 
L 984 -1272 
L 422 -1272 
z
M 931 1641 
Q 931 1000 1190 694 
Q 1450 388 1819 388 
Q 2194 388 2461 705 
Q 2728 1022 2728 1688 
Q 2728 2322 2467 2637 
Q 2206 2953 1844 2953 
Q 1484 2953 1207 2617 
Q 931 2281 931 1641 
z
" transform="scale(0.015625)"/>
       <path id="ArialMT-6f" d="M 213 1659 
Q 213 2581 725 3025 
Q 1153 3394 1769 3394 
Q 2453 3394 2887 2945 
Q 3322 2497 3322 1706 
Q 3322 1066 3130 698 
Q 2938 331 2570 128 
Q 2203 -75 1769 -75 
Q 1072 -75 642 372 
Q 213 819 213 1659 
z
M 791 1659 
Q 791 1022 1069 705 
Q 1347 388 1769 388 
Q 2188 388 2466 706 
Q 2744 1025 2744 1678 
Q 2744 2294 2464 2611 
Q 2184 2928 1769 2928 
Q 1347 2928 1069 2612 
Q 791 2297 791 1659 
z
" transform="scale(0.015625)"/>
       <path id="ArialMT-6e" d="M 422 0 
L 422 3319 
L 928 3319 
L 928 2847 
Q 1294 3394 1984 3394 
Q 2284 3394 2536 3286 
Q 2788 3178 2913 3003 
Q 3038 2828 3088 2588 
Q 3119 2431 3119 2041 
L 3119 0 
L 2556 0 
L 2556 2019 
Q 2556 2363 2490 2533 
Q 2425 2703 2258 2804 
Q 2091 2906 1866 2906 
Q 1506 2906 1245 2678 
Q 984 2450 984 1813 
L 984 0 
L 422 0 
z
" transform="scale(0.015625)"/>
       <path id="ArialMT-74" d="M 1650 503 
L 1731 6 
Q 1494 -44 1306 -44 
Q 1000 -44 831 53 
Q 663 150 594 308 
Q 525 466 525 972 
L 525 2881 
L 113 2881 
L 113 3319 
L 525 3319 
L 525 4141 
L 1084 4478 
L 1084 3319 
L 1650 3319 
L 1650 2881 
L 1084 2881 
L 1084 941 
Q 1084 700 1114 631 
Q 1144 563 1211 522 
Q 1278 481 1403 481 
Q 1497 481 1650 503 
z
" transform="scale(0.015625)"/>
       <path id="ArialMT-61" d="M 2588 409 
Q 2275 144 1986 34 
Q 1697 -75 1366 -75 
Q 819 -75 525 192 
Q 231 459 231 875 
Q 231 1119 342 1320 
Q 453 1522 633 1644 
Q 813 1766 1038 1828 
Q 1203 1872 1538 1913 
Q 2219 1994 2541 2106 
Q 2544 2222 2544 2253 
Q 2544 2597 2384 2738 
Q 2169 2928 1744 2928 
Q 1347 2928 1158 2789 
Q 969 2650 878 2297 
L 328 2372 
Q 403 2725 575 2942 
Q 747 3159 1072 3276 
Q 1397 3394 1825 3394 
Q 2250 3394 2515 3294 
Q 2781 3194 2906 3042 
Q 3031 2891 3081 2659 
Q 3109 2516 3109 2141 
L 3109 1391 
Q 3109 606 3145 398 
Q 3181 191 3288 0 
L 2700 0 
Q 2613 175 2588 409 
z
M 2541 1666 
Q 2234 1541 1622 1453 
Q 1275 1403 1131 1340 
Q 988 1278 909 1158 
Q 831 1038 831 891 
Q 831 666 1001 516 
Q 1172 366 1500 366 
Q 1825 366 2078 508 
Q 2331 650 2450 897 
Q 2541 1088 2541 1459 
L 2541 1666 
z
" transform="scale(0.015625)"/>
       <path id="ArialMT-65" d="M 2694 1069 
L 3275 997 
Q 3138 488 2766 206 
Q 2394 -75 1816 -75 
Q 1088 -75 661 373 
Q 234 822 234 1631 
Q 234 2469 665 2931 
Q 1097 3394 1784 3394 
Q 2450 3394 2872 2941 
Q 3294 2488 3294 1666 
Q 3294 1616 3291 1516 
L 816 1516 
Q 847 969 1125 678 
Q 1403 388 1819 388 
Q 2128 388 2347 550 
Q 2566 713 2694 1069 
z
M 847 1978 
L 2700 1978 
Q 2663 2397 2488 2606 
Q 2219 2931 1791 2931 
Q 1403 2931 1139 2672 
Q 875 2413 847 1978 
z
" transform="scale(0.015625)"/>
       <path id="ArialMT-75" d="M 2597 0 
L 2597 488 
Q 2209 -75 1544 -75 
Q 1250 -75 995 37 
Q 741 150 617 320 
Q 494 491 444 738 
Q 409 903 409 1263 
L 409 3319 
L 972 3319 
L 972 1478 
Q 972 1038 1006 884 
Q 1059 663 1231 536 
Q 1403 409 1656 409 
Q 1909 409 2131 539 
Q 2353 669 2445 892 
Q 2538 1116 2538 1541 
L 2538 3319 
L 3100 3319 
L 3100 0 
L 2597 0 
z
" transform="scale(0.015625)"/>
       <path id="ArialMT-73" d="M 197 991 
L 753 1078 
Q 800 744 1014 566 
Q 1228 388 1613 388 
Q 2000 388 2187 545 
Q 2375 703 2375 916 
Q 2375 1106 2209 1216 
Q 2094 1291 1634 1406 
Q 1016 1563 777 1677 
Q 538 1791 414 1992 
Q 291 2194 291 2438 
Q 291 2659 392 2848 
Q 494 3038 669 3163 
Q 800 3259 1026 3326 
Q 1253 3394 1513 3394 
Q 1903 3394 2198 3281 
Q 2494 3169 2634 2976 
Q 2775 2784 2828 2463 
L 2278 2388 
Q 2241 2644 2061 2787 
Q 1881 2931 1553 2931 
Q 1166 2931 1000 2803 
Q 834 2675 834 2503 
Q 834 2394 903 2306 
Q 972 2216 1119 2156 
Q 1203 2125 1616 2013 
Q 2213 1853 2448 1751 
Q 2684 1650 2818 1456 
Q 2953 1263 2953 975 
Q 2953 694 2789 445 
Q 2625 197 2315 61 
Q 2006 -75 1616 -75 
Q 969 -75 630 194 
Q 291 463 197 991 
z
" transform="scale(0.015625)"/>
       <path id="ArialMT-20" transform="scale(0.015625)"/>
       <path id="ArialMT-43" d="M 3763 1606 
L 4369 1453 
Q 4178 706 3683 314 
Q 3188 -78 2472 -78 
Q 1731 -78 1267 223 
Q 803 525 561 1097 
Q 319 1669 319 2325 
Q 319 3041 592 3573 
Q 866 4106 1370 4382 
Q 1875 4659 2481 4659 
Q 3169 4659 3637 4309 
Q 4106 3959 4291 3325 
L 3694 3184 
Q 3534 3684 3231 3912 
Q 2928 4141 2469 4141 
Q 1941 4141 1586 3887 
Q 1231 3634 1087 3207 
Q 944 2781 944 2328 
Q 944 1744 1114 1308 
Q 1284 872 1643 656 
Q 2003 441 2422 441 
Q 2931 441 3284 734 
Q 3638 1028 3763 1606 
z
" transform="scale(0.015625)"/>
       <path id="ArialMT-72" d="M 416 0 
L 416 3319 
L 922 3319 
L 922 2816 
Q 1116 3169 1280 3281 
Q 1444 3394 1641 3394 
Q 1925 3394 2219 3213 
L 2025 2691 
Q 1819 2813 1613 2813 
Q 1428 2813 1281 2702 
Q 1134 2591 1072 2394 
Q 978 2094 978 1738 
L 978 0 
L 416 0 
z
" transform="scale(0.015625)"/>
       <path id="ArialMT-76" d="M 1344 0 
L 81 3319 
L 675 3319 
L 1388 1331 
Q 1503 1009 1600 663 
Q 1675 925 1809 1294 
L 2547 3319 
L 3125 3319 
L 1869 0 
L 1344 0 
z
" transform="scale(0.015625)"/>
       <path id="ArialMT-41" d="M -9 0 
L 1750 4581 
L 2403 4581 
L 4278 0 
L 3588 0 
L 3053 1388 
L 1138 1388 
L 634 0 
L -9 0 
z
M 1313 1881 
L 2866 1881 
L 2388 3150 
Q 2169 3728 2063 4100 
Q 1975 3659 1816 3225 
L 1313 1881 
z
" transform="scale(0.015625)"/>
       <path id="ArialMT-63" d="M 2588 1216 
L 3141 1144 
Q 3050 572 2676 248 
Q 2303 -75 1759 -75 
Q 1078 -75 664 370 
Q 250 816 250 1647 
Q 250 2184 428 2587 
Q 606 2991 970 3192 
Q 1334 3394 1763 3394 
Q 2303 3394 2647 3120 
Q 2991 2847 3088 2344 
L 2541 2259 
Q 2463 2594 2264 2762 
Q 2066 2931 1784 2931 
Q 1359 2931 1093 2626 
Q 828 2322 828 1663 
Q 828 994 1084 691 
Q 1341 388 1753 388 
Q 2084 388 2306 591 
Q 2528 794 2588 1216 
z
" transform="scale(0.015625)"/>
       <path id="ArialMT-68" d="M 422 0 
L 422 4581 
L 984 4581 
L 984 2938 
Q 1378 3394 1978 3394 
Q 2347 3394 2619 3248 
Q 2891 3103 3008 2847 
Q 3125 2591 3125 2103 
L 3125 0 
L 2563 0 
L 2563 2103 
Q 2563 2525 2380 2717 
Q 2197 2909 1863 2909 
Q 1613 2909 1392 2779 
Q 1172 2650 1078 2428 
Q 984 2206 984 1816 
L 984 0 
L 422 0 
z
" transform="scale(0.015625)"/>
       <path id="ArialMT-6d" d="M 422 0 
L 422 3319 
L 925 3319 
L 925 2853 
Q 1081 3097 1340 3245 
Q 1600 3394 1931 3394 
Q 2300 3394 2536 3241 
Q 2772 3088 2869 2813 
Q 3263 3394 3894 3394 
Q 4388 3394 4653 3120 
Q 4919 2847 4919 2278 
L 4919 0 
L 4359 0 
L 4359 2091 
Q 4359 2428 4304 2576 
Q 4250 2725 4106 2815 
Q 3963 2906 3769 2906 
Q 3419 2906 3187 2673 
Q 2956 2441 2956 1928 
L 2956 0 
L 2394 0 
L 2394 2156 
Q 2394 2531 2256 2718 
Q 2119 2906 1806 2906 
Q 1569 2906 1367 2781 
Q 1166 2656 1075 2415 
Q 984 2175 984 1722 
L 984 0 
L 422 0 
z
" transform="scale(0.015625)"/>
       <path id="ArialMT-28" d="M 1497 -1347 
Q 1031 -759 709 28 
Q 388 816 388 1659 
Q 388 2403 628 3084 
Q 909 3875 1497 4659 
L 1900 4659 
Q 1522 4009 1400 3731 
Q 1209 3300 1100 2831 
Q 966 2247 966 1656 
Q 966 153 1900 -1347 
L 1497 -1347 
z
" transform="scale(0.015625)"/>
       <path id="DejaVuSans-2212" d="M 678 2272 
L 4684 2272 
L 4684 1741 
L 678 1741 
L 678 2272 
z
" transform="scale(0.015625)"/>
       <path id="DejaVuSans-31" d="M 794 531 
L 1825 531 
L 1825 4091 
L 703 3866 
L 703 4441 
L 1819 4666 
L 2450 4666 
L 2450 531 
L 3481 531 
L 3481 0 
L 794 0 
L 794 531 
z
" transform="scale(0.015625)"/>
       <path id="ArialMT-29" d="M 791 -1347 
L 388 -1347 
Q 1322 153 1322 1656 
Q 1322 2244 1188 2822 
Q 1081 3291 891 3722 
Q 769 4003 388 4659 
L 791 4659 
Q 1378 3875 1659 3084 
Q 1900 2403 1900 1659 
Q 1900 816 1576 28 
Q 1253 -759 791 -1347 
z
" transform="scale(0.015625)"/>
      </defs>
      <use xlink:href="#ArialMT-53" transform="translate(0 0.684375)"/>
      <use xlink:href="#ArialMT-70" transform="translate(66.699219 0.684375)"/>
      <use xlink:href="#ArialMT-6f" transform="translate(122.314453 0.684375)"/>
      <use xlink:href="#ArialMT-6e" transform="translate(177.929688 0.684375)"/>
      <use xlink:href="#ArialMT-74" transform="translate(233.544922 0.684375)"/>
      <use xlink:href="#ArialMT-61" transform="translate(261.328125 0.684375)"/>
      <use xlink:href="#ArialMT-6e" transform="translate(316.943359 0.684375)"/>
      <use xlink:href="#ArialMT-65" transform="translate(372.558594 0.684375)"/>
      <use xlink:href="#ArialMT-6f" transform="translate(428.173828 0.684375)"/>
      <use xlink:href="#ArialMT-75" transform="translate(483.789062 0.684375)"/>
      <use xlink:href="#ArialMT-73" transform="translate(539.404297 0.684375)"/>
      <use xlink:href="#ArialMT-20" transform="translate(589.404297 0.684375)"/>
      <use xlink:href="#ArialMT-43" transform="translate(617.1875 0.684375)"/>
      <use xlink:href="#ArialMT-75" transform="translate(689.404297 0.684375)"/>
      <use xlink:href="#ArialMT-72" transform="translate(745.019531 0.684375)"/>
      <use xlink:href="#ArialMT-76" transform="translate(778.320312 0.684375)"/>
      <use xlink:href="#ArialMT-61" transform="translate(828.320312 0.684375)"/>
      <use xlink:href="#ArialMT-74" transform="translate(883.935547 0.684375)"/>
      <use xlink:href="#ArialMT-75" transform="translate(911.71875 0.684375)"/>
      <use xlink:href="#ArialMT-72" transform="translate(967.333984 0.684375)"/>
      <use xlink:href="#ArialMT-65" transform="translate(1000.634766 0.684375)"/>
      <use xlink:href="#ArialMT-20" transform="translate(1056.25 0.684375)"/>
      <use xlink:href="#ArialMT-61" transform="translate(1084.033203 0.684375)"/>
      <use xlink:href="#ArialMT-74" transform="translate(1139.648438 0.684375)"/>
      <use xlink:href="#ArialMT-20" transform="translate(1167.431641 0.684375)"/>
      <use xlink:href="#ArialMT-41" transform="translate(1195.214844 0.684375)"/>
      <use xlink:href="#ArialMT-74" transform="translate(1261.914062 0.684375)"/>
      <use xlink:href="#ArialMT-74" transform="translate(1289.697266 0.684375)"/>
      <use xlink:href="#ArialMT-61" transform="translate(1317.480469 0.684375)"/>
      <use xlink:href="#ArialMT-63" transform="translate(1373.095703 0.684375)"/>
      <use xlink:href="#ArialMT-68" transform="translate(1423.095703 0.684375)"/>
      <use xlink:href="#ArialMT-6d" transform="translate(1478.710938 0.684375)"/>
      <use xlink:href="#ArialMT-65" transform="translate(1562.011719 0.684375)"/>
      <use xlink:href="#ArialMT-6e" transform="translate(1617.626953 0.684375)"/>
      <use xlink:href="#ArialMT-74" transform="translate(1673.242188 0.684375)"/>
      <use xlink:href="#ArialMT-20" transform="translate(1701.025391 0.684375)"/>
      <use xlink:href="#ArialMT-28" transform="translate(1728.808594 0.684375)"/>
      <use xlink:href="#ArialMT-6e" transform="translate(1762.109375 0.684375)"/>
      <use xlink:href="#ArialMT-6d" transform="translate(1817.724609 0.684375)"/>
      <use xlink:href="#DejaVuSans-2212" transform="translate(1901.982422 38.965625) scale(0.7)"/>
      <use xlink:href="#DejaVuSans-31" transform="translate(1960.634766 38.965625) scale(0.7)"/>
      <use xlink:href="#ArialMT-29" transform="translate(2007.905273 0.684375)"/>
     </g>
    </g>
   </g>
   <g id="matplotlib.axis_2">
    <g id="ytick_1">
     <g id="line2d_6">
      <defs>
       <path id="m09163b63b3" d="M 0 0 
L -9 0 
" style="stroke: #000000; stroke-width: 1.875"/>
      </defs>
      <g>
       <use xlink:href="#m09163b63b3" x="94.44" y="356.96" style="stroke: #000000; stroke-width: 1.875"/>
      </g>
     </g>
     <g id="text_7">
      <!-- 0 -->
      <g transform="translate(72.764453 362.865195) scale(0.165 -0.165)">
       <use xlink:href="#ArialMT-30"/>
      </g>
     </g>
    </g>
    <g id="ytick_2">
     <g id="line2d_7">
      <g>
       <use xlink:href="#m09163b63b3" x="94.44" y="290.656" style="stroke: #000000; stroke-width: 1.875"/>
      </g>
     </g>
     <g id="text_8">
      <!-- 200 -->
      <g transform="translate(54.413359 296.561195) scale(0.165 -0.165)">
       <use xlink:href="#ArialMT-32"/>
       <use xlink:href="#ArialMT-30" x="55.615234"/>
       <use xlink:href="#ArialMT-30" x="111.230469"/>
      </g>
     </g>
    </g>
    <g id="ytick_3">
     <g id="line2d_8">
      <g>
       <use xlink:href="#m09163b63b3" x="94.44" y="224.352" style="stroke: #000000; stroke-width: 1.875"/>
      </g>
     </g>
     <g id="text_9">
      <!-- 400 -->
      <g transform="translate(54.413359 230.257195) scale(0.165 -0.165)">
       <use xlink:href="#ArialMT-34"/>
       <use xlink:href="#ArialMT-30" x="55.615234"/>
       <use xlink:href="#ArialMT-30" x="111.230469"/>
      </g>
     </g>
    </g>
    <g id="ytick_4">
     <g id="line2d_9">
      <g>
       <use xlink:href="#m09163b63b3" x="94.44" y="158.048" style="stroke: #000000; stroke-width: 1.875"/>
      </g>
     </g>
     <g id="text_10">
      <!-- 600 -->
      <g transform="translate(54.413359 163.953195) scale(0.165 -0.165)">
       <use xlink:href="#ArialMT-36"/>
       <use xlink:href="#ArialMT-30" x="55.615234"/>
       <use xlink:href="#ArialMT-30" x="111.230469"/>
      </g>
     </g>
    </g>
    <g id="ytick_5">
     <g id="line2d_10">
      <g>
       <use xlink:href="#m09163b63b3" x="94.44" y="91.744" style="stroke: #000000; stroke-width: 1.875"/>
      </g>
     </g>
     <g id="text_11">
      <!-- 800 -->
      <g transform="translate(54.413359 97.649195) scale(0.165 -0.165)">
       <defs>
        <path id="ArialMT-38" d="M 1131 2484 
Q 781 2613 612 2850 
Q 444 3088 444 3419 
Q 444 3919 803 4259 
Q 1163 4600 1759 4600 
Q 2359 4600 2725 4251 
Q 3091 3903 3091 3403 
Q 3091 3084 2923 2848 
Q 2756 2613 2416 2484 
Q 2838 2347 3058 2040 
Q 3278 1734 3278 1309 
Q 3278 722 2862 322 
Q 2447 -78 1769 -78 
Q 1091 -78 675 323 
Q 259 725 259 1325 
Q 259 1772 486 2073 
Q 713 2375 1131 2484 
z
M 1019 3438 
Q 1019 3113 1228 2906 
Q 1438 2700 1772 2700 
Q 2097 2700 2305 2904 
Q 2513 3109 2513 3406 
Q 2513 3716 2298 3927 
Q 2084 4138 1766 4138 
Q 1444 4138 1231 3931 
Q 1019 3725 1019 3438 
z
M 838 1322 
Q 838 1081 952 856 
Q 1066 631 1291 507 
Q 1516 384 1775 384 
Q 2178 384 2440 643 
Q 2703 903 2703 1303 
Q 2703 1709 2433 1975 
Q 2163 2241 1756 2241 
Q 1359 2241 1098 1978 
Q 838 1716 838 1322 
z
" transform="scale(0.015625)"/>
       </defs>
       <use xlink:href="#ArialMT-38"/>
       <use xlink:href="#ArialMT-30" x="55.615234"/>
       <use xlink:href="#ArialMT-30" x="111.230469"/>
      </g>
     </g>
    </g>
    <g id="ytick_6">
     <g id="line2d_11">
      <g>
       <use xlink:href="#m09163b63b3" x="94.44" y="25.44" style="stroke: #000000; stroke-width: 1.875"/>
      </g>
     </g>
     <g id="text_12">
      <!-- 1000 -->
      <g transform="translate(45.237813 31.345195) scale(0.165 -0.165)">
       <defs>
        <path id="ArialMT-31" d="M 2384 0 
L 1822 0 
L 1822 3584 
Q 1619 3391 1289 3197 
Q 959 3003 697 2906 
L 697 3450 
Q 1169 3672 1522 3987 
Q 1875 4303 2022 4600 
L 2384 4600 
L 2384 0 
z
" transform="scale(0.015625)"/>
       </defs>
       <use xlink:href="#ArialMT-31"/>
       <use xlink:href="#ArialMT-30" x="55.615234"/>
       <use xlink:href="#ArialMT-30" x="111.230469"/>
       <use xlink:href="#ArialMT-30" x="166.845703"/>
      </g>
     </g>
    </g>
    <g id="text_13">
     <!-- Minimum Bending Energy (pN$\cdot$nm) -->
     <g transform="translate(37.277813 329.62) rotate(-90) scale(0.18 -0.18)">
      <defs>
       <path id="ArialMT-4d" d="M 475 0 
L 475 4581 
L 1388 4581 
L 2472 1338 
Q 2622 884 2691 659 
Q 2769 909 2934 1394 
L 4031 4581 
L 4847 4581 
L 4847 0 
L 4263 0 
L 4263 3834 
L 2931 0 
L 2384 0 
L 1059 3900 
L 1059 0 
L 475 0 
z
" transform="scale(0.015625)"/>
       <path id="ArialMT-69" d="M 425 3934 
L 425 4581 
L 988 4581 
L 988 3934 
L 425 3934 
z
M 425 0 
L 425 3319 
L 988 3319 
L 988 0 
L 425 0 
z
" transform="scale(0.015625)"/>
       <path id="ArialMT-42" d="M 469 0 
L 469 4581 
L 2188 4581 
Q 2713 4581 3030 4442 
Q 3347 4303 3526 4014 
Q 3706 3725 3706 3409 
Q 3706 3116 3547 2856 
Q 3388 2597 3066 2438 
Q 3481 2316 3704 2022 
Q 3928 1728 3928 1328 
Q 3928 1006 3792 729 
Q 3656 453 3456 303 
Q 3256 153 2954 76 
Q 2653 0 2216 0 
L 469 0 
z
M 1075 2656 
L 2066 2656 
Q 2469 2656 2644 2709 
Q 2875 2778 2992 2937 
Q 3109 3097 3109 3338 
Q 3109 3566 3000 3739 
Q 2891 3913 2687 3977 
Q 2484 4041 1991 4041 
L 1075 4041 
L 1075 2656 
z
M 1075 541 
L 2216 541 
Q 2509 541 2628 563 
Q 2838 600 2978 687 
Q 3119 775 3209 942 
Q 3300 1109 3300 1328 
Q 3300 1584 3169 1773 
Q 3038 1963 2805 2039 
Q 2572 2116 2134 2116 
L 1075 2116 
L 1075 541 
z
" transform="scale(0.015625)"/>
       <path id="ArialMT-64" d="M 2575 0 
L 2575 419 
Q 2259 -75 1647 -75 
Q 1250 -75 917 144 
Q 584 363 401 755 
Q 219 1147 219 1656 
Q 219 2153 384 2558 
Q 550 2963 881 3178 
Q 1213 3394 1622 3394 
Q 1922 3394 2156 3267 
Q 2391 3141 2538 2938 
L 2538 4581 
L 3097 4581 
L 3097 0 
L 2575 0 
z
M 797 1656 
Q 797 1019 1065 703 
Q 1334 388 1700 388 
Q 2069 388 2326 689 
Q 2584 991 2584 1609 
Q 2584 2291 2321 2609 
Q 2059 2928 1675 2928 
Q 1300 2928 1048 2622 
Q 797 2316 797 1656 
z
" transform="scale(0.015625)"/>
       <path id="ArialMT-67" d="M 319 -275 
L 866 -356 
Q 900 -609 1056 -725 
Q 1266 -881 1628 -881 
Q 2019 -881 2231 -725 
Q 2444 -569 2519 -288 
Q 2563 -116 2559 434 
Q 2191 0 1641 0 
Q 956 0 581 494 
Q 206 988 206 1678 
Q 206 2153 378 2554 
Q 550 2956 876 3175 
Q 1203 3394 1644 3394 
Q 2231 3394 2613 2919 
L 2613 3319 
L 3131 3319 
L 3131 450 
Q 3131 -325 2973 -648 
Q 2816 -972 2473 -1159 
Q 2131 -1347 1631 -1347 
Q 1038 -1347 672 -1080 
Q 306 -813 319 -275 
z
M 784 1719 
Q 784 1066 1043 766 
Q 1303 466 1694 466 
Q 2081 466 2343 764 
Q 2606 1063 2606 1700 
Q 2606 2309 2336 2618 
Q 2066 2928 1684 2928 
Q 1309 2928 1046 2623 
Q 784 2319 784 1719 
z
" transform="scale(0.015625)"/>
       <path id="ArialMT-45" d="M 506 0 
L 506 4581 
L 3819 4581 
L 3819 4041 
L 1113 4041 
L 1113 2638 
L 3647 2638 
L 3647 2100 
L 1113 2100 
L 1113 541 
L 3925 541 
L 3925 0 
L 506 0 
z
" transform="scale(0.015625)"/>
       <path id="ArialMT-79" d="M 397 -1278 
L 334 -750 
Q 519 -800 656 -800 
Q 844 -800 956 -737 
Q 1069 -675 1141 -563 
Q 1194 -478 1313 -144 
Q 1328 -97 1363 -6 
L 103 3319 
L 709 3319 
L 1400 1397 
Q 1534 1031 1641 628 
Q 1738 1016 1872 1384 
L 2581 3319 
L 3144 3319 
L 1881 -56 
Q 1678 -603 1566 -809 
Q 1416 -1088 1222 -1217 
Q 1028 -1347 759 -1347 
Q 597 -1347 397 -1278 
z
" transform="scale(0.015625)"/>
       <path id="ArialMT-4e" d="M 488 0 
L 488 4581 
L 1109 4581 
L 3516 984 
L 3516 4581 
L 4097 4581 
L 4097 0 
L 3475 0 
L 1069 3600 
L 1069 0 
L 488 0 
z
" transform="scale(0.015625)"/>
       <path id="DejaVuSans-22c5" d="M 684 2619 
L 1344 2619 
L 1344 1825 
L 684 1825 
L 684 2619 
z
" transform="scale(0.015625)"/>
      </defs>
      <use xlink:href="#ArialMT-4d" transform="translate(0 0.203125)"/>
      <use xlink:href="#ArialMT-69" transform="translate(83.300781 0.203125)"/>
      <use xlink:href="#ArialMT-6e" transform="translate(105.517578 0.203125)"/>
      <use xlink:href="#ArialMT-69" transform="translate(161.132812 0.203125)"/>
      <use xlink:href="#ArialMT-6d" transform="translate(183.349609 0.203125)"/>
      <use xlink:href="#ArialMT-75" transform="translate(266.650391 0.203125)"/>
      <use xlink:href="#ArialMT-6d" transform="translate(322.265625 0.203125)"/>
      <use xlink:href="#ArialMT-20" transform="translate(405.566406 0.203125)"/>
      <use xlink:href="#ArialMT-42" transform="translate(433.349609 0.203125)"/>
      <use xlink:href="#ArialMT-65" transform="translate(500.048828 0.203125)"/>
      <use xlink:href="#ArialMT-6e" transform="translate(555.664062 0.203125)"/>
      <use xlink:href="#ArialMT-64" transform="translate(611.279297 0.203125)"/>
      <use xlink:href="#ArialMT-69" transform="translate(666.894531 0.203125)"/>
      <use xlink:href="#ArialMT-6e" transform="translate(689.111328 0.203125)"/>
      <use xlink:href="#ArialMT-67" transform="translate(744.726562 0.203125)"/>
      <use xlink:href="#ArialMT-20" transform="translate(800.341797 0.203125)"/>
      <use xlink:href="#ArialMT-45" transform="translate(828.125 0.203125)"/>
      <use xlink:href="#ArialMT-6e" transform="translate(894.824219 0.203125)"/>
      <use xlink:href="#ArialMT-65" transform="translate(950.439453 0.203125)"/>
      <use xlink:href="#ArialMT-72" transform="translate(1006.054688 0.203125)"/>
      <use xlink:href="#ArialMT-67" transform="translate(1039.355469 0.203125)"/>
      <use xlink:href="#ArialMT-79" transform="translate(1094.970703 0.203125)"/>
      <use xlink:href="#ArialMT-20" transform="translate(1144.970703 0.203125)"/>
      <use xlink:href="#ArialMT-28" transform="translate(1172.753906 0.203125)"/>
      <use xlink:href="#ArialMT-70" transform="translate(1206.054688 0.203125)"/>
      <use xlink:href="#ArialMT-4e" transform="translate(1261.669922 0.203125)"/>
      <use xlink:href="#DejaVuSans-22c5" transform="translate(1333.886719 0.203125)"/>
      <use xlink:href="#ArialMT-6e" transform="translate(1365.673828 0.203125)"/>
      <use xlink:href="#ArialMT-6d" transform="translate(1421.289062 0.203125)"/>
      <use xlink:href="#ArialMT-29" transform="translate(1504.589844 0.203125)"/>
     </g>
    </g>
   </g>
   <g id="LineCollection_1">
    <path d="M 115.3007 290.755456 
L 115.3007 290.646054 
" clip-path="url(#p8f2ddeca53)" style="fill: none; stroke: #0000ff; stroke-opacity: 0.8; stroke-width: 2.25"/>
    <path d="M 160.848081 320.695027 
L 160.848081 319.808874 
" clip-path="url(#p8f2ddeca53)" style="fill: none; stroke: #0000ff; stroke-opacity: 0.8; stroke-width: 2.25"/>
    <path d="M 206.395462 337.521789 
L 206.395462 337.521789 
" clip-path="url(#p8f2ddeca53)" style="fill: none; stroke: #0000ff; stroke-opacity: 0.8; stroke-width: 2.25"/>
    <path d="M 251.942842 342.635153 
L 251.942842 336.287076 
" clip-path="url(#p8f2ddeca53)" style="fill: none; stroke: #0000ff; stroke-opacity: 0.8; stroke-width: 2.25"/>
    <path d="M 297.490223 337.628008 
L 297.490223 325.245703 
" clip-path="url(#p8f2ddeca53)" style="fill: none; stroke: #0000ff; stroke-opacity: 0.8; stroke-width: 2.25"/>
    <path d="M 343.037603 319.503876 
L 343.037603 301.777501 
" clip-path="url(#p8f2ddeca53)" style="fill: none; stroke: #0000ff; stroke-opacity: 0.8; stroke-width: 2.25"/>
    <path d="M 388.584984 284.208931 
L 388.584984 261.25979 
" clip-path="url(#p8f2ddeca53)" style="fill: none; stroke: #0000ff; stroke-opacity: 0.8; stroke-width: 2.25"/>
    <path d="M 434.132365 241.872832 
L 434.132365 209.904027 
" clip-path="url(#p8f2ddeca53)" style="fill: none; stroke: #0000ff; stroke-opacity: 0.8; stroke-width: 2.25"/>
    <path d="M 479.679745 187.067272 
L 479.679745 143.912319 
" clip-path="url(#p8f2ddeca53)" style="fill: none; stroke: #0000ff; stroke-opacity: 0.8; stroke-width: 2.25"/>
    <path d="M 525.227126 116.120334 
L 525.227126 63.368209 
" clip-path="url(#p8f2ddeca53)" style="fill: none; stroke: #0000ff; stroke-opacity: 0.8; stroke-width: 2.25"/>
   </g>
   <g id="line2d_12">
    <defs>
     <path id="m3d60ab4403" d="M 5 0 
L -5 -0 
" style="stroke: #0000ff; stroke-opacity: 0.8; stroke-width: 2"/>
    </defs>
    <g clip-path="url(#p8f2ddeca53)">
     <use xlink:href="#m3d60ab4403" x="115.3007" y="290.646054" style="fill: #0000ff; fill-opacity: 0.8; stroke: #0000ff; stroke-opacity: 0.8; stroke-width: 2"/>
     <use xlink:href="#m3d60ab4403" x="160.848081" y="319.808874" style="fill: #0000ff; fill-opacity: 0.8; stroke: #0000ff; stroke-opacity: 0.8; stroke-width: 2"/>
     <use xlink:href="#m3d60ab4403" x="206.395462" y="337.521789" style="fill: #0000ff; fill-opacity: 0.8; stroke: #0000ff; stroke-opacity: 0.8; stroke-width: 2"/>
     <use xlink:href="#m3d60ab4403" x="251.942842" y="336.287076" style="fill: #0000ff; fill-opacity: 0.8; stroke: #0000ff; stroke-opacity: 0.8; stroke-width: 2"/>
     <use xlink:href="#m3d60ab4403" x="297.490223" y="325.245703" style="fill: #0000ff; fill-opacity: 0.8; stroke: #0000ff; stroke-opacity: 0.8; stroke-width: 2"/>
     <use xlink:href="#m3d60ab4403" x="343.037603" y="301.777501" style="fill: #0000ff; fill-opacity: 0.8; stroke: #0000ff; stroke-opacity: 0.8; stroke-width: 2"/>
     <use xlink:href="#m3d60ab4403" x="388.584984" y="261.25979" style="fill: #0000ff; fill-opacity: 0.8; stroke: #0000ff; stroke-opacity: 0.8; stroke-width: 2"/>
     <use xlink:href="#m3d60ab4403" x="434.132365" y="209.904027" style="fill: #0000ff; fill-opacity: 0.8; stroke: #0000ff; stroke-opacity: 0.8; stroke-width: 2"/>
     <use xlink:href="#m3d60ab4403" x="479.679745" y="143.912319" style="fill: #0000ff; fill-opacity: 0.8; stroke: #0000ff; stroke-opacity: 0.8; stroke-width: 2"/>
     <use xlink:href="#m3d60ab4403" x="525.227126" y="63.368209" style="fill: #0000ff; fill-opacity: 0.8; stroke: #0000ff; stroke-opacity: 0.8; stroke-width: 2"/>
    </g>
   </g>
   <g id="line2d_13"/>
   <g id="LineCollection_2">
    <path d="M 122.588281 299.573888 
L 122.588281 260.179366 
" clip-path="url(#p8f2ddeca53)" style="fill: none; stroke: #ff0000; stroke-opacity: 0.8; stroke-width: 2.25"/>
    <path d="M 168.135662 324.974652 
L 168.135662 293.620452 
" clip-path="url(#p8f2ddeca53)" style="fill: none; stroke: #ff0000; stroke-opacity: 0.8; stroke-width: 2.25"/>
    <path d="M 213.683042 340.324194 
L 213.683042 317.394414 
" clip-path="url(#p8f2ddeca53)" style="fill: none; stroke: #ff0000; stroke-opacity: 0.8; stroke-width: 2.25"/>
    <path d="M 259.230423 344.054158 
L 259.230423 325.925683 
" clip-path="url(#p8f2ddeca53)" style="fill: none; stroke: #ff0000; stroke-opacity: 0.8; stroke-width: 2.25"/>
    <path d="M 304.777804 337.092338 
L 304.777804 321.228774 
" clip-path="url(#p8f2ddeca53)" style="fill: none; stroke: #ff0000; stroke-opacity: 0.8; stroke-width: 2.25"/>
    <path d="M 350.325184 319.927558 
L 350.325184 302.527731 
" clip-path="url(#p8f2ddeca53)" style="fill: none; stroke: #ff0000; stroke-opacity: 0.8; stroke-width: 2.25"/>
    <path d="M 395.872565 288.663233 
L 395.872565 269.980755 
" clip-path="url(#p8f2ddeca53)" style="fill: none; stroke: #ff0000; stroke-opacity: 0.8; stroke-width: 2.25"/>
    <path d="M 441.419946 245.642877 
L 441.419946 223.467505 
" clip-path="url(#p8f2ddeca53)" style="fill: none; stroke: #ff0000; stroke-opacity: 0.8; stroke-width: 2.25"/>
    <path d="M 486.967326 191.691644 
L 486.967326 163.309885 
" clip-path="url(#p8f2ddeca53)" style="fill: none; stroke: #ff0000; stroke-opacity: 0.8; stroke-width: 2.25"/>
    <path d="M 532.514707 127.959908 
L 532.514707 89.132617 
" clip-path="url(#p8f2ddeca53)" style="fill: none; stroke: #ff0000; stroke-opacity: 0.8; stroke-width: 2.25"/>
   </g>
   <g id="line2d_14">
    <defs>
     <path id="ma7d3da6eea" d="M 5 0 
L -5 -0 
" style="stroke: #ff0000; stroke-opacity: 0.8; stroke-width: 2"/>
    </defs>
    <g clip-path="url(#p8f2ddeca53)">
     <use xlink:href="#ma7d3da6eea" x="122.588281" y="260.179366" style="fill: #ff0000; fill-opacity: 0.8; stroke: #ff0000; stroke-opacity: 0.8; stroke-width: 2"/>
     <use xlink:href="#ma7d3da6eea" x="168.135662" y="293.620452" style="fill: #ff0000; fill-opacity: 0.8; stroke: #ff0000; stroke-opacity: 0.8; stroke-width: 2"/>
     <use xlink:href="#ma7d3da6eea" x="213.683042" y="317.394414" style="fill: #ff0000; fill-opacity: 0.8; stroke: #ff0000; stroke-opacity: 0.8; stroke-width: 2"/>
     <use xlink:href="#ma7d3da6eea" x="259.230423" y="325.925683" style="fill: #ff0000; fill-opacity: 0.8; stroke: #ff0000; stroke-opacity: 0.8; stroke-width: 2"/>
     <use xlink:href="#ma7d3da6eea" x="304.777804" y="321.228774" style="fill: #ff0000; fill-opacity: 0.8; stroke: #ff0000; stroke-opacity: 0.8; stroke-width: 2"/>
     <use xlink:href="#ma7d3da6eea" x="350.325184" y="302.527731" style="fill: #ff0000; fill-opacity: 0.8; stroke: #ff0000; stroke-opacity: 0.8; stroke-width: 2"/>
     <use xlink:href="#ma7d3da6eea" x="395.872565" y="269.980755" style="fill: #ff0000; fill-opacity: 0.8; stroke: #ff0000; stroke-opacity: 0.8; stroke-width: 2"/>
     <use xlink:href="#ma7d3da6eea" x="441.419946" y="223.467505" style="fill: #ff0000; fill-opacity: 0.8; stroke: #ff0000; stroke-opacity: 0.8; stroke-width: 2"/>
     <use xlink:href="#ma7d3da6eea" x="486.967326" y="163.309885" style="fill: #ff0000; fill-opacity: 0.8; stroke: #ff0000; stroke-opacity: 0.8; stroke-width: 2"/>
     <use xlink:href="#ma7d3da6eea" x="532.514707" y="89.132617" style="fill: #ff0000; fill-opacity: 0.8; stroke: #ff0000; stroke-opacity: 0.8; stroke-width: 2"/>
    </g>
   </g>
   <g id="line2d_15"/>
   <g id="line2d_16">
    <path d="M 94.44 287.471068 
L 553.375407 287.471068 
" clip-path="url(#p8f2ddeca53)" style="fill: none; stroke-dasharray: 5.55,2.4; stroke-dashoffset: 0; stroke: #000000; stroke-width: 1.5"/>
   </g>
   <g id="line2d_17">
    <path d="M 237.830874 356.96 
L 237.830874 25.44 
" clip-path="url(#p8f2ddeca53)" style="fill: none; stroke-dasharray: 5.55,2.4; stroke-dashoffset: 0; stroke: #000000; stroke-width: 1.5"/>
   </g>
   <g id="patch_3">
    <path d="M 94.44 356.96 
L 94.44 25.44 
" style="fill: none; stroke: #000000; stroke-width: 1.875; stroke-linejoin: miter; stroke-linecap: square"/>
   </g>
   <g id="patch_4">
    <path d="M 553.375407 356.96 
L 553.375407 25.44 
" style="fill: none; stroke: #000000; stroke-width: 1.875; stroke-linejoin: miter; stroke-linecap: square"/>
   </g>
   <g id="patch_5">
    <path d="M 94.44 356.96 
L 553.375407 356.96 
" style="fill: none; stroke: #000000; stroke-width: 1.875; stroke-linejoin: miter; stroke-linecap: square"/>
   </g>
   <g id="patch_6">
    <path d="M 94.44 25.44 
L 553.375407 25.44 
" style="fill: none; stroke: #000000; stroke-width: 1.875; stroke-linejoin: miter; stroke-linecap: square"/>
   </g>
   <g id="text_14">
    <!-- theoretical min $E_B$ -->
    <g transform="translate(405.892989 303.670331) scale(0.18 -0.18)">
     <defs>
      <path id="ArialMT-6c" d="M 409 0 
L 409 4581 
L 972 4581 
L 972 0 
L 409 0 
z
" transform="scale(0.015625)"/>
      <path id="DejaVuSans-Oblique-45" d="M 1081 4666 
L 4031 4666 
L 3928 4134 
L 1606 4134 
L 1338 2753 
L 3566 2753 
L 3463 2222 
L 1234 2222 
L 909 531 
L 3284 531 
L 3181 0 
L 172 0 
L 1081 4666 
z
" transform="scale(0.015625)"/>
      <path id="DejaVuSans-Oblique-42" d="M 1081 4666 
L 2694 4666 
Q 3350 4666 3675 4422 
Q 4000 4178 4000 3688 
Q 4000 3238 3720 2911 
Q 3441 2584 2988 2516 
Q 3375 2428 3569 2181 
Q 3763 1934 3763 1522 
Q 3763 819 3242 409 
Q 2722 0 1819 0 
L 172 0 
L 1081 4666 
z
M 1234 2228 
L 903 519 
L 1919 519 
Q 2491 519 2800 781 
Q 3109 1044 3109 1522 
Q 3109 1891 2904 2059 
Q 2700 2228 2247 2228 
L 1234 2228 
z
M 1606 4147 
L 1331 2741 
L 2272 2741 
Q 2775 2741 3058 2959 
Q 3341 3178 3341 3566 
Q 3341 3869 3150 4008 
Q 2959 4147 2541 4147 
L 1606 4147 
z
" transform="scale(0.015625)"/>
     </defs>
     <use xlink:href="#ArialMT-74" transform="translate(0 0.09375)"/>
     <use xlink:href="#ArialMT-68" transform="translate(27.783203 0.09375)"/>
     <use xlink:href="#ArialMT-65" transform="translate(83.398438 0.09375)"/>
     <use xlink:href="#ArialMT-6f" transform="translate(139.013672 0.09375)"/>
     <use xlink:href="#ArialMT-72" transform="translate(194.628906 0.09375)"/>
     <use xlink:href="#ArialMT-65" transform="translate(227.929688 0.09375)"/>
     <use xlink:href="#ArialMT-74" transform="translate(283.544922 0.09375)"/>
     <use xlink:href="#ArialMT-69" transform="translate(311.328125 0.09375)"/>
     <use xlink:href="#ArialMT-63" transform="translate(333.544922 0.09375)"/>
     <use xlink:href="#ArialMT-61" transform="translate(383.544922 0.09375)"/>
     <use xlink:href="#ArialMT-6c" transform="translate(439.160156 0.09375)"/>
     <use xlink:href="#ArialMT-20" transform="translate(461.376953 0.09375)"/>
     <use xlink:href="#ArialMT-6d" transform="translate(489.160156 0.09375)"/>
     <use xlink:href="#ArialMT-69" transform="translate(572.460938 0.09375)"/>
     <use xlink:href="#ArialMT-6e" transform="translate(594.677734 0.09375)"/>
     <use xlink:href="#ArialMT-20" transform="translate(650.292969 0.09375)"/>
     <use xlink:href="#DejaVuSans-Oblique-45" transform="translate(678.076172 0.09375)"/>
     <use xlink:href="#DejaVuSans-Oblique-42" transform="translate(741.259766 -16.3125) scale(0.7)"/>
    </g>
    <!-- at $C_0 = 0$ -->
    <g transform="translate(405.892989 323.042831) scale(0.18 -0.18)">
     <defs>
      <path id="DejaVuSans-Oblique-43" d="M 4447 4306 
L 4319 3641 
Q 4019 3944 3683 4091 
Q 3347 4238 2956 4238 
Q 2422 4238 2017 3981 
Q 1613 3725 1319 3200 
Q 1131 2863 1032 2486 
Q 934 2109 934 1728 
Q 934 1091 1264 756 
Q 1594 422 2222 422 
Q 2656 422 3056 561 
Q 3456 700 3834 978 
L 3688 231 
Q 3316 72 2936 -9 
Q 2556 -91 2175 -91 
Q 1278 -91 773 396 
Q 269 884 269 1753 
Q 269 2309 461 2846 
Q 653 3384 1013 3828 
Q 1394 4300 1883 4525 
Q 2372 4750 3022 4750 
Q 3422 4750 3780 4639 
Q 4138 4528 4447 4306 
z
" transform="scale(0.015625)"/>
      <path id="DejaVuSans-30" d="M 2034 4250 
Q 1547 4250 1301 3770 
Q 1056 3291 1056 2328 
Q 1056 1369 1301 889 
Q 1547 409 2034 409 
Q 2525 409 2770 889 
Q 3016 1369 3016 2328 
Q 3016 3291 2770 3770 
Q 2525 4250 2034 4250 
z
M 2034 4750 
Q 2819 4750 3233 4129 
Q 3647 3509 3647 2328 
Q 3647 1150 3233 529 
Q 2819 -91 2034 -91 
Q 1250 -91 836 529 
Q 422 1150 422 2328 
Q 422 3509 836 4129 
Q 1250 4750 2034 4750 
z
" transform="scale(0.015625)"/>
      <path id="DejaVuSans-3d" d="M 678 2906 
L 4684 2906 
L 4684 2381 
L 678 2381 
L 678 2906 
z
M 678 1631 
L 4684 1631 
L 4684 1100 
L 678 1100 
L 678 1631 
z
" transform="scale(0.015625)"/>
     </defs>
     <use xlink:href="#ArialMT-61" transform="translate(0 0.78125)"/>
     <use xlink:href="#ArialMT-74" transform="translate(55.615234 0.78125)"/>
     <use xlink:href="#ArialMT-20" transform="translate(83.398438 0.78125)"/>
     <use xlink:href="#DejaVuSans-Oblique-43" transform="translate(111.181641 0.78125)"/>
     <use xlink:href="#DejaVuSans-30" transform="translate(181.005859 -15.625) scale(0.7)"/>
     <use xlink:href="#DejaVuSans-3d" transform="translate(247.758789 0.78125)"/>
     <use xlink:href="#DejaVuSans-30" transform="translate(351.030273 0.78125)"/>
    </g>
   </g>
   <g id="text_15">
    <!-- $C_0=-0.034$ nm$^{-1}$ -->
    <g transform="translate(242.385612 107.6065) scale(0.18 -0.18)">
     <defs>
      <path id="DejaVuSans-2e" d="M 684 794 
L 1344 794 
L 1344 0 
L 684 0 
L 684 794 
z
" transform="scale(0.015625)"/>
      <path id="DejaVuSans-33" d="M 2597 2516 
Q 3050 2419 3304 2112 
Q 3559 1806 3559 1356 
Q 3559 666 3084 287 
Q 2609 -91 1734 -91 
Q 1441 -91 1130 -33 
Q 819 25 488 141 
L 488 750 
Q 750 597 1062 519 
Q 1375 441 1716 441 
Q 2309 441 2620 675 
Q 2931 909 2931 1356 
Q 2931 1769 2642 2001 
Q 2353 2234 1838 2234 
L 1294 2234 
L 1294 2753 
L 1863 2753 
Q 2328 2753 2575 2939 
Q 2822 3125 2822 3475 
Q 2822 3834 2567 4026 
Q 2313 4219 1838 4219 
Q 1578 4219 1281 4162 
Q 984 4106 628 3988 
L 628 4550 
Q 988 4650 1302 4700 
Q 1616 4750 1894 4750 
Q 2613 4750 3031 4423 
Q 3450 4097 3450 3541 
Q 3450 3153 3228 2886 
Q 3006 2619 2597 2516 
z
" transform="scale(0.015625)"/>
      <path id="DejaVuSans-34" d="M 2419 4116 
L 825 1625 
L 2419 1625 
L 2419 4116 
z
M 2253 4666 
L 3047 4666 
L 3047 1625 
L 3713 1625 
L 3713 1100 
L 3047 1100 
L 3047 0 
L 2419 0 
L 2419 1100 
L 313 1100 
L 313 1709 
L 2253 4666 
z
" transform="scale(0.015625)"/>
     </defs>
     <use xlink:href="#DejaVuSans-Oblique-43" transform="translate(0 0.684375)"/>
     <use xlink:href="#DejaVuSans-30" transform="translate(69.824219 -15.721875) scale(0.7)"/>
     <use xlink:href="#DejaVuSans-3d" transform="translate(136.577148 0.684375)"/>
     <use xlink:href="#DejaVuSans-2212" transform="translate(259.331055 0.684375)"/>
     <use xlink:href="#DejaVuSans-30" transform="translate(362.602539 0.684375)"/>
     <use xlink:href="#DejaVuSans-2e" transform="translate(426.225586 0.684375)"/>
     <use xlink:href="#DejaVuSans-30" transform="translate(458.012695 0.684375)"/>
     <use xlink:href="#DejaVuSans-33" transform="translate(521.635742 0.684375)"/>
     <use xlink:href="#DejaVuSans-34" transform="translate(585.258789 0.684375)"/>
     <use xlink:href="#ArialMT-20" transform="translate(648.881836 0.684375)"/>
     <use xlink:href="#ArialMT-6e" transform="translate(676.665039 0.684375)"/>
     <use xlink:href="#ArialMT-6d" transform="translate(732.280273 0.684375)"/>
     <use xlink:href="#DejaVuSans-2212" transform="translate(816.538086 38.965625) scale(0.7)"/>
     <use xlink:href="#DejaVuSans-31" transform="translate(875.19043 38.965625) scale(0.7)"/>
    </g>
    <!-- at the perfect wrapped shape -->
    <g transform="translate(242.385612 126.908125) scale(0.18 -0.18)">
     <defs>
      <path id="ArialMT-66" d="M 556 0 
L 556 2881 
L 59 2881 
L 59 3319 
L 556 3319 
L 556 3672 
Q 556 4006 616 4169 
Q 697 4388 901 4523 
Q 1106 4659 1475 4659 
Q 1713 4659 2000 4603 
L 1916 4113 
Q 1741 4144 1584 4144 
Q 1328 4144 1222 4034 
Q 1116 3925 1116 3625 
L 1116 3319 
L 1763 3319 
L 1763 2881 
L 1116 2881 
L 1116 0 
L 556 0 
z
" transform="scale(0.015625)"/>
      <path id="ArialMT-77" d="M 1034 0 
L 19 3319 
L 600 3319 
L 1128 1403 
L 1325 691 
Q 1338 744 1497 1375 
L 2025 3319 
L 2603 3319 
L 3100 1394 
L 3266 759 
L 3456 1400 
L 4025 3319 
L 4572 3319 
L 3534 0 
L 2950 0 
L 2422 1988 
L 2294 2553 
L 1622 0 
L 1034 0 
z
" transform="scale(0.015625)"/>
     </defs>
     <use xlink:href="#ArialMT-61"/>
     <use xlink:href="#ArialMT-74" x="55.615234"/>
     <use xlink:href="#ArialMT-20" x="83.398438"/>
     <use xlink:href="#ArialMT-74" x="111.181641"/>
     <use xlink:href="#ArialMT-68" x="138.964844"/>
     <use xlink:href="#ArialMT-65" x="194.580078"/>
     <use xlink:href="#ArialMT-20" x="250.195312"/>
     <use xlink:href="#ArialMT-70" x="277.978516"/>
     <use xlink:href="#ArialMT-65" x="333.59375"/>
     <use xlink:href="#ArialMT-72" x="389.208984"/>
     <use xlink:href="#ArialMT-66" x="422.509766"/>
     <use xlink:href="#ArialMT-65" x="450.292969"/>
     <use xlink:href="#ArialMT-63" x="505.908203"/>
     <use xlink:href="#ArialMT-74" x="555.908203"/>
     <use xlink:href="#ArialMT-20" x="583.691406"/>
     <use xlink:href="#ArialMT-77" x="611.474609"/>
     <use xlink:href="#ArialMT-72" x="683.691406"/>
     <use xlink:href="#ArialMT-61" x="716.992188"/>
     <use xlink:href="#ArialMT-70" x="772.607422"/>
     <use xlink:href="#ArialMT-70" x="828.222656"/>
     <use xlink:href="#ArialMT-65" x="883.837891"/>
     <use xlink:href="#ArialMT-64" x="939.453125"/>
     <use xlink:href="#ArialMT-20" x="995.068359"/>
     <use xlink:href="#ArialMT-73" x="1022.851562"/>
     <use xlink:href="#ArialMT-68" x="1072.851562"/>
     <use xlink:href="#ArialMT-61" x="1128.466797"/>
     <use xlink:href="#ArialMT-70" x="1184.082031"/>
     <use xlink:href="#ArialMT-65" x="1239.697266"/>
    </g>
   </g>
   <g id="legend_1">
    <g id="PathCollection_3">
     <g>
      <use xlink:href="#m6c0e3f6e9f" x="114.316615" y="42.796341" style="fill: #0000ff; fill-opacity: 0.8; stroke: #0000ff; stroke-opacity: 0.8; stroke-width: 1.5"/>
     </g>
    </g>
    <g id="text_16">
     <!-- $e=0$ -->
     <g transform="translate(144.016615 47.127591) scale(0.165 -0.165)">
      <defs>
       <path id="DejaVuSans-Oblique-65" d="M 3078 2063 
Q 3088 2113 3092 2166 
Q 3097 2219 3097 2272 
Q 3097 2653 2873 2875 
Q 2650 3097 2266 3097 
Q 1838 3097 1509 2826 
Q 1181 2556 1013 2059 
L 3078 2063 
z
M 3578 1613 
L 903 1613 
Q 884 1494 878 1425 
Q 872 1356 872 1306 
Q 872 872 1139 634 
Q 1406 397 1894 397 
Q 2269 397 2603 481 
Q 2938 566 3225 728 
L 3116 159 
Q 2806 34 2476 -28 
Q 2147 -91 1806 -91 
Q 1078 -91 686 257 
Q 294 606 294 1247 
Q 294 1794 489 2264 
Q 684 2734 1063 3103 
Q 1306 3334 1642 3459 
Q 1978 3584 2356 3584 
Q 2950 3584 3301 3228 
Q 3653 2872 3653 2272 
Q 3653 2128 3634 1964 
Q 3616 1800 3578 1613 
z
" transform="scale(0.015625)"/>
      </defs>
      <use xlink:href="#DejaVuSans-Oblique-65" transform="translate(0 0.78125)"/>
      <use xlink:href="#DejaVuSans-3d" transform="translate(81.005859 0.78125)"/>
      <use xlink:href="#DejaVuSans-30" transform="translate(184.277344 0.78125)"/>
     </g>
    </g>
    <g id="PathCollection_4">
     <g>
      <use xlink:href="#m09d296be9f" x="114.316615" y="66.136106" style="fill: #ff0000; fill-opacity: 0.8; stroke: #ff0000; stroke-opacity: 0.8; stroke-width: 1.5"/>
     </g>
    </g>
    <g id="text_17">
     <!-- $e=0.866$ -->
     <g transform="translate(144.016615 70.467356) scale(0.165 -0.165)">
      <defs>
       <path id="DejaVuSans-38" d="M 2034 2216 
Q 1584 2216 1326 1975 
Q 1069 1734 1069 1313 
Q 1069 891 1326 650 
Q 1584 409 2034 409 
Q 2484 409 2743 651 
Q 3003 894 3003 1313 
Q 3003 1734 2745 1975 
Q 2488 2216 2034 2216 
z
M 1403 2484 
Q 997 2584 770 2862 
Q 544 3141 544 3541 
Q 544 4100 942 4425 
Q 1341 4750 2034 4750 
Q 2731 4750 3128 4425 
Q 3525 4100 3525 3541 
Q 3525 3141 3298 2862 
Q 3072 2584 2669 2484 
Q 3125 2378 3379 2068 
Q 3634 1759 3634 1313 
Q 3634 634 3220 271 
Q 2806 -91 2034 -91 
Q 1263 -91 848 271 
Q 434 634 434 1313 
Q 434 1759 690 2068 
Q 947 2378 1403 2484 
z
M 1172 3481 
Q 1172 3119 1398 2916 
Q 1625 2713 2034 2713 
Q 2441 2713 2670 2916 
Q 2900 3119 2900 3481 
Q 2900 3844 2670 4047 
Q 2441 4250 2034 4250 
Q 1625 4250 1398 4047 
Q 1172 3844 1172 3481 
z
" transform="scale(0.015625)"/>
       <path id="DejaVuSans-36" d="M 2113 2584 
Q 1688 2584 1439 2293 
Q 1191 2003 1191 1497 
Q 1191 994 1439 701 
Q 1688 409 2113 409 
Q 2538 409 2786 701 
Q 3034 994 3034 1497 
Q 3034 2003 2786 2293 
Q 2538 2584 2113 2584 
z
M 3366 4563 
L 3366 3988 
Q 3128 4100 2886 4159 
Q 2644 4219 2406 4219 
Q 1781 4219 1451 3797 
Q 1122 3375 1075 2522 
Q 1259 2794 1537 2939 
Q 1816 3084 2150 3084 
Q 2853 3084 3261 2657 
Q 3669 2231 3669 1497 
Q 3669 778 3244 343 
Q 2819 -91 2113 -91 
Q 1303 -91 875 529 
Q 447 1150 447 2328 
Q 447 3434 972 4092 
Q 1497 4750 2381 4750 
Q 2619 4750 2861 4703 
Q 3103 4656 3366 4563 
z
" transform="scale(0.015625)"/>
      </defs>
      <use xlink:href="#DejaVuSans-Oblique-65" transform="translate(0 0.78125)"/>
      <use xlink:href="#DejaVuSans-3d" transform="translate(81.005859 0.78125)"/>
      <use xlink:href="#DejaVuSans-30" transform="translate(184.277344 0.78125)"/>
      <use xlink:href="#DejaVuSans-2e" transform="translate(247.900391 0.78125)"/>
      <use xlink:href="#DejaVuSans-38" transform="translate(277.0625 0.78125)"/>
      <use xlink:href="#DejaVuSans-36" transform="translate(340.685547 0.78125)"/>
      <use xlink:href="#DejaVuSans-36" transform="translate(404.308594 0.78125)"/>
     </g>
    </g>
   </g>
  </g>
  <g id="axes_2">
   <g id="patch_7">
    <path d="M 660.72 356.96 
L 1119.655407 356.96 
L 1119.655407 25.44 
L 660.72 25.44 
z
" style="fill: #ffffff"/>
   </g>
   <g id="PathCollection_5">
    <g clip-path="url(#p72f91e3319)">
     <use xlink:href="#m6c0e3f6e9f" x="685.224491" y="290.747168" style="fill: #0000ff; fill-opacity: 0.8; stroke: #0000ff; stroke-opacity: 0.8; stroke-width: 1.5"/>
     <use xlink:href="#m6c0e3f6e9f" x="730.771871" y="320.692044" style="fill: #0000ff; fill-opacity: 0.8; stroke: #0000ff; stroke-opacity: 0.8; stroke-width: 1.5"/>
     <use xlink:href="#m6c0e3f6e9f" x="776.319252" y="337.520993" style="fill: #0000ff; fill-opacity: 0.8; stroke: #0000ff; stroke-opacity: 0.8; stroke-width: 1.5"/>
     <use xlink:href="#m6c0e3f6e9f" x="821.866633" y="342.63459" style="fill: #0000ff; fill-opacity: 0.8; stroke: #0000ff; stroke-opacity: 0.8; stroke-width: 1.5"/>
     <use xlink:href="#m6c0e3f6e9f" x="867.414013" y="337.627245" style="fill: #0000ff; fill-opacity: 0.8; stroke: #0000ff; stroke-opacity: 0.8; stroke-width: 1.5"/>
     <use xlink:href="#m6c0e3f6e9f" x="912.961394" y="319.50255" style="fill: #0000ff; fill-opacity: 0.8; stroke: #0000ff; stroke-opacity: 0.8; stroke-width: 1.5"/>
     <use xlink:href="#m6c0e3f6e9f" x="958.508775" y="284.206278" style="fill: #0000ff; fill-opacity: 0.8; stroke: #0000ff; stroke-opacity: 0.8; stroke-width: 1.5"/>
     <use xlink:href="#m6c0e3f6e9f" x="1004.056155" y="241.868854" style="fill: #0000ff; fill-opacity: 0.8; stroke: #0000ff; stroke-opacity: 0.8; stroke-width: 1.5"/>
     <use xlink:href="#m6c0e3f6e9f" x="1049.603536" y="187.059315" style="fill: #0000ff; fill-opacity: 0.8; stroke: #0000ff; stroke-opacity: 0.8; stroke-width: 1.5"/>
     <use xlink:href="#m6c0e3f6e9f" x="1095.150916" y="116.104753" style="fill: #0000ff; fill-opacity: 0.8; stroke: #0000ff; stroke-opacity: 0.8; stroke-width: 1.5"/>
    </g>
   </g>
   <g id="PathCollection_6">
    <g clip-path="url(#p72f91e3319)">
     <use xlink:href="#m09d296be9f" x="685.224491" y="299.571236" style="fill: #ff0000; fill-opacity: 0.8; stroke: #ff0000; stroke-opacity: 0.8; stroke-width: 1.5"/>
     <use xlink:href="#m09d296be9f" x="730.771871" y="324.973691" style="fill: #ff0000; fill-opacity: 0.8; stroke: #ff0000; stroke-opacity: 0.8; stroke-width: 1.5"/>
     <use xlink:href="#m09d296be9f" x="776.319252" y="340.323929" style="fill: #ff0000; fill-opacity: 0.8; stroke: #ff0000; stroke-opacity: 0.8; stroke-width: 1.5"/>
     <use xlink:href="#m09d296be9f" x="821.866633" y="344.053794" style="fill: #ff0000; fill-opacity: 0.8; stroke: #ff0000; stroke-opacity: 0.8; stroke-width: 1.5"/>
     <use xlink:href="#m09d296be9f" x="867.414013" y="337.09131" style="fill: #ff0000; fill-opacity: 0.8; stroke: #ff0000; stroke-opacity: 0.8; stroke-width: 1.5"/>
     <use xlink:href="#m09d296be9f" x="912.961394" y="319.925238" style="fill: #ff0000; fill-opacity: 0.8; stroke: #ff0000; stroke-opacity: 0.8; stroke-width: 1.5"/>
     <use xlink:href="#m09d296be9f" x="958.508775" y="288.658592" style="fill: #ff0000; fill-opacity: 0.8; stroke: #ff0000; stroke-opacity: 0.8; stroke-width: 1.5"/>
     <use xlink:href="#m09d296be9f" x="1004.056155" y="245.633926" style="fill: #ff0000; fill-opacity: 0.8; stroke: #ff0000; stroke-opacity: 0.8; stroke-width: 1.5"/>
     <use xlink:href="#m09d296be9f" x="1049.603536" y="191.678715" style="fill: #ff0000; fill-opacity: 0.8; stroke: #ff0000; stroke-opacity: 0.8; stroke-width: 1.5"/>
     <use xlink:href="#m09d296be9f" x="1095.150916" y="127.942669" style="fill: #ff0000; fill-opacity: 0.8; stroke: #ff0000; stroke-opacity: 0.8; stroke-width: 1.5"/>
    </g>
   </g>
   <g id="matplotlib.axis_3">
    <g id="xtick_6">
     <g id="line2d_18">
      <g>
       <use xlink:href="#m79e8e772f0" x="685.224491" y="356.96" style="stroke: #000000; stroke-width: 1.875"/>
      </g>
     </g>
     <g id="text_18">
      <!-- -0.06 -->
      <g transform="translate(666.422225 381.270391) scale(0.165 -0.165)">
       <use xlink:href="#ArialMT-2d"/>
       <use xlink:href="#ArialMT-30" x="33.300781"/>
       <use xlink:href="#ArialMT-2e" x="88.916016"/>
       <use xlink:href="#ArialMT-30" x="116.699219"/>
       <use xlink:href="#ArialMT-36" x="172.314453"/>
      </g>
     </g>
    </g>
    <g id="xtick_7">
     <g id="line2d_19">
      <g>
       <use xlink:href="#m79e8e772f0" x="776.319252" y="356.96" style="stroke: #000000; stroke-width: 1.875"/>
      </g>
     </g>
     <g id="text_19">
      <!-- -0.04 -->
      <g transform="translate(757.516986 381.270391) scale(0.165 -0.165)">
       <use xlink:href="#ArialMT-2d"/>
       <use xlink:href="#ArialMT-30" x="33.300781"/>
       <use xlink:href="#ArialMT-2e" x="88.916016"/>
       <use xlink:href="#ArialMT-30" x="116.699219"/>
       <use xlink:href="#ArialMT-34" x="172.314453"/>
      </g>
     </g>
    </g>
    <g id="xtick_8">
     <g id="line2d_20">
      <g>
       <use xlink:href="#m79e8e772f0" x="867.414013" y="356.96" style="stroke: #000000; stroke-width: 1.875"/>
      </g>
     </g>
     <g id="text_20">
      <!-- -0.02 -->
      <g transform="translate(848.611748 381.270391) scale(0.165 -0.165)">
       <use xlink:href="#ArialMT-2d"/>
       <use xlink:href="#ArialMT-30" x="33.300781"/>
       <use xlink:href="#ArialMT-2e" x="88.916016"/>
       <use xlink:href="#ArialMT-30" x="116.699219"/>
       <use xlink:href="#ArialMT-32" x="172.314453"/>
      </g>
     </g>
    </g>
    <g id="xtick_9">
     <g id="line2d_21">
      <g>
       <use xlink:href="#m79e8e772f0" x="958.508775" y="356.96" style="stroke: #000000; stroke-width: 1.875"/>
      </g>
     </g>
     <g id="text_21">
      <!-- 0.00 -->
      <g transform="translate(942.453501 381.270391) scale(0.165 -0.165)">
       <use xlink:href="#ArialMT-30"/>
       <use xlink:href="#ArialMT-2e" x="55.615234"/>
       <use xlink:href="#ArialMT-30" x="83.398438"/>
       <use xlink:href="#ArialMT-30" x="139.013672"/>
      </g>
     </g>
    </g>
    <g id="xtick_10">
     <g id="line2d_22">
      <g>
       <use xlink:href="#m79e8e772f0" x="1049.603536" y="356.96" style="stroke: #000000; stroke-width: 1.875"/>
      </g>
     </g>
     <g id="text_22">
      <!-- 0.02 -->
      <g transform="translate(1033.548262 381.270391) scale(0.165 -0.165)">
       <use xlink:href="#ArialMT-30"/>
       <use xlink:href="#ArialMT-2e" x="55.615234"/>
       <use xlink:href="#ArialMT-30" x="83.398438"/>
       <use xlink:href="#ArialMT-32" x="139.013672"/>
      </g>
     </g>
    </g>
    <g id="text_23">
     <!-- Spontaneous Curvature at Attachment (nm$^{-1}$) -->
     <g transform="translate(706.407704 404.749766) scale(0.18 -0.18)">
      <use xlink:href="#ArialMT-53" transform="translate(0 0.684375)"/>
      <use xlink:href="#ArialMT-70" transform="translate(66.699219 0.684375)"/>
      <use xlink:href="#ArialMT-6f" transform="translate(122.314453 0.684375)"/>
      <use xlink:href="#ArialMT-6e" transform="translate(177.929688 0.684375)"/>
      <use xlink:href="#ArialMT-74" transform="translate(233.544922 0.684375)"/>
      <use xlink:href="#ArialMT-61" transform="translate(261.328125 0.684375)"/>
      <use xlink:href="#ArialMT-6e" transform="translate(316.943359 0.684375)"/>
      <use xlink:href="#ArialMT-65" transform="translate(372.558594 0.684375)"/>
      <use xlink:href="#ArialMT-6f" transform="translate(428.173828 0.684375)"/>
      <use xlink:href="#ArialMT-75" transform="translate(483.789062 0.684375)"/>
      <use xlink:href="#ArialMT-73" transform="translate(539.404297 0.684375)"/>
      <use xlink:href="#ArialMT-20" transform="translate(589.404297 0.684375)"/>
      <use xlink:href="#ArialMT-43" transform="translate(617.1875 0.684375)"/>
      <use xlink:href="#ArialMT-75" transform="translate(689.404297 0.684375)"/>
      <use xlink:href="#ArialMT-72" transform="translate(745.019531 0.684375)"/>
      <use xlink:href="#ArialMT-76" transform="translate(778.320312 0.684375)"/>
      <use xlink:href="#ArialMT-61" transform="translate(828.320312 0.684375)"/>
      <use xlink:href="#ArialMT-74" transform="translate(883.935547 0.684375)"/>
      <use xlink:href="#ArialMT-75" transform="translate(911.71875 0.684375)"/>
      <use xlink:href="#ArialMT-72" transform="translate(967.333984 0.684375)"/>
      <use xlink:href="#ArialMT-65" transform="translate(1000.634766 0.684375)"/>
      <use xlink:href="#ArialMT-20" transform="translate(1056.25 0.684375)"/>
      <use xlink:href="#ArialMT-61" transform="translate(1084.033203 0.684375)"/>
      <use xlink:href="#ArialMT-74" transform="translate(1139.648438 0.684375)"/>
      <use xlink:href="#ArialMT-20" transform="translate(1167.431641 0.684375)"/>
      <use xlink:href="#ArialMT-41" transform="translate(1195.214844 0.684375)"/>
      <use xlink:href="#ArialMT-74" transform="translate(1261.914062 0.684375)"/>
      <use xlink:href="#ArialMT-74" transform="translate(1289.697266 0.684375)"/>
      <use xlink:href="#ArialMT-61" transform="translate(1317.480469 0.684375)"/>
      <use xlink:href="#ArialMT-63" transform="translate(1373.095703 0.684375)"/>
      <use xlink:href="#ArialMT-68" transform="translate(1423.095703 0.684375)"/>
      <use xlink:href="#ArialMT-6d" transform="translate(1478.710938 0.684375)"/>
      <use xlink:href="#ArialMT-65" transform="translate(1562.011719 0.684375)"/>
      <use xlink:href="#ArialMT-6e" transform="translate(1617.626953 0.684375)"/>
      <use xlink:href="#ArialMT-74" transform="translate(1673.242188 0.684375)"/>
      <use xlink:href="#ArialMT-20" transform="translate(1701.025391 0.684375)"/>
      <use xlink:href="#ArialMT-28" transform="translate(1728.808594 0.684375)"/>
      <use xlink:href="#ArialMT-6e" transform="translate(1762.109375 0.684375)"/>
      <use xlink:href="#ArialMT-6d" transform="translate(1817.724609 0.684375)"/>
      <use xlink:href="#DejaVuSans-2212" transform="translate(1901.982422 38.965625) scale(0.7)"/>
      <use xlink:href="#DejaVuSans-31" transform="translate(1960.634766 38.965625) scale(0.7)"/>
      <use xlink:href="#ArialMT-29" transform="translate(2007.905273 0.684375)"/>
     </g>
    </g>
   </g>
   <g id="matplotlib.axis_4">
    <g id="ytick_7">
     <g id="line2d_23">
      <g>
       <use xlink:href="#m09163b63b3" x="660.72" y="356.96" style="stroke: #000000; stroke-width: 1.875"/>
      </g>
     </g>
     <g id="text_24">
      <!-- 0 -->
      <g transform="translate(639.044453 362.865195) scale(0.165 -0.165)">
       <use xlink:href="#ArialMT-30"/>
      </g>
     </g>
    </g>
    <g id="ytick_8">
     <g id="line2d_24">
      <g>
       <use xlink:href="#m09163b63b3" x="660.72" y="290.656" style="stroke: #000000; stroke-width: 1.875"/>
      </g>
     </g>
     <g id="text_25">
      <!-- 200 -->
      <g transform="translate(620.693359 296.561195) scale(0.165 -0.165)">
       <use xlink:href="#ArialMT-32"/>
       <use xlink:href="#ArialMT-30" x="55.615234"/>
       <use xlink:href="#ArialMT-30" x="111.230469"/>
      </g>
     </g>
    </g>
    <g id="ytick_9">
     <g id="line2d_25">
      <g>
       <use xlink:href="#m09163b63b3" x="660.72" y="224.352" style="stroke: #000000; stroke-width: 1.875"/>
      </g>
     </g>
     <g id="text_26">
      <!-- 400 -->
      <g transform="translate(620.693359 230.257195) scale(0.165 -0.165)">
       <use xlink:href="#ArialMT-34"/>
       <use xlink:href="#ArialMT-30" x="55.615234"/>
       <use xlink:href="#ArialMT-30" x="111.230469"/>
      </g>
     </g>
    </g>
    <g id="ytick_10">
     <g id="line2d_26">
      <g>
       <use xlink:href="#m09163b63b3" x="660.72" y="158.048" style="stroke: #000000; stroke-width: 1.875"/>
      </g>
     </g>
     <g id="text_27">
      <!-- 600 -->
      <g transform="translate(620.693359 163.953195) scale(0.165 -0.165)">
       <use xlink:href="#ArialMT-36"/>
       <use xlink:href="#ArialMT-30" x="55.615234"/>
       <use xlink:href="#ArialMT-30" x="111.230469"/>
      </g>
     </g>
    </g>
    <g id="ytick_11">
     <g id="line2d_27">
      <g>
       <use xlink:href="#m09163b63b3" x="660.72" y="91.744" style="stroke: #000000; stroke-width: 1.875"/>
      </g>
     </g>
     <g id="text_28">
      <!-- 800 -->
      <g transform="translate(620.693359 97.649195) scale(0.165 -0.165)">
       <use xlink:href="#ArialMT-38"/>
       <use xlink:href="#ArialMT-30" x="55.615234"/>
       <use xlink:href="#ArialMT-30" x="111.230469"/>
      </g>
     </g>
    </g>
    <g id="ytick_12">
     <g id="line2d_28">
      <g>
       <use xlink:href="#m09163b63b3" x="660.72" y="25.44" style="stroke: #000000; stroke-width: 1.875"/>
      </g>
     </g>
     <g id="text_29">
      <!-- 1000 -->
      <g transform="translate(611.517812 31.345195) scale(0.165 -0.165)">
       <use xlink:href="#ArialMT-31"/>
       <use xlink:href="#ArialMT-30" x="55.615234"/>
       <use xlink:href="#ArialMT-30" x="111.230469"/>
       <use xlink:href="#ArialMT-30" x="166.845703"/>
      </g>
     </g>
    </g>
    <g id="text_30">
     <!-- Minimum Total Energy (pN$\cdot$nm) -->
     <g transform="translate(603.557812 316.66) rotate(-90) scale(0.18 -0.18)">
      <defs>
       <path id="ArialMT-54" d="M 1659 0 
L 1659 4041 
L 150 4041 
L 150 4581 
L 3781 4581 
L 3781 4041 
L 2266 4041 
L 2266 0 
L 1659 0 
z
" transform="scale(0.015625)"/>
      </defs>
      <use xlink:href="#ArialMT-4d" transform="translate(0 0.203125)"/>
      <use xlink:href="#ArialMT-69" transform="translate(83.300781 0.203125)"/>
      <use xlink:href="#ArialMT-6e" transform="translate(105.517578 0.203125)"/>
      <use xlink:href="#ArialMT-69" transform="translate(161.132812 0.203125)"/>
      <use xlink:href="#ArialMT-6d" transform="translate(183.349609 0.203125)"/>
      <use xlink:href="#ArialMT-75" transform="translate(266.650391 0.203125)"/>
      <use xlink:href="#ArialMT-6d" transform="translate(322.265625 0.203125)"/>
      <use xlink:href="#ArialMT-20" transform="translate(405.566406 0.203125)"/>
      <use xlink:href="#ArialMT-54" transform="translate(433.349609 0.203125)"/>
      <use xlink:href="#ArialMT-6f" transform="translate(494.433594 0.203125)"/>
      <use xlink:href="#ArialMT-74" transform="translate(550.048828 0.203125)"/>
      <use xlink:href="#ArialMT-61" transform="translate(577.832031 0.203125)"/>
      <use xlink:href="#ArialMT-6c" transform="translate(633.447266 0.203125)"/>
      <use xlink:href="#ArialMT-20" transform="translate(655.664062 0.203125)"/>
      <use xlink:href="#ArialMT-45" transform="translate(683.447266 0.203125)"/>
      <use xlink:href="#ArialMT-6e" transform="translate(750.146484 0.203125)"/>
      <use xlink:href="#ArialMT-65" transform="translate(805.761719 0.203125)"/>
      <use xlink:href="#ArialMT-72" transform="translate(861.376953 0.203125)"/>
      <use xlink:href="#ArialMT-67" transform="translate(894.677734 0.203125)"/>
      <use xlink:href="#ArialMT-79" transform="translate(950.292969 0.203125)"/>
      <use xlink:href="#ArialMT-20" transform="translate(1000.292969 0.203125)"/>
      <use xlink:href="#ArialMT-28" transform="translate(1028.076172 0.203125)"/>
      <use xlink:href="#ArialMT-70" transform="translate(1061.376953 0.203125)"/>
      <use xlink:href="#ArialMT-4e" transform="translate(1116.992188 0.203125)"/>
      <use xlink:href="#DejaVuSans-22c5" transform="translate(1189.208984 0.203125)"/>
      <use xlink:href="#ArialMT-6e" transform="translate(1220.996094 0.203125)"/>
      <use xlink:href="#ArialMT-6d" transform="translate(1276.611328 0.203125)"/>
      <use xlink:href="#ArialMT-29" transform="translate(1359.912109 0.203125)"/>
     </g>
    </g>
   </g>
   <g id="LineCollection_3">
    <path d="M 681.5807 290.747168 
L 681.5807 290.636109 
" clip-path="url(#p72f91e3319)" style="fill: none; stroke: #0000ff; stroke-opacity: 0.8; stroke-width: 2.25"/>
    <path d="M 727.128081 320.692044 
L 727.128081 319.805228 
" clip-path="url(#p72f91e3319)" style="fill: none; stroke: #0000ff; stroke-opacity: 0.8; stroke-width: 2.25"/>
    <path d="M 772.675462 337.520993 
L 772.675462 334.374504 
" clip-path="url(#p72f91e3319)" style="fill: none; stroke: #0000ff; stroke-opacity: 0.8; stroke-width: 2.25"/>
    <path d="M 818.222842 342.63459 
L 818.222842 336.284656 
" clip-path="url(#p72f91e3319)" style="fill: none; stroke: #0000ff; stroke-opacity: 0.8; stroke-width: 2.25"/>
    <path d="M 863.770223 337.627245 
L 863.770223 325.241294 
" clip-path="url(#p72f91e3319)" style="fill: none; stroke: #0000ff; stroke-opacity: 0.8; stroke-width: 2.25"/>
    <path d="M 909.317603 319.50255 
L 909.317603 301.771203 
" clip-path="url(#p72f91e3319)" style="fill: none; stroke: #0000ff; stroke-opacity: 0.8; stroke-width: 2.25"/>
    <path d="M 954.864984 284.206278 
L 954.864984 261.247192 
" clip-path="url(#p72f91e3319)" style="fill: none; stroke: #0000ff; stroke-opacity: 0.8; stroke-width: 2.25"/>
    <path d="M 1000.412365 241.868854 
L 1000.412365 209.81518 
" clip-path="url(#p72f91e3319)" style="fill: none; stroke: #0000ff; stroke-opacity: 0.8; stroke-width: 2.25"/>
    <path d="M 1045.959745 187.059315 
L 1045.959745 143.892759 
" clip-path="url(#p72f91e3319)" style="fill: none; stroke: #0000ff; stroke-opacity: 0.8; stroke-width: 2.25"/>
    <path d="M 1091.507126 116.104753 
L 1091.507126 63.343345 
" clip-path="url(#p72f91e3319)" style="fill: none; stroke: #0000ff; stroke-opacity: 0.8; stroke-width: 2.25"/>
   </g>
   <g id="line2d_29">
    <g clip-path="url(#p72f91e3319)">
     <use xlink:href="#m3d60ab4403" x="681.5807" y="290.636109" style="fill: #0000ff; fill-opacity: 0.8; stroke: #0000ff; stroke-opacity: 0.8; stroke-width: 2"/>
     <use xlink:href="#m3d60ab4403" x="727.128081" y="319.805228" style="fill: #0000ff; fill-opacity: 0.8; stroke: #0000ff; stroke-opacity: 0.8; stroke-width: 2"/>
     <use xlink:href="#m3d60ab4403" x="772.675462" y="334.374504" style="fill: #0000ff; fill-opacity: 0.8; stroke: #0000ff; stroke-opacity: 0.8; stroke-width: 2"/>
     <use xlink:href="#m3d60ab4403" x="818.222842" y="336.284656" style="fill: #0000ff; fill-opacity: 0.8; stroke: #0000ff; stroke-opacity: 0.8; stroke-width: 2"/>
     <use xlink:href="#m3d60ab4403" x="863.770223" y="325.241294" style="fill: #0000ff; fill-opacity: 0.8; stroke: #0000ff; stroke-opacity: 0.8; stroke-width: 2"/>
     <use xlink:href="#m3d60ab4403" x="909.317603" y="301.771203" style="fill: #0000ff; fill-opacity: 0.8; stroke: #0000ff; stroke-opacity: 0.8; stroke-width: 2"/>
     <use xlink:href="#m3d60ab4403" x="954.864984" y="261.247192" style="fill: #0000ff; fill-opacity: 0.8; stroke: #0000ff; stroke-opacity: 0.8; stroke-width: 2"/>
     <use xlink:href="#m3d60ab4403" x="1000.412365" y="209.81518" style="fill: #0000ff; fill-opacity: 0.8; stroke: #0000ff; stroke-opacity: 0.8; stroke-width: 2"/>
     <use xlink:href="#m3d60ab4403" x="1045.959745" y="143.892759" style="fill: #0000ff; fill-opacity: 0.8; stroke: #0000ff; stroke-opacity: 0.8; stroke-width: 2"/>
     <use xlink:href="#m3d60ab4403" x="1091.507126" y="63.343345" style="fill: #0000ff; fill-opacity: 0.8; stroke: #0000ff; stroke-opacity: 0.8; stroke-width: 2"/>
    </g>
   </g>
   <g id="line2d_30"/>
   <g id="LineCollection_4">
    <path d="M 688.868281 299.571236 
L 688.868281 240.852082 
" clip-path="url(#p72f91e3319)" style="fill: none; stroke: #ff0000; stroke-opacity: 0.8; stroke-width: 2.25"/>
    <path d="M 734.415662 324.973691 
L 734.415662 278.602596 
" clip-path="url(#p72f91e3319)" style="fill: none; stroke: #ff0000; stroke-opacity: 0.8; stroke-width: 2.25"/>
    <path d="M 779.963042 340.323929 
L 779.963042 291.346225 
" clip-path="url(#p72f91e3319)" style="fill: none; stroke: #ff0000; stroke-opacity: 0.8; stroke-width: 2.25"/>
    <path d="M 825.510423 344.053794 
L 825.510423 286.774232 
" clip-path="url(#p72f91e3319)" style="fill: none; stroke: #ff0000; stroke-opacity: 0.8; stroke-width: 2.25"/>
    <path d="M 871.057804 337.09131 
L 871.057804 277.532118 
" clip-path="url(#p72f91e3319)" style="fill: none; stroke: #ff0000; stroke-opacity: 0.8; stroke-width: 2.25"/>
    <path d="M 916.605184 319.925238 
L 916.605184 252.477825 
" clip-path="url(#p72f91e3319)" style="fill: none; stroke: #ff0000; stroke-opacity: 0.8; stroke-width: 2.25"/>
    <path d="M 962.152565 288.658592 
L 962.152565 216.619959 
" clip-path="url(#p72f91e3319)" style="fill: none; stroke: #ff0000; stroke-opacity: 0.8; stroke-width: 2.25"/>
    <path d="M 1007.699946 245.633926 
L 1007.699946 166.141398 
" clip-path="url(#p72f91e3319)" style="fill: none; stroke: #ff0000; stroke-opacity: 0.8; stroke-width: 2.25"/>
    <path d="M 1053.247326 191.678715 
L 1053.247326 110.417527 
" clip-path="url(#p72f91e3319)" style="fill: none; stroke: #ff0000; stroke-opacity: 0.8; stroke-width: 2.25"/>
    <path d="M 1098.794707 127.942669 
L 1098.794707 30.329257 
" clip-path="url(#p72f91e3319)" style="fill: none; stroke: #ff0000; stroke-opacity: 0.8; stroke-width: 2.25"/>
   </g>
   <g id="line2d_31">
    <g clip-path="url(#p72f91e3319)">
     <use xlink:href="#ma7d3da6eea" x="688.868281" y="240.852082" style="fill: #ff0000; fill-opacity: 0.8; stroke: #ff0000; stroke-opacity: 0.8; stroke-width: 2"/>
     <use xlink:href="#ma7d3da6eea" x="734.415662" y="278.602596" style="fill: #ff0000; fill-opacity: 0.8; stroke: #ff0000; stroke-opacity: 0.8; stroke-width: 2"/>
     <use xlink:href="#ma7d3da6eea" x="779.963042" y="291.346225" style="fill: #ff0000; fill-opacity: 0.8; stroke: #ff0000; stroke-opacity: 0.8; stroke-width: 2"/>
     <use xlink:href="#ma7d3da6eea" x="825.510423" y="286.774232" style="fill: #ff0000; fill-opacity: 0.8; stroke: #ff0000; stroke-opacity: 0.8; stroke-width: 2"/>
     <use xlink:href="#ma7d3da6eea" x="871.057804" y="277.532118" style="fill: #ff0000; fill-opacity: 0.8; stroke: #ff0000; stroke-opacity: 0.8; stroke-width: 2"/>
     <use xlink:href="#ma7d3da6eea" x="916.605184" y="252.477825" style="fill: #ff0000; fill-opacity: 0.8; stroke: #ff0000; stroke-opacity: 0.8; stroke-width: 2"/>
     <use xlink:href="#ma7d3da6eea" x="962.152565" y="216.619959" style="fill: #ff0000; fill-opacity: 0.8; stroke: #ff0000; stroke-opacity: 0.8; stroke-width: 2"/>
     <use xlink:href="#ma7d3da6eea" x="1007.699946" y="166.141398" style="fill: #ff0000; fill-opacity: 0.8; stroke: #ff0000; stroke-opacity: 0.8; stroke-width: 2"/>
     <use xlink:href="#ma7d3da6eea" x="1053.247326" y="110.417527" style="fill: #ff0000; fill-opacity: 0.8; stroke: #ff0000; stroke-opacity: 0.8; stroke-width: 2"/>
     <use xlink:href="#ma7d3da6eea" x="1098.794707" y="30.329257" style="fill: #ff0000; fill-opacity: 0.8; stroke: #ff0000; stroke-opacity: 0.8; stroke-width: 2"/>
    </g>
   </g>
   <g id="line2d_32"/>
   <g id="line2d_33">
    <path d="M 660.72 287.471068 
L 1119.655407 287.471068 
" clip-path="url(#p72f91e3319)" style="fill: none; stroke-dasharray: 5.55,2.4; stroke-dashoffset: 0; stroke: #000000; stroke-width: 1.5"/>
   </g>
   <g id="line2d_34">
    <path d="M 804.110874 356.96 
L 804.110874 25.44 
" clip-path="url(#p72f91e3319)" style="fill: none; stroke-dasharray: 5.55,2.4; stroke-dashoffset: 0; stroke: #000000; stroke-width: 1.5"/>
   </g>
   <g id="patch_8">
    <path d="M 660.72 356.96 
L 660.72 25.44 
" style="fill: none; stroke: #000000; stroke-width: 1.875; stroke-linejoin: miter; stroke-linecap: square"/>
   </g>
   <g id="patch_9">
    <path d="M 1119.655407 356.96 
L 1119.655407 25.44 
" style="fill: none; stroke: #000000; stroke-width: 1.875; stroke-linejoin: miter; stroke-linecap: square"/>
   </g>
   <g id="patch_10">
    <path d="M 660.72 356.96 
L 1119.655407 356.96 
" style="fill: none; stroke: #000000; stroke-width: 1.875; stroke-linejoin: miter; stroke-linecap: square"/>
   </g>
   <g id="patch_11">
    <path d="M 660.72 25.44 
L 1119.655407 25.44 
" style="fill: none; stroke: #000000; stroke-width: 1.875; stroke-linejoin: miter; stroke-linecap: square"/>
   </g>
   <g id="text_31">
    <!-- theoretical min $E_B$ -->
    <g transform="translate(972.172989 303.670331) scale(0.18 -0.18)">
     <use xlink:href="#ArialMT-74" transform="translate(0 0.09375)"/>
     <use xlink:href="#ArialMT-68" transform="translate(27.783203 0.09375)"/>
     <use xlink:href="#ArialMT-65" transform="translate(83.398438 0.09375)"/>
     <use xlink:href="#ArialMT-6f" transform="translate(139.013672 0.09375)"/>
     <use xlink:href="#ArialMT-72" transform="translate(194.628906 0.09375)"/>
     <use xlink:href="#ArialMT-65" transform="translate(227.929688 0.09375)"/>
     <use xlink:href="#ArialMT-74" transform="translate(283.544922 0.09375)"/>
     <use xlink:href="#ArialMT-69" transform="translate(311.328125 0.09375)"/>
     <use xlink:href="#ArialMT-63" transform="translate(333.544922 0.09375)"/>
     <use xlink:href="#ArialMT-61" transform="translate(383.544922 0.09375)"/>
     <use xlink:href="#ArialMT-6c" transform="translate(439.160156 0.09375)"/>
     <use xlink:href="#ArialMT-20" transform="translate(461.376953 0.09375)"/>
     <use xlink:href="#ArialMT-6d" transform="translate(489.160156 0.09375)"/>
     <use xlink:href="#ArialMT-69" transform="translate(572.460938 0.09375)"/>
     <use xlink:href="#ArialMT-6e" transform="translate(594.677734 0.09375)"/>
     <use xlink:href="#ArialMT-20" transform="translate(650.292969 0.09375)"/>
     <use xlink:href="#DejaVuSans-Oblique-45" transform="translate(678.076172 0.09375)"/>
     <use xlink:href="#DejaVuSans-Oblique-42" transform="translate(741.259766 -16.3125) scale(0.7)"/>
    </g>
    <!-- at $C_0 = 0$ -->
    <g transform="translate(972.172989 323.042831) scale(0.18 -0.18)">
     <use xlink:href="#ArialMT-61" transform="translate(0 0.78125)"/>
     <use xlink:href="#ArialMT-74" transform="translate(55.615234 0.78125)"/>
     <use xlink:href="#ArialMT-20" transform="translate(83.398438 0.78125)"/>
     <use xlink:href="#DejaVuSans-Oblique-43" transform="translate(111.181641 0.78125)"/>
     <use xlink:href="#DejaVuSans-30" transform="translate(181.005859 -15.625) scale(0.7)"/>
     <use xlink:href="#DejaVuSans-3d" transform="translate(247.758789 0.78125)"/>
     <use xlink:href="#DejaVuSans-30" transform="translate(351.030273 0.78125)"/>
    </g>
   </g>
   <g id="text_32">
    <!-- $C_0=-0.034$ nm$^{-1}$ -->
    <g transform="translate(808.665612 107.6065) scale(0.18 -0.18)">
     <use xlink:href="#DejaVuSans-Oblique-43" transform="translate(0 0.684375)"/>
     <use xlink:href="#DejaVuSans-30" transform="translate(69.824219 -15.721875) scale(0.7)"/>
     <use xlink:href="#DejaVuSans-3d" transform="translate(136.577148 0.684375)"/>
     <use xlink:href="#DejaVuSans-2212" transform="translate(259.331055 0.684375)"/>
     <use xlink:href="#DejaVuSans-30" transform="translate(362.602539 0.684375)"/>
     <use xlink:href="#DejaVuSans-2e" transform="translate(426.225586 0.684375)"/>
     <use xlink:href="#DejaVuSans-30" transform="translate(458.012695 0.684375)"/>
     <use xlink:href="#DejaVuSans-33" transform="translate(521.635742 0.684375)"/>
     <use xlink:href="#DejaVuSans-34" transform="translate(585.258789 0.684375)"/>
     <use xlink:href="#ArialMT-20" transform="translate(648.881836 0.684375)"/>
     <use xlink:href="#ArialMT-6e" transform="translate(676.665039 0.684375)"/>
     <use xlink:href="#ArialMT-6d" transform="translate(732.280273 0.684375)"/>
     <use xlink:href="#DejaVuSans-2212" transform="translate(816.538086 38.965625) scale(0.7)"/>
     <use xlink:href="#DejaVuSans-31" transform="translate(875.19043 38.965625) scale(0.7)"/>
    </g>
    <!-- at the perfect wrapped shape -->
    <g transform="translate(808.665612 126.908125) scale(0.18 -0.18)">
     <use xlink:href="#ArialMT-61"/>
     <use xlink:href="#ArialMT-74" x="55.615234"/>
     <use xlink:href="#ArialMT-20" x="83.398438"/>
     <use xlink:href="#ArialMT-74" x="111.181641"/>
     <use xlink:href="#ArialMT-68" x="138.964844"/>
     <use xlink:href="#ArialMT-65" x="194.580078"/>
     <use xlink:href="#ArialMT-20" x="250.195312"/>
     <use xlink:href="#ArialMT-70" x="277.978516"/>
     <use xlink:href="#ArialMT-65" x="333.59375"/>
     <use xlink:href="#ArialMT-72" x="389.208984"/>
     <use xlink:href="#ArialMT-66" x="422.509766"/>
     <use xlink:href="#ArialMT-65" x="450.292969"/>
     <use xlink:href="#ArialMT-63" x="505.908203"/>
     <use xlink:href="#ArialMT-74" x="555.908203"/>
     <use xlink:href="#ArialMT-20" x="583.691406"/>
     <use xlink:href="#ArialMT-77" x="611.474609"/>
     <use xlink:href="#ArialMT-72" x="683.691406"/>
     <use xlink:href="#ArialMT-61" x="716.992188"/>
     <use xlink:href="#ArialMT-70" x="772.607422"/>
     <use xlink:href="#ArialMT-70" x="828.222656"/>
     <use xlink:href="#ArialMT-65" x="883.837891"/>
     <use xlink:href="#ArialMT-64" x="939.453125"/>
     <use xlink:href="#ArialMT-20" x="995.068359"/>
     <use xlink:href="#ArialMT-73" x="1022.851562"/>
     <use xlink:href="#ArialMT-68" x="1072.851562"/>
     <use xlink:href="#ArialMT-61" x="1128.466797"/>
     <use xlink:href="#ArialMT-70" x="1184.082031"/>
     <use xlink:href="#ArialMT-65" x="1239.697266"/>
    </g>
   </g>
   <g id="legend_2">
    <g id="PathCollection_7">
     <g>
      <use xlink:href="#m6c0e3f6e9f" x="680.596615" y="42.796341" style="fill: #0000ff; fill-opacity: 0.8; stroke: #0000ff; stroke-opacity: 0.8; stroke-width: 1.5"/>
     </g>
    </g>
    <g id="text_33">
     <!-- $e=0$ -->
     <g transform="translate(710.296615 47.127591) scale(0.165 -0.165)">
      <use xlink:href="#DejaVuSans-Oblique-65" transform="translate(0 0.78125)"/>
      <use xlink:href="#DejaVuSans-3d" transform="translate(81.005859 0.78125)"/>
      <use xlink:href="#DejaVuSans-30" transform="translate(184.277344 0.78125)"/>
     </g>
    </g>
    <g id="PathCollection_8">
     <g>
      <use xlink:href="#m09d296be9f" x="680.596615" y="66.136106" style="fill: #ff0000; fill-opacity: 0.8; stroke: #ff0000; stroke-opacity: 0.8; stroke-width: 1.5"/>
     </g>
    </g>
    <g id="text_34">
     <!-- $e=0.866$ -->
     <g transform="translate(710.296615 70.467356) scale(0.165 -0.165)">
      <use xlink:href="#DejaVuSans-Oblique-65" transform="translate(0 0.78125)"/>
      <use xlink:href="#DejaVuSans-3d" transform="translate(81.005859 0.78125)"/>
      <use xlink:href="#DejaVuSans-30" transform="translate(184.277344 0.78125)"/>
      <use xlink:href="#DejaVuSans-2e" transform="translate(247.900391 0.78125)"/>
      <use xlink:href="#DejaVuSans-38" transform="translate(277.0625 0.78125)"/>
      <use xlink:href="#DejaVuSans-36" transform="translate(340.685547 0.78125)"/>
      <use xlink:href="#DejaVuSans-36" transform="translate(404.308594 0.78125)"/>
     </g>
    </g>
   </g>
  </g>
 </g>
 <defs>
  <clipPath id="p8f2ddeca53">
   <rect x="94.44" y="25.44" width="458.935407" height="331.52"/>
  </clipPath>
  <clipPath id="p72f91e3319">
   <rect x="660.72" y="25.44" width="458.935407" height="331.52"/>
  </clipPath>
 </defs>
</svg>
