<?xml version="1.0" encoding="utf-8" standalone="no"?>
<!DOCTYPE svg PUBLIC "-//W3C//DTD SVG 1.1//EN"
  "http://www.w3.org/Graphics/SVG/1.1/DTD/svg11.dtd">
<svg xmlns:xlink="http://www.w3.org/1999/xlink" width="576pt" height="432pt" viewBox="0 0 576 432" xmlns="http://www.w3.org/2000/svg" version="1.1">
 <metadata>
  <rdf:RDF xmlns:dc="http://purl.org/dc/elements/1.1/" xmlns:cc="http://creativecommons.org/ns#" xmlns:rdf="http://www.w3.org/1999/02/22-rdf-syntax-ns#">
   <cc:Work>
    <dc:type rdf:resource="http://purl.org/dc/dcmitype/StillImage"/>
    <dc:date>2025-11-26T13:36:11.901360</dc:date>
    <dc:format>image/svg+xml</dc:format>
    <dc:creator>
     <cc:Agent>
      <dc:title>Matplotlib v3.7.0, https://matplotlib.org/</dc:title>
     </cc:Agent>
    </dc:creator>
   </cc:Work>
  </rdf:RDF>
 </metadata>
 <defs>
  <style type="text/css">*{stroke-linejoin: round; stroke-linecap: butt}</style>
 </defs>
 <g id="figure_1">
  <g id="patch_1">
   <path d="M 0 432 
L 576 432 
L 576 0 
L 0 0 
L 0 432 
z
" style="fill: none"/>
  </g>
  <g id="axes_1">
   <g id="patch_2">
    <path d="M 72.69 355.16 
L 556.56 355.16 
L 556.56 19.44 
L 72.69 19.44 
z
" style="fill: #ffffff"/>
   </g>
   <g id="PathCollection_1">
    <defs>
     <path id="m722a6b255c" d="M 0 4.5 
C 1.193414 4.5 2.338109 4.025852 3.181981 3.181981 
C 4.025852 2.338109 4.5 1.193414 4.5 0 
C 4.5 -1.193414 4.025852 -2.338109 3.181981 -3.181981 
C 2.338109 -4.025852 1.193414 -4.5 0 -4.5 
C -1.193414 -4.5 -2.338109 -4.025852 -3.181981 -3.181981 
C -4.025852 -2.338109 -4.5 -1.193414 -4.5 0 
C -4.5 1.193414 -4.025852 2.338109 -3.181981 3.181981 
C -2.338109 4.025852 -1.193414 4.5 0 4.5 
z
" style="stroke: #1f77b4; stroke-width: 1.5"/>
    </defs>
    <g clip-path="url(#p8cd229746d)">
     <use xlink:href="#m722a6b255c" x="241.311364" y="287.49334" style="fill: #1f77b4; stroke: #1f77b4; stroke-width: 1.5"/>
     <use xlink:href="#m722a6b255c" x="192.435606" y="270.794677" style="fill: #1f77b4; stroke: #1f77b4; stroke-width: 1.5"/>
     <use xlink:href="#m722a6b255c" x="290.187121" y="297.010223" style="fill: #1f77b4; stroke: #1f77b4; stroke-width: 1.5"/>
     <use xlink:href="#m722a6b255c" x="339.062879" y="310.690585" style="fill: #1f77b4; stroke: #1f77b4; stroke-width: 1.5"/>
     <use xlink:href="#m722a6b255c" x="387.938636" y="317.689751" style="fill: #1f77b4; stroke: #1f77b4; stroke-width: 1.5"/>
     <use xlink:href="#m722a6b255c" x="436.814394" y="324.407457" style="fill: #1f77b4; stroke: #1f77b4; stroke-width: 1.5"/>
     <use xlink:href="#m722a6b255c" x="143.559848" y="265.380681" style="fill: #1f77b4; stroke: #1f77b4; stroke-width: 1.5"/>
     <use xlink:href="#m722a6b255c" x="94.684091" y="265.971315" style="fill: #1f77b4; stroke: #1f77b4; stroke-width: 1.5"/>
     <use xlink:href="#m722a6b255c" x="485.690152" y="331.822251" style="fill: #1f77b4; stroke: #1f77b4; stroke-width: 1.5"/>
     <use xlink:href="#m722a6b255c" x="534.565909" y="339.9" style="fill: #1f77b4; stroke: #1f77b4; stroke-width: 1.5"/>
    </g>
   </g>
   <g id="PathCollection_2">
    <defs>
     <path id="m2293c945c0" d="M 0 4.5 
C 1.193414 4.5 2.338109 4.025852 3.181981 3.181981 
C 4.025852 2.338109 4.5 1.193414 4.5 0 
C 4.5 -1.193414 4.025852 -2.338109 3.181981 -3.181981 
C 2.338109 -4.025852 1.193414 -4.5 0 -4.5 
C -1.193414 -4.5 -2.338109 -4.025852 -3.181981 -3.181981 
C -4.025852 -2.338109 -4.5 -1.193414 -4.5 0 
C -4.5 1.193414 -4.025852 2.338109 -3.181981 3.181981 
C -2.338109 4.025852 -1.193414 4.5 0 4.5 
z
" style="stroke: #ff7f0e; stroke-width: 1.5"/>
    </defs>
    <g clip-path="url(#p8cd229746d)">
     <use xlink:href="#m2293c945c0" x="241.311364" y="82.438758" style="fill: #ff7f0e; stroke: #ff7f0e; stroke-width: 1.5"/>
     <use xlink:href="#m2293c945c0" x="192.435606" y="77.342103" style="fill: #ff7f0e; stroke: #ff7f0e; stroke-width: 1.5"/>
     <use xlink:href="#m2293c945c0" x="387.938636" y="120.735884" style="fill: #ff7f0e; stroke: #ff7f0e; stroke-width: 1.5"/>
     <use xlink:href="#m2293c945c0" x="436.814394" y="137.10841" style="fill: #ff7f0e; stroke: #ff7f0e; stroke-width: 1.5"/>
     <use xlink:href="#m2293c945c0" x="485.690152" y="146.715763" style="fill: #ff7f0e; stroke: #ff7f0e; stroke-width: 1.5"/>
     <use xlink:href="#m2293c945c0" x="534.565909" y="149.499164" style="fill: #ff7f0e; stroke: #ff7f0e; stroke-width: 1.5"/>
     <use xlink:href="#m2293c945c0" x="241.311364" y="82.438758" style="fill: #ff7f0e; stroke: #ff7f0e; stroke-width: 1.5"/>
     <use xlink:href="#m2293c945c0" x="192.435606" y="77.342103" style="fill: #ff7f0e; stroke: #ff7f0e; stroke-width: 1.5"/>
     <use xlink:href="#m2293c945c0" x="143.559848" y="73.889395" style="fill: #ff7f0e; stroke: #ff7f0e; stroke-width: 1.5"/>
     <use xlink:href="#m2293c945c0" x="94.684091" y="73.933094" style="fill: #ff7f0e; stroke: #ff7f0e; stroke-width: 1.5"/>
    </g>
   </g>
   <g id="matplotlib.axis_1">
    <g id="xtick_1">
     <g id="line2d_1">
      <defs>
       <path id="mffe9804f62" d="M 0 0 
L 0 9 
" style="stroke: #000000; stroke-width: 1.875"/>
      </defs>
      <g>
       <use xlink:href="#mffe9804f62" x="94.684091" y="355.16" style="stroke: #000000; stroke-width: 1.875"/>
      </g>
     </g>
     <g id="text_1">
      <!-- −0.06 -->
      <g transform="translate(74.442841 379.1125) scale(0.16 -0.16)">
       <defs>
        <path id="ArialMT-2212" d="M 3381 1997 
L 356 1997 
L 356 2522 
L 3381 2522 
L 3381 1997 
z
" transform="scale(0.015625)"/>
        <path id="ArialMT-30" d="M 266 2259 
Q 266 3072 433 3567 
Q 600 4063 929 4331 
Q 1259 4600 1759 4600 
Q 2128 4600 2406 4451 
Q 2684 4303 2865 4023 
Q 3047 3744 3150 3342 
Q 3253 2941 3253 2259 
Q 3253 1453 3087 958 
Q 2922 463 2592 192 
Q 2263 -78 1759 -78 
Q 1097 -78 719 397 
Q 266 969 266 2259 
z
M 844 2259 
Q 844 1131 1108 757 
Q 1372 384 1759 384 
Q 2147 384 2411 759 
Q 2675 1134 2675 2259 
Q 2675 3391 2411 3762 
Q 2147 4134 1753 4134 
Q 1366 4134 1134 3806 
Q 844 3388 844 2259 
z
" transform="scale(0.015625)"/>
        <path id="ArialMT-2e" d="M 581 0 
L 581 641 
L 1222 641 
L 1222 0 
L 581 0 
z
" transform="scale(0.015625)"/>
        <path id="ArialMT-36" d="M 3184 3459 
L 2625 3416 
Q 2550 3747 2413 3897 
Q 2184 4138 1850 4138 
Q 1581 4138 1378 3988 
Q 1113 3794 959 3422 
Q 806 3050 800 2363 
Q 1003 2672 1297 2822 
Q 1591 2972 1913 2972 
Q 2475 2972 2870 2558 
Q 3266 2144 3266 1488 
Q 3266 1056 3080 686 
Q 2894 316 2569 119 
Q 2244 -78 1831 -78 
Q 1128 -78 684 439 
Q 241 956 241 2144 
Q 241 3472 731 4075 
Q 1159 4600 1884 4600 
Q 2425 4600 2770 4297 
Q 3116 3994 3184 3459 
z
M 888 1484 
Q 888 1194 1011 928 
Q 1134 663 1356 523 
Q 1578 384 1822 384 
Q 2178 384 2434 671 
Q 2691 959 2691 1453 
Q 2691 1928 2437 2201 
Q 2184 2475 1800 2475 
Q 1419 2475 1153 2201 
Q 888 1928 888 1484 
z
" transform="scale(0.015625)"/>
       </defs>
       <use xlink:href="#ArialMT-2212"/>
       <use xlink:href="#ArialMT-30" x="58.398438"/>
       <use xlink:href="#ArialMT-2e" x="114.013672"/>
       <use xlink:href="#ArialMT-30" x="141.796875"/>
       <use xlink:href="#ArialMT-36" x="197.412109"/>
      </g>
     </g>
    </g>
    <g id="xtick_2">
     <g id="line2d_2">
      <g>
       <use xlink:href="#mffe9804f62" x="192.435606" y="355.16" style="stroke: #000000; stroke-width: 1.875"/>
      </g>
     </g>
     <g id="text_2">
      <!-- −0.04 -->
      <g transform="translate(172.194356 379.1125) scale(0.16 -0.16)">
       <defs>
        <path id="ArialMT-34" d="M 2069 0 
L 2069 1097 
L 81 1097 
L 81 1613 
L 2172 4581 
L 2631 4581 
L 2631 1613 
L 3250 1613 
L 3250 1097 
L 2631 1097 
L 2631 0 
L 2069 0 
z
M 2069 1613 
L 2069 3678 
L 634 1613 
L 2069 1613 
z
" transform="scale(0.015625)"/>
       </defs>
       <use xlink:href="#ArialMT-2212"/>
       <use xlink:href="#ArialMT-30" x="58.398438"/>
       <use xlink:href="#ArialMT-2e" x="114.013672"/>
       <use xlink:href="#ArialMT-30" x="141.796875"/>
       <use xlink:href="#ArialMT-34" x="197.412109"/>
      </g>
     </g>
    </g>
    <g id="xtick_3">
     <g id="line2d_3">
      <g>
       <use xlink:href="#mffe9804f62" x="290.187121" y="355.16" style="stroke: #000000; stroke-width: 1.875"/>
      </g>
     </g>
     <g id="text_3">
      <!-- −0.02 -->
      <g transform="translate(269.945871 379.1125) scale(0.16 -0.16)">
       <defs>
        <path id="ArialMT-32" d="M 3222 541 
L 3222 0 
L 194 0 
Q 188 203 259 391 
Q 375 700 629 1000 
Q 884 1300 1366 1694 
Q 2113 2306 2375 2664 
Q 2638 3022 2638 3341 
Q 2638 3675 2398 3904 
Q 2159 4134 1775 4134 
Q 1369 4134 1125 3890 
Q 881 3647 878 3216 
L 300 3275 
Q 359 3922 746 4261 
Q 1134 4600 1788 4600 
Q 2447 4600 2831 4234 
Q 3216 3869 3216 3328 
Q 3216 3053 3103 2787 
Q 2991 2522 2730 2228 
Q 2469 1934 1863 1422 
Q 1356 997 1212 845 
Q 1069 694 975 541 
L 3222 541 
z
" transform="scale(0.015625)"/>
       </defs>
       <use xlink:href="#ArialMT-2212"/>
       <use xlink:href="#ArialMT-30" x="58.398438"/>
       <use xlink:href="#ArialMT-2e" x="114.013672"/>
       <use xlink:href="#ArialMT-30" x="141.796875"/>
       <use xlink:href="#ArialMT-32" x="197.412109"/>
      </g>
     </g>
    </g>
    <g id="xtick_4">
     <g id="line2d_4">
      <g>
       <use xlink:href="#mffe9804f62" x="387.938636" y="355.16" style="stroke: #000000; stroke-width: 1.875"/>
      </g>
     </g>
     <g id="text_4">
      <!-- 0.00 -->
      <g transform="translate(372.369886 379.1125) scale(0.16 -0.16)">
       <use xlink:href="#ArialMT-30"/>
       <use xlink:href="#ArialMT-2e" x="55.615234"/>
       <use xlink:href="#ArialMT-30" x="83.398438"/>
       <use xlink:href="#ArialMT-30" x="139.013672"/>
      </g>
     </g>
    </g>
    <g id="xtick_5">
     <g id="line2d_5">
      <g>
       <use xlink:href="#mffe9804f62" x="485.690152" y="355.16" style="stroke: #000000; stroke-width: 1.875"/>
      </g>
     </g>
     <g id="text_5">
      <!-- 0.02 -->
      <g transform="translate(470.121402 379.1125) scale(0.16 -0.16)">
       <use xlink:href="#ArialMT-30"/>
       <use xlink:href="#ArialMT-2e" x="55.615234"/>
       <use xlink:href="#ArialMT-30" x="83.398438"/>
       <use xlink:href="#ArialMT-32" x="139.013672"/>
      </g>
     </g>
    </g>
    <g id="text_6">
     <!-- Spontaneous Curvature (nm$^{-1}$) -->
     <g transform="translate(174.925 404.2925) scale(0.2 -0.2)">
      <defs>
       <path id="ArialMT-53" d="M 288 1472 
L 859 1522 
Q 900 1178 1048 958 
Q 1197 738 1509 602 
Q 1822 466 2213 466 
Q 2559 466 2825 569 
Q 3091 672 3220 851 
Q 3350 1031 3350 1244 
Q 3350 1459 3225 1620 
Q 3100 1781 2813 1891 
Q 2628 1963 1997 2114 
Q 1366 2266 1113 2400 
Q 784 2572 623 2826 
Q 463 3081 463 3397 
Q 463 3744 659 4045 
Q 856 4347 1234 4503 
Q 1613 4659 2075 4659 
Q 2584 4659 2973 4495 
Q 3363 4331 3572 4012 
Q 3781 3694 3797 3291 
L 3216 3247 
Q 3169 3681 2898 3903 
Q 2628 4125 2100 4125 
Q 1550 4125 1298 3923 
Q 1047 3722 1047 3438 
Q 1047 3191 1225 3031 
Q 1400 2872 2139 2705 
Q 2878 2538 3153 2413 
Q 3553 2228 3743 1945 
Q 3934 1663 3934 1294 
Q 3934 928 3725 604 
Q 3516 281 3123 101 
Q 2731 -78 2241 -78 
Q 1619 -78 1198 103 
Q 778 284 539 648 
Q 300 1013 288 1472 
z
" transform="scale(0.015625)"/>
       <path id="ArialMT-70" d="M 422 -1272 
L 422 3319 
L 934 3319 
L 934 2888 
Q 1116 3141 1344 3267 
Q 1572 3394 1897 3394 
Q 2322 3394 2647 3175 
Q 2972 2956 3137 2557 
Q 3303 2159 3303 1684 
Q 3303 1175 3120 767 
Q 2938 359 2589 142 
Q 2241 -75 1856 -75 
Q 1575 -75 1351 44 
Q 1128 163 984 344 
L 984 -1272 
L 422 -1272 
z
M 931 1641 
Q 931 1000 1190 694 
Q 1450 388 1819 388 
Q 2194 388 2461 705 
Q 2728 1022 2728 1688 
Q 2728 2322 2467 2637 
Q 2206 2953 1844 2953 
Q 1484 2953 1207 2617 
Q 931 2281 931 1641 
z
" transform="scale(0.015625)"/>
       <path id="ArialMT-6f" d="M 213 1659 
Q 213 2581 725 3025 
Q 1153 3394 1769 3394 
Q 2453 3394 2887 2945 
Q 3322 2497 3322 1706 
Q 3322 1066 3130 698 
Q 2938 331 2570 128 
Q 2203 -75 1769 -75 
Q 1072 -75 642 372 
Q 213 819 213 1659 
z
M 791 1659 
Q 791 1022 1069 705 
Q 1347 388 1769 388 
Q 2188 388 2466 706 
Q 2744 1025 2744 1678 
Q 2744 2294 2464 2611 
Q 2184 2928 1769 2928 
Q 1347 2928 1069 2612 
Q 791 2297 791 1659 
z
" transform="scale(0.015625)"/>
       <path id="ArialMT-6e" d="M 422 0 
L 422 3319 
L 928 3319 
L 928 2847 
Q 1294 3394 1984 3394 
Q 2284 3394 2536 3286 
Q 2788 3178 2913 3003 
Q 3038 2828 3088 2588 
Q 3119 2431 3119 2041 
L 3119 0 
L 2556 0 
L 2556 2019 
Q 2556 2363 2490 2533 
Q 2425 2703 2258 2804 
Q 2091 2906 1866 2906 
Q 1506 2906 1245 2678 
Q 984 2450 984 1813 
L 984 0 
L 422 0 
z
" transform="scale(0.015625)"/>
       <path id="ArialMT-74" d="M 1650 503 
L 1731 6 
Q 1494 -44 1306 -44 
Q 1000 -44 831 53 
Q 663 150 594 308 
Q 525 466 525 972 
L 525 2881 
L 113 2881 
L 113 3319 
L 525 3319 
L 525 4141 
L 1084 4478 
L 1084 3319 
L 1650 3319 
L 1650 2881 
L 1084 2881 
L 1084 941 
Q 1084 700 1114 631 
Q 1144 563 1211 522 
Q 1278 481 1403 481 
Q 1497 481 1650 503 
z
" transform="scale(0.015625)"/>
       <path id="ArialMT-61" d="M 2588 409 
Q 2275 144 1986 34 
Q 1697 -75 1366 -75 
Q 819 -75 525 192 
Q 231 459 231 875 
Q 231 1119 342 1320 
Q 453 1522 633 1644 
Q 813 1766 1038 1828 
Q 1203 1872 1538 1913 
Q 2219 1994 2541 2106 
Q 2544 2222 2544 2253 
Q 2544 2597 2384 2738 
Q 2169 2928 1744 2928 
Q 1347 2928 1158 2789 
Q 969 2650 878 2297 
L 328 2372 
Q 403 2725 575 2942 
Q 747 3159 1072 3276 
Q 1397 3394 1825 3394 
Q 2250 3394 2515 3294 
Q 2781 3194 2906 3042 
Q 3031 2891 3081 2659 
Q 3109 2516 3109 2141 
L 3109 1391 
Q 3109 606 3145 398 
Q 3181 191 3288 0 
L 2700 0 
Q 2613 175 2588 409 
z
M 2541 1666 
Q 2234 1541 1622 1453 
Q 1275 1403 1131 1340 
Q 988 1278 909 1158 
Q 831 1038 831 891 
Q 831 666 1001 516 
Q 1172 366 1500 366 
Q 1825 366 2078 508 
Q 2331 650 2450 897 
Q 2541 1088 2541 1459 
L 2541 1666 
z
" transform="scale(0.015625)"/>
       <path id="ArialMT-65" d="M 2694 1069 
L 3275 997 
Q 3138 488 2766 206 
Q 2394 -75 1816 -75 
Q 1088 -75 661 373 
Q 234 822 234 1631 
Q 234 2469 665 2931 
Q 1097 3394 1784 3394 
Q 2450 3394 2872 2941 
Q 3294 2488 3294 1666 
Q 3294 1616 3291 1516 
L 816 1516 
Q 847 969 1125 678 
Q 1403 388 1819 388 
Q 2128 388 2347 550 
Q 2566 713 2694 1069 
z
M 847 1978 
L 2700 1978 
Q 2663 2397 2488 2606 
Q 2219 2931 1791 2931 
Q 1403 2931 1139 2672 
Q 875 2413 847 1978 
z
" transform="scale(0.015625)"/>
       <path id="ArialMT-75" d="M 2597 0 
L 2597 488 
Q 2209 -75 1544 -75 
Q 1250 -75 995 37 
Q 741 150 617 320 
Q 494 491 444 738 
Q 409 903 409 1263 
L 409 3319 
L 972 3319 
L 972 1478 
Q 972 1038 1006 884 
Q 1059 663 1231 536 
Q 1403 409 1656 409 
Q 1909 409 2131 539 
Q 2353 669 2445 892 
Q 2538 1116 2538 1541 
L 2538 3319 
L 3100 3319 
L 3100 0 
L 2597 0 
z
" transform="scale(0.015625)"/>
       <path id="ArialMT-73" d="M 197 991 
L 753 1078 
Q 800 744 1014 566 
Q 1228 388 1613 388 
Q 2000 388 2187 545 
Q 2375 703 2375 916 
Q 2375 1106 2209 1216 
Q 2094 1291 1634 1406 
Q 1016 1563 777 1677 
Q 538 1791 414 1992 
Q 291 2194 291 2438 
Q 291 2659 392 2848 
Q 494 3038 669 3163 
Q 800 3259 1026 3326 
Q 1253 3394 1513 3394 
Q 1903 3394 2198 3281 
Q 2494 3169 2634 2976 
Q 2775 2784 2828 2463 
L 2278 2388 
Q 2241 2644 2061 2787 
Q 1881 2931 1553 2931 
Q 1166 2931 1000 2803 
Q 834 2675 834 2503 
Q 834 2394 903 2306 
Q 972 2216 1119 2156 
Q 1203 2125 1616 2013 
Q 2213 1853 2448 1751 
Q 2684 1650 2818 1456 
Q 2953 1263 2953 975 
Q 2953 694 2789 445 
Q 2625 197 2315 61 
Q 2006 -75 1616 -75 
Q 969 -75 630 194 
Q 291 463 197 991 
z
" transform="scale(0.015625)"/>
       <path id="ArialMT-20" transform="scale(0.015625)"/>
       <path id="ArialMT-43" d="M 3763 1606 
L 4369 1453 
Q 4178 706 3683 314 
Q 3188 -78 2472 -78 
Q 1731 -78 1267 223 
Q 803 525 561 1097 
Q 319 1669 319 2325 
Q 319 3041 592 3573 
Q 866 4106 1370 4382 
Q 1875 4659 2481 4659 
Q 3169 4659 3637 4309 
Q 4106 3959 4291 3325 
L 3694 3184 
Q 3534 3684 3231 3912 
Q 2928 4141 2469 4141 
Q 1941 4141 1586 3887 
Q 1231 3634 1087 3207 
Q 944 2781 944 2328 
Q 944 1744 1114 1308 
Q 1284 872 1643 656 
Q 2003 441 2422 441 
Q 2931 441 3284 734 
Q 3638 1028 3763 1606 
z
" transform="scale(0.015625)"/>
       <path id="ArialMT-72" d="M 416 0 
L 416 3319 
L 922 3319 
L 922 2816 
Q 1116 3169 1280 3281 
Q 1444 3394 1641 3394 
Q 1925 3394 2219 3213 
L 2025 2691 
Q 1819 2813 1613 2813 
Q 1428 2813 1281 2702 
Q 1134 2591 1072 2394 
Q 978 2094 978 1738 
L 978 0 
L 416 0 
z
" transform="scale(0.015625)"/>
       <path id="ArialMT-76" d="M 1344 0 
L 81 3319 
L 675 3319 
L 1388 1331 
Q 1503 1009 1600 663 
Q 1675 925 1809 1294 
L 2547 3319 
L 3125 3319 
L 1869 0 
L 1344 0 
z
" transform="scale(0.015625)"/>
       <path id="ArialMT-28" d="M 1497 -1347 
Q 1031 -759 709 28 
Q 388 816 388 1659 
Q 388 2403 628 3084 
Q 909 3875 1497 4659 
L 1900 4659 
Q 1522 4009 1400 3731 
Q 1209 3300 1100 2831 
Q 966 2247 966 1656 
Q 966 153 1900 -1347 
L 1497 -1347 
z
" transform="scale(0.015625)"/>
       <path id="ArialMT-6d" d="M 422 0 
L 422 3319 
L 925 3319 
L 925 2853 
Q 1081 3097 1340 3245 
Q 1600 3394 1931 3394 
Q 2300 3394 2536 3241 
Q 2772 3088 2869 2813 
Q 3263 3394 3894 3394 
Q 4388 3394 4653 3120 
Q 4919 2847 4919 2278 
L 4919 0 
L 4359 0 
L 4359 2091 
Q 4359 2428 4304 2576 
Q 4250 2725 4106 2815 
Q 3963 2906 3769 2906 
Q 3419 2906 3187 2673 
Q 2956 2441 2956 1928 
L 2956 0 
L 2394 0 
L 2394 2156 
Q 2394 2531 2256 2718 
Q 2119 2906 1806 2906 
Q 1569 2906 1367 2781 
Q 1166 2656 1075 2415 
Q 984 2175 984 1722 
L 984 0 
L 422 0 
z
" transform="scale(0.015625)"/>
       <path id="DejaVuSans-2212" d="M 678 2272 
L 4684 2272 
L 4684 1741 
L 678 1741 
L 678 2272 
z
" transform="scale(0.015625)"/>
       <path id="DejaVuSans-31" d="M 794 531 
L 1825 531 
L 1825 4091 
L 703 3866 
L 703 4441 
L 1819 4666 
L 2450 4666 
L 2450 531 
L 3481 531 
L 3481 0 
L 794 0 
L 794 531 
z
" transform="scale(0.015625)"/>
       <path id="ArialMT-29" d="M 791 -1347 
L 388 -1347 
Q 1322 153 1322 1656 
Q 1322 2244 1188 2822 
Q 1081 3291 891 3722 
Q 769 4003 388 4659 
L 791 4659 
Q 1378 3875 1659 3084 
Q 1900 2403 1900 1659 
Q 1900 816 1576 28 
Q 1253 -759 791 -1347 
z
" transform="scale(0.015625)"/>
      </defs>
      <use xlink:href="#ArialMT-53" transform="translate(0 0.684375)"/>
      <use xlink:href="#ArialMT-70" transform="translate(66.699219 0.684375)"/>
      <use xlink:href="#ArialMT-6f" transform="translate(122.314453 0.684375)"/>
      <use xlink:href="#ArialMT-6e" transform="translate(177.929688 0.684375)"/>
      <use xlink:href="#ArialMT-74" transform="translate(233.544922 0.684375)"/>
      <use xlink:href="#ArialMT-61" transform="translate(261.328125 0.684375)"/>
      <use xlink:href="#ArialMT-6e" transform="translate(316.943359 0.684375)"/>
      <use xlink:href="#ArialMT-65" transform="translate(372.558594 0.684375)"/>
      <use xlink:href="#ArialMT-6f" transform="translate(428.173828 0.684375)"/>
      <use xlink:href="#ArialMT-75" transform="translate(483.789062 0.684375)"/>
      <use xlink:href="#ArialMT-73" transform="translate(539.404297 0.684375)"/>
      <use xlink:href="#ArialMT-20" transform="translate(589.404297 0.684375)"/>
      <use xlink:href="#ArialMT-43" transform="translate(617.1875 0.684375)"/>
      <use xlink:href="#ArialMT-75" transform="translate(689.404297 0.684375)"/>
      <use xlink:href="#ArialMT-72" transform="translate(745.019531 0.684375)"/>
      <use xlink:href="#ArialMT-76" transform="translate(778.320312 0.684375)"/>
      <use xlink:href="#ArialMT-61" transform="translate(828.320312 0.684375)"/>
      <use xlink:href="#ArialMT-74" transform="translate(883.935547 0.684375)"/>
      <use xlink:href="#ArialMT-75" transform="translate(911.71875 0.684375)"/>
      <use xlink:href="#ArialMT-72" transform="translate(967.333984 0.684375)"/>
      <use xlink:href="#ArialMT-65" transform="translate(1000.634766 0.684375)"/>
      <use xlink:href="#ArialMT-20" transform="translate(1056.25 0.684375)"/>
      <use xlink:href="#ArialMT-28" transform="translate(1084.033203 0.684375)"/>
      <use xlink:href="#ArialMT-6e" transform="translate(1117.333984 0.684375)"/>
      <use xlink:href="#ArialMT-6d" transform="translate(1172.949219 0.684375)"/>
      <use xlink:href="#DejaVuSans-2212" transform="translate(1257.207031 38.965625) scale(0.7)"/>
      <use xlink:href="#DejaVuSans-31" transform="translate(1315.859375 38.965625) scale(0.7)"/>
      <use xlink:href="#ArialMT-29" transform="translate(1363.129883 0.684375)"/>
     </g>
    </g>
   </g>
   <g id="matplotlib.axis_2">
    <g id="ytick_1">
     <g id="line2d_6">
      <defs>
       <path id="m73cc04a406" d="M 0 0 
L -9 0 
" style="stroke: #000000; stroke-width: 1.875"/>
      </defs>
      <g>
       <use xlink:href="#m73cc04a406" x="72.69" y="324.253672" style="stroke: #000000; stroke-width: 1.875"/>
      </g>
     </g>
     <g id="text_7">
      <!-- 29 -->
      <g transform="translate(42.395 329.979922) scale(0.16 -0.16)">
       <defs>
        <path id="ArialMT-39" d="M 350 1059 
L 891 1109 
Q 959 728 1153 556 
Q 1347 384 1650 384 
Q 1909 384 2104 503 
Q 2300 622 2425 820 
Q 2550 1019 2634 1356 
Q 2719 1694 2719 2044 
Q 2719 2081 2716 2156 
Q 2547 1888 2255 1720 
Q 1963 1553 1622 1553 
Q 1053 1553 659 1965 
Q 266 2378 266 3053 
Q 266 3750 677 4175 
Q 1088 4600 1706 4600 
Q 2153 4600 2523 4359 
Q 2894 4119 3086 3673 
Q 3278 3228 3278 2384 
Q 3278 1506 3087 986 
Q 2897 466 2520 194 
Q 2144 -78 1638 -78 
Q 1100 -78 759 220 
Q 419 519 350 1059 
z
M 2653 3081 
Q 2653 3566 2395 3850 
Q 2138 4134 1775 4134 
Q 1400 4134 1122 3828 
Q 844 3522 844 3034 
Q 844 2597 1108 2323 
Q 1372 2050 1759 2050 
Q 2150 2050 2401 2323 
Q 2653 2597 2653 3081 
z
" transform="scale(0.015625)"/>
       </defs>
       <use xlink:href="#ArialMT-32"/>
       <use xlink:href="#ArialMT-39" x="55.615234"/>
      </g>
     </g>
    </g>
    <g id="ytick_2">
     <g id="line2d_7">
      <g>
       <use xlink:href="#m73cc04a406" x="72.69" y="254.447002" style="stroke: #000000; stroke-width: 1.875"/>
      </g>
     </g>
     <g id="text_8">
      <!-- 30 -->
      <g transform="translate(42.395 260.173252) scale(0.16 -0.16)">
       <defs>
        <path id="ArialMT-33" d="M 269 1209 
L 831 1284 
Q 928 806 1161 595 
Q 1394 384 1728 384 
Q 2125 384 2398 659 
Q 2672 934 2672 1341 
Q 2672 1728 2419 1979 
Q 2166 2231 1775 2231 
Q 1616 2231 1378 2169 
L 1441 2663 
Q 1497 2656 1531 2656 
Q 1891 2656 2178 2843 
Q 2466 3031 2466 3422 
Q 2466 3731 2256 3934 
Q 2047 4138 1716 4138 
Q 1388 4138 1169 3931 
Q 950 3725 888 3313 
L 325 3413 
Q 428 3978 793 4289 
Q 1159 4600 1703 4600 
Q 2078 4600 2393 4439 
Q 2709 4278 2876 4000 
Q 3044 3722 3044 3409 
Q 3044 3113 2884 2869 
Q 2725 2625 2413 2481 
Q 2819 2388 3044 2092 
Q 3269 1797 3269 1353 
Q 3269 753 2831 336 
Q 2394 -81 1725 -81 
Q 1122 -81 723 278 
Q 325 638 269 1209 
z
" transform="scale(0.015625)"/>
       </defs>
       <use xlink:href="#ArialMT-33"/>
       <use xlink:href="#ArialMT-30" x="55.615234"/>
      </g>
     </g>
    </g>
    <g id="ytick_3">
     <g id="line2d_8">
      <g>
       <use xlink:href="#m73cc04a406" x="72.69" y="184.640331" style="stroke: #000000; stroke-width: 1.875"/>
      </g>
     </g>
     <g id="text_9">
      <!-- 31 -->
      <g transform="translate(42.395 190.366581) scale(0.16 -0.16)">
       <defs>
        <path id="ArialMT-31" d="M 2384 0 
L 1822 0 
L 1822 3584 
Q 1619 3391 1289 3197 
Q 959 3003 697 2906 
L 697 3450 
Q 1169 3672 1522 3987 
Q 1875 4303 2022 4600 
L 2384 4600 
L 2384 0 
z
" transform="scale(0.015625)"/>
       </defs>
       <use xlink:href="#ArialMT-33"/>
       <use xlink:href="#ArialMT-31" x="55.615234"/>
      </g>
     </g>
    </g>
    <g id="ytick_4">
     <g id="line2d_9">
      <g>
       <use xlink:href="#m73cc04a406" x="72.69" y="114.83366" style="stroke: #000000; stroke-width: 1.875"/>
      </g>
     </g>
     <g id="text_10">
      <!-- 32 -->
      <g transform="translate(42.395 120.55991) scale(0.16 -0.16)">
       <use xlink:href="#ArialMT-33"/>
       <use xlink:href="#ArialMT-32" x="55.615234"/>
      </g>
     </g>
    </g>
    <g id="ytick_5">
     <g id="line2d_10">
      <g>
       <use xlink:href="#m73cc04a406" x="72.69" y="45.026989" style="stroke: #000000; stroke-width: 1.875"/>
      </g>
     </g>
     <g id="text_11">
      <!-- 33 -->
      <g transform="translate(42.395 50.753239) scale(0.16 -0.16)">
       <use xlink:href="#ArialMT-33"/>
       <use xlink:href="#ArialMT-33" x="55.615234"/>
      </g>
     </g>
    </g>
    <g id="text_12">
     <!-- Height (nm) -->
     <g transform="translate(34.185625 239.532813) rotate(-90) scale(0.2 -0.2)">
      <defs>
       <path id="ArialMT-48" d="M 513 0 
L 513 4581 
L 1119 4581 
L 1119 2700 
L 3500 2700 
L 3500 4581 
L 4106 4581 
L 4106 0 
L 3500 0 
L 3500 2159 
L 1119 2159 
L 1119 0 
L 513 0 
z
" transform="scale(0.015625)"/>
       <path id="ArialMT-69" d="M 425 3934 
L 425 4581 
L 988 4581 
L 988 3934 
L 425 3934 
z
M 425 0 
L 425 3319 
L 988 3319 
L 988 0 
L 425 0 
z
" transform="scale(0.015625)"/>
       <path id="ArialMT-67" d="M 319 -275 
L 866 -356 
Q 900 -609 1056 -725 
Q 1266 -881 1628 -881 
Q 2019 -881 2231 -725 
Q 2444 -569 2519 -288 
Q 2563 -116 2559 434 
Q 2191 0 1641 0 
Q 956 0 581 494 
Q 206 988 206 1678 
Q 206 2153 378 2554 
Q 550 2956 876 3175 
Q 1203 3394 1644 3394 
Q 2231 3394 2613 2919 
L 2613 3319 
L 3131 3319 
L 3131 450 
Q 3131 -325 2973 -648 
Q 2816 -972 2473 -1159 
Q 2131 -1347 1631 -1347 
Q 1038 -1347 672 -1080 
Q 306 -813 319 -275 
z
M 784 1719 
Q 784 1066 1043 766 
Q 1303 466 1694 466 
Q 2081 466 2343 764 
Q 2606 1063 2606 1700 
Q 2606 2309 2336 2618 
Q 2066 2928 1684 2928 
Q 1309 2928 1046 2623 
Q 784 2319 784 1719 
z
" transform="scale(0.015625)"/>
       <path id="ArialMT-68" d="M 422 0 
L 422 4581 
L 984 4581 
L 984 2938 
Q 1378 3394 1978 3394 
Q 2347 3394 2619 3248 
Q 2891 3103 3008 2847 
Q 3125 2591 3125 2103 
L 3125 0 
L 2563 0 
L 2563 2103 
Q 2563 2525 2380 2717 
Q 2197 2909 1863 2909 
Q 1613 2909 1392 2779 
Q 1172 2650 1078 2428 
Q 984 2206 984 1816 
L 984 0 
L 422 0 
z
" transform="scale(0.015625)"/>
      </defs>
      <use xlink:href="#ArialMT-48"/>
      <use xlink:href="#ArialMT-65" x="72.216797"/>
      <use xlink:href="#ArialMT-69" x="127.832031"/>
      <use xlink:href="#ArialMT-67" x="150.048828"/>
      <use xlink:href="#ArialMT-68" x="205.664062"/>
      <use xlink:href="#ArialMT-74" x="261.279297"/>
      <use xlink:href="#ArialMT-20" x="289.0625"/>
      <use xlink:href="#ArialMT-28" x="316.845703"/>
      <use xlink:href="#ArialMT-6e" x="350.146484"/>
      <use xlink:href="#ArialMT-6d" x="405.761719"/>
      <use xlink:href="#ArialMT-29" x="489.0625"/>
     </g>
    </g>
   </g>
   <g id="LineCollection_1">
    <path d="M 241.311364 319.15967 
L 241.311364 246.245835 
" clip-path="url(#p8cd229746d)" style="fill: none; stroke: #1f77b4; stroke-width: 2.25"/>
    <path d="M 192.435606 320.767248 
L 192.435606 248.653327 
" clip-path="url(#p8cd229746d)" style="fill: none; stroke: #1f77b4; stroke-width: 2.25"/>
    <path d="M 290.187121 320.751123 
L 290.187121 248.115397 
" clip-path="url(#p8cd229746d)" style="fill: none; stroke: #1f77b4; stroke-width: 2.25"/>
    <path d="M 339.062879 321.323677 
L 339.062879 248.191347 
" clip-path="url(#p8cd229746d)" style="fill: none; stroke: #1f77b4; stroke-width: 2.25"/>
    <path d="M 387.938636 320.767876 
L 387.938636 249.876899 
" clip-path="url(#p8cd229746d)" style="fill: none; stroke: #1f77b4; stroke-width: 2.25"/>
    <path d="M 436.814394 324.407457 
L 436.814394 247.495374 
" clip-path="url(#p8cd229746d)" style="fill: none; stroke: #1f77b4; stroke-width: 2.25"/>
    <path d="M 143.559848 265.380681 
L 143.559848 245.737363 
" clip-path="url(#p8cd229746d)" style="fill: none; stroke: #1f77b4; stroke-width: 2.25"/>
    <path d="M 94.684091 319.595543 
L 94.684091 247.181174 
" clip-path="url(#p8cd229746d)" style="fill: none; stroke: #1f77b4; stroke-width: 2.25"/>
    <path d="M 485.690152 331.822251 
L 485.690152 248.985188 
" clip-path="url(#p8cd229746d)" style="fill: none; stroke: #1f77b4; stroke-width: 2.25"/>
    <path d="M 534.565909 339.9 
L 534.565909 249.589086 
" clip-path="url(#p8cd229746d)" style="fill: none; stroke: #1f77b4; stroke-width: 2.25"/>
   </g>
   <g id="line2d_11">
    <defs>
     <path id="m7e249b957c" d="M 10 0 
L -10 -0 
" style="stroke: #1f77b4"/>
    </defs>
    <g clip-path="url(#p8cd229746d)">
     <use xlink:href="#m7e249b957c" x="241.311364" y="319.15967" style="fill: #1f77b4; stroke: #1f77b4"/>
     <use xlink:href="#m7e249b957c" x="192.435606" y="320.767248" style="fill: #1f77b4; stroke: #1f77b4"/>
     <use xlink:href="#m7e249b957c" x="290.187121" y="320.751123" style="fill: #1f77b4; stroke: #1f77b4"/>
     <use xlink:href="#m7e249b957c" x="339.062879" y="321.323677" style="fill: #1f77b4; stroke: #1f77b4"/>
     <use xlink:href="#m7e249b957c" x="387.938636" y="320.767876" style="fill: #1f77b4; stroke: #1f77b4"/>
     <use xlink:href="#m7e249b957c" x="436.814394" y="324.407457" style="fill: #1f77b4; stroke: #1f77b4"/>
     <use xlink:href="#m7e249b957c" x="143.559848" y="265.380681" style="fill: #1f77b4; stroke: #1f77b4"/>
     <use xlink:href="#m7e249b957c" x="94.684091" y="319.595543" style="fill: #1f77b4; stroke: #1f77b4"/>
     <use xlink:href="#m7e249b957c" x="485.690152" y="331.822251" style="fill: #1f77b4; stroke: #1f77b4"/>
     <use xlink:href="#m7e249b957c" x="534.565909" y="339.9" style="fill: #1f77b4; stroke: #1f77b4"/>
    </g>
   </g>
   <g id="line2d_12">
    <g clip-path="url(#p8cd229746d)">
     <use xlink:href="#m7e249b957c" x="241.311364" y="246.245835" style="fill: #1f77b4; stroke: #1f77b4"/>
     <use xlink:href="#m7e249b957c" x="192.435606" y="248.653327" style="fill: #1f77b4; stroke: #1f77b4"/>
     <use xlink:href="#m7e249b957c" x="290.187121" y="248.115397" style="fill: #1f77b4; stroke: #1f77b4"/>
     <use xlink:href="#m7e249b957c" x="339.062879" y="248.191347" style="fill: #1f77b4; stroke: #1f77b4"/>
     <use xlink:href="#m7e249b957c" x="387.938636" y="249.876899" style="fill: #1f77b4; stroke: #1f77b4"/>
     <use xlink:href="#m7e249b957c" x="436.814394" y="247.495374" style="fill: #1f77b4; stroke: #1f77b4"/>
     <use xlink:href="#m7e249b957c" x="143.559848" y="245.737363" style="fill: #1f77b4; stroke: #1f77b4"/>
     <use xlink:href="#m7e249b957c" x="94.684091" y="247.181174" style="fill: #1f77b4; stroke: #1f77b4"/>
     <use xlink:href="#m7e249b957c" x="485.690152" y="248.985188" style="fill: #1f77b4; stroke: #1f77b4"/>
     <use xlink:href="#m7e249b957c" x="534.565909" y="249.589086" style="fill: #1f77b4; stroke: #1f77b4"/>
    </g>
   </g>
   <g id="LineCollection_2">
    <path d="M 241.311364 97.536754 
L 241.311364 44.25416 
" clip-path="url(#p8cd229746d)" style="fill: none; stroke: #ff7f0e; stroke-width: 2.25"/>
    <path d="M 192.435606 114.35723 
L 192.435606 38.131696 
" clip-path="url(#p8cd229746d)" style="fill: none; stroke: #ff7f0e; stroke-width: 2.25"/>
    <path d="M 387.938636 120.735884 
L 387.938636 59.517528 
" clip-path="url(#p8cd229746d)" style="fill: none; stroke: #ff7f0e; stroke-width: 2.25"/>
    <path d="M 436.814394 137.10841 
L 436.814394 51.375278 
" clip-path="url(#p8cd229746d)" style="fill: none; stroke: #ff7f0e; stroke-width: 2.25"/>
    <path d="M 485.690152 146.715763 
L 485.690152 69.818898 
" clip-path="url(#p8cd229746d)" style="fill: none; stroke: #ff7f0e; stroke-width: 2.25"/>
    <path d="M 534.565909 149.499164 
L 534.565909 60.232278 
" clip-path="url(#p8cd229746d)" style="fill: none; stroke: #ff7f0e; stroke-width: 2.25"/>
    <path d="M 241.311364 111.052023 
L 241.311364 44.25416 
" clip-path="url(#p8cd229746d)" style="fill: none; stroke: #ff7f0e; stroke-width: 2.25"/>
    <path d="M 192.435606 109.458337 
L 192.435606 38.131696 
" clip-path="url(#p8cd229746d)" style="fill: none; stroke: #ff7f0e; stroke-width: 2.25"/>
    <path d="M 143.559848 108.421359 
L 143.559848 34.968825 
" clip-path="url(#p8cd229746d)" style="fill: none; stroke: #ff7f0e; stroke-width: 2.25"/>
    <path d="M 94.684091 108.158397 
L 94.684091 34.7 
" clip-path="url(#p8cd229746d)" style="fill: none; stroke: #ff7f0e; stroke-width: 2.25"/>
   </g>
   <g id="line2d_13">
    <defs>
     <path id="m4f9e8cc8c7" d="M 10 0 
L -10 -0 
" style="stroke: #ff7f0e"/>
    </defs>
    <g clip-path="url(#p8cd229746d)">
     <use xlink:href="#m4f9e8cc8c7" x="241.311364" y="97.536754" style="fill: #ff7f0e; stroke: #ff7f0e"/>
     <use xlink:href="#m4f9e8cc8c7" x="192.435606" y="114.35723" style="fill: #ff7f0e; stroke: #ff7f0e"/>
     <use xlink:href="#m4f9e8cc8c7" x="387.938636" y="120.735884" style="fill: #ff7f0e; stroke: #ff7f0e"/>
     <use xlink:href="#m4f9e8cc8c7" x="436.814394" y="137.10841" style="fill: #ff7f0e; stroke: #ff7f0e"/>
     <use xlink:href="#m4f9e8cc8c7" x="485.690152" y="146.715763" style="fill: #ff7f0e; stroke: #ff7f0e"/>
     <use xlink:href="#m4f9e8cc8c7" x="534.565909" y="149.499164" style="fill: #ff7f0e; stroke: #ff7f0e"/>
     <use xlink:href="#m4f9e8cc8c7" x="241.311364" y="111.052023" style="fill: #ff7f0e; stroke: #ff7f0e"/>
     <use xlink:href="#m4f9e8cc8c7" x="192.435606" y="109.458337" style="fill: #ff7f0e; stroke: #ff7f0e"/>
     <use xlink:href="#m4f9e8cc8c7" x="143.559848" y="108.421359" style="fill: #ff7f0e; stroke: #ff7f0e"/>
     <use xlink:href="#m4f9e8cc8c7" x="94.684091" y="108.158397" style="fill: #ff7f0e; stroke: #ff7f0e"/>
    </g>
   </g>
   <g id="line2d_14">
    <g clip-path="url(#p8cd229746d)">
     <use xlink:href="#m4f9e8cc8c7" x="241.311364" y="44.25416" style="fill: #ff7f0e; stroke: #ff7f0e"/>
     <use xlink:href="#m4f9e8cc8c7" x="192.435606" y="38.131696" style="fill: #ff7f0e; stroke: #ff7f0e"/>
     <use xlink:href="#m4f9e8cc8c7" x="387.938636" y="59.517528" style="fill: #ff7f0e; stroke: #ff7f0e"/>
     <use xlink:href="#m4f9e8cc8c7" x="436.814394" y="51.375278" style="fill: #ff7f0e; stroke: #ff7f0e"/>
     <use xlink:href="#m4f9e8cc8c7" x="485.690152" y="69.818898" style="fill: #ff7f0e; stroke: #ff7f0e"/>
     <use xlink:href="#m4f9e8cc8c7" x="534.565909" y="60.232278" style="fill: #ff7f0e; stroke: #ff7f0e"/>
     <use xlink:href="#m4f9e8cc8c7" x="241.311364" y="44.25416" style="fill: #ff7f0e; stroke: #ff7f0e"/>
     <use xlink:href="#m4f9e8cc8c7" x="192.435606" y="38.131696" style="fill: #ff7f0e; stroke: #ff7f0e"/>
     <use xlink:href="#m4f9e8cc8c7" x="143.559848" y="34.968825" style="fill: #ff7f0e; stroke: #ff7f0e"/>
     <use xlink:href="#m4f9e8cc8c7" x="94.684091" y="34.7" style="fill: #ff7f0e; stroke: #ff7f0e"/>
    </g>
   </g>
   <g id="line2d_15">
    <defs>
     <path id="m623dde072e" d="M 0 4.5 
C 1.193414 4.5 2.338109 4.025852 3.181981 3.181981 
C 4.025852 2.338109 4.5 1.193414 4.5 0 
C 4.5 -1.193414 4.025852 -2.338109 3.181981 -3.181981 
C 2.338109 -4.025852 1.193414 -4.5 0 -4.5 
C -1.193414 -4.5 -2.338109 -4.025852 -3.181981 -3.181981 
C -4.025852 -2.338109 -4.5 -1.193414 -4.5 0 
C -4.5 1.193414 -4.025852 2.338109 -3.181981 3.181981 
C -2.338109 4.025852 -1.193414 4.5 0 4.5 
z
" style="stroke: #1f77b4"/>
    </defs>
    <g clip-path="url(#p8cd229746d)">
     <use xlink:href="#m623dde072e" x="241.311364" y="287.49334" style="fill: #1f77b4; stroke: #1f77b4"/>
     <use xlink:href="#m623dde072e" x="192.435606" y="270.794677" style="fill: #1f77b4; stroke: #1f77b4"/>
     <use xlink:href="#m623dde072e" x="290.187121" y="297.010223" style="fill: #1f77b4; stroke: #1f77b4"/>
     <use xlink:href="#m623dde072e" x="339.062879" y="310.690585" style="fill: #1f77b4; stroke: #1f77b4"/>
     <use xlink:href="#m623dde072e" x="387.938636" y="317.689751" style="fill: #1f77b4; stroke: #1f77b4"/>
     <use xlink:href="#m623dde072e" x="436.814394" y="324.407457" style="fill: #1f77b4; stroke: #1f77b4"/>
     <use xlink:href="#m623dde072e" x="143.559848" y="265.380681" style="fill: #1f77b4; stroke: #1f77b4"/>
     <use xlink:href="#m623dde072e" x="94.684091" y="265.971315" style="fill: #1f77b4; stroke: #1f77b4"/>
     <use xlink:href="#m623dde072e" x="485.690152" y="331.822251" style="fill: #1f77b4; stroke: #1f77b4"/>
     <use xlink:href="#m623dde072e" x="534.565909" y="339.9" style="fill: #1f77b4; stroke: #1f77b4"/>
    </g>
   </g>
   <g id="line2d_16">
    <defs>
     <path id="m116b5f5d1b" d="M 0 4.5 
C 1.193414 4.5 2.338109 4.025852 3.181981 3.181981 
C 4.025852 2.338109 4.5 1.193414 4.5 0 
C 4.5 -1.193414 4.025852 -2.338109 3.181981 -3.181981 
C 2.338109 -4.025852 1.193414 -4.5 0 -4.5 
C -1.193414 -4.5 -2.338109 -4.025852 -3.181981 -3.181981 
C -4.025852 -2.338109 -4.5 -1.193414 -4.5 0 
C -4.5 1.193414 -4.025852 2.338109 -3.181981 3.181981 
C -2.338109 4.025852 -1.193414 4.5 0 4.5 
z
" style="stroke: #ff7f0e"/>
    </defs>
    <g clip-path="url(#p8cd229746d)">
     <use xlink:href="#m116b5f5d1b" x="241.311364" y="82.438758" style="fill: #ff7f0e; stroke: #ff7f0e"/>
     <use xlink:href="#m116b5f5d1b" x="192.435606" y="77.342103" style="fill: #ff7f0e; stroke: #ff7f0e"/>
     <use xlink:href="#m116b5f5d1b" x="387.938636" y="120.735884" style="fill: #ff7f0e; stroke: #ff7f0e"/>
     <use xlink:href="#m116b5f5d1b" x="436.814394" y="137.10841" style="fill: #ff7f0e; stroke: #ff7f0e"/>
     <use xlink:href="#m116b5f5d1b" x="485.690152" y="146.715763" style="fill: #ff7f0e; stroke: #ff7f0e"/>
     <use xlink:href="#m116b5f5d1b" x="534.565909" y="149.499164" style="fill: #ff7f0e; stroke: #ff7f0e"/>
     <use xlink:href="#m116b5f5d1b" x="241.311364" y="82.438758" style="fill: #ff7f0e; stroke: #ff7f0e"/>
     <use xlink:href="#m116b5f5d1b" x="192.435606" y="77.342103" style="fill: #ff7f0e; stroke: #ff7f0e"/>
     <use xlink:href="#m116b5f5d1b" x="143.559848" y="73.889395" style="fill: #ff7f0e; stroke: #ff7f0e"/>
     <use xlink:href="#m116b5f5d1b" x="94.684091" y="73.933094" style="fill: #ff7f0e; stroke: #ff7f0e"/>
    </g>
   </g>
   <g id="patch_3">
    <path d="M 72.69 355.16 
L 72.69 19.44 
" style="fill: none; stroke: #000000; stroke-width: 1.875; stroke-linejoin: miter; stroke-linecap: square"/>
   </g>
   <g id="patch_4">
    <path d="M 556.56 355.16 
L 556.56 19.44 
" style="fill: none; stroke: #000000; stroke-width: 1.875; stroke-linejoin: miter; stroke-linecap: square"/>
   </g>
   <g id="patch_5">
    <path d="M 72.69 355.16 
L 556.56 355.16 
" style="fill: none; stroke: #000000; stroke-width: 1.875; stroke-linejoin: miter; stroke-linecap: square"/>
   </g>
   <g id="patch_6">
    <path d="M 72.69 19.44 
L 556.56 19.44 
" style="fill: none; stroke: #000000; stroke-width: 1.875; stroke-linejoin: miter; stroke-linecap: square"/>
   </g>
  </g>
 </g>
 <defs>
  <clipPath id="p8cd229746d">
   <rect x="72.69" y="19.44" width="483.87" height="335.72"/>
  </clipPath>
 </defs>
</svg>
